<svg id="afad1bc2-4619-4611-ada8-05e42b209f8d" data-name="Layer 1" xmlns="http://www.w3.org/2000/svg" viewBox="0 0 39.9 39.9"><defs><style>.a2812772-fa53-412c-bc29-e971ede85cb5{fill:#f2f2f2;}</style></defs><path class="a2812772-fa53-412c-bc29-e971ede85cb5" d="M33.9,6.1a19.6,19.6,0,0,0-27.8,0A19.2,19.2,0,0,0,.3,20,19.7,19.7,0,0,0,20,39.6a19.9,19.9,0,0,0,13.9-5.7A19.9,19.9,0,0,0,39.6,20,19.6,19.6,0,0,0,33.9,6.1Zm-8.5,6.2H22.9c-1,0-1.1.3-1.1,1.3v2.3h3.6l-.3,4H21.8V31.8H17V19.9H14.5v-4H17V12.7c0-3,1.6-4.6,5.1-4.6h3.3Z"/></svg>