<svg id="b49c1e09-4934-4209-90b3-8d1779e39fd8" data-name="Layer 1" xmlns="http://www.w3.org/2000/svg" viewBox="0 0 39.9 39.9"><defs><style>.b3a6bfcb-bbd2-4a8b-8eb7-7ac7485f265f{fill:#f2f2f2;}</style></defs><path class="b3a6bfcb-bbd2-4a8b-8eb7-7ac7485f265f" d="M33.9,6.1A19.6,19.6,0,0,0,20,.3,19.2,19.2,0,0,0,6.1,6.1,19.2,19.2,0,0,0,.3,20,19.7,19.7,0,0,0,20,39.6a19.9,19.9,0,0,0,13.9-5.7A19.9,19.9,0,0,0,39.6,20,19.6,19.6,0,0,0,33.9,6.1ZM14.6,28.5A8.5,8.5,0,0,1,6.1,20a8.6,8.6,0,0,1,8.5-8.6,8.5,8.5,0,0,1,6,2.5l-1.7,1.5a6.4,6.4,0,0,0-4.3-1.7,6.3,6.3,0,0,0,0,12.5c2.7,0,4.6-1.7,5.3-4.5H14.5V19.5h7.9v.8C22.4,25,19.2,28.5,14.6,28.5Zm19.2-6.9H30.6v3.3H28.5V21.6H25.2v-2h3.3V16.3h2.1v3.3h3.2Z"/></svg>