<svg id="a3dd56c9-ba0f-4754-bb13-f3ad8779e937" data-name="Layer 1" xmlns="http://www.w3.org/2000/svg" viewBox="0 0 39.9 39.9"><defs><style>.f5e32400-fcc9-4bea-a332-c3b906d9e43d{fill:#f2f2f2;}</style></defs><path class="f5e32400-fcc9-4bea-a332-c3b906d9e43d" d="M23.6,20A3.7,3.7,0,0,1,20,23.6,3.6,3.6,0,0,1,16.4,20,3.6,3.6,0,0,1,20,16.4,3.6,3.6,0,0,1,23.6,20Z"/><path class="f5e32400-fcc9-4bea-a332-c3b906d9e43d" d="M28.7,15.6a7,7,0,0,0-.3-2,5,5,0,0,0-.8-1.2,3.5,3.5,0,0,0-1.3-.8,5.6,5.6,0,0,0-2-.4H15.6a6.2,6.2,0,0,0-2,.4,3.7,3.7,0,0,0-2,2,6.2,6.2,0,0,0-.4,2v8.7a5.6,5.6,0,0,0,.4,2,2.5,2.5,0,0,0,.8,1.2,3.4,3.4,0,0,0,1.2.9,7,7,0,0,0,2,.3h8.7a6.3,6.3,0,0,0,2-.3,3.8,3.8,0,0,0,1.3-.9,3.6,3.6,0,0,0,.8-1.2,6.3,6.3,0,0,0,.3-2,40.4,40.4,0,0,0,.1-4.3A42.7,42.7,0,0,0,28.7,15.6ZM20,25.5A5.6,5.6,0,1,1,25.5,20,5.6,5.6,0,0,1,20,25.5Zm5.7-10A1.3,1.3,0,1,1,27,14.2,1.3,1.3,0,0,1,25.7,15.5Zm3,.1a7,7,0,0,0-.3-2,5,5,0,0,0-.8-1.2,3.5,3.5,0,0,0-1.3-.8,5.6,5.6,0,0,0-2-.4H15.6a6.2,6.2,0,0,0-2,.4,3.7,3.7,0,0,0-2,2,6.2,6.2,0,0,0-.4,2v8.7a5.6,5.6,0,0,0,.4,2,2.5,2.5,0,0,0,.8,1.2,3.4,3.4,0,0,0,1.2.9,7,7,0,0,0,2,.3h8.7a6.3,6.3,0,0,0,2-.3,3.8,3.8,0,0,0,1.3-.9,3.6,3.6,0,0,0,.8-1.2,6.3,6.3,0,0,0,.3-2,40.4,40.4,0,0,0,.1-4.3A42.7,42.7,0,0,0,28.7,15.6ZM20,25.5A5.6,5.6,0,1,1,25.5,20,5.6,5.6,0,0,1,20,25.5Zm5.7-10A1.3,1.3,0,1,1,27,14.2,1.3,1.3,0,0,1,25.7,15.5Zm3,.1a7,7,0,0,0-.3-2,5,5,0,0,0-.8-1.2,3.5,3.5,0,0,0-1.3-.8,5.6,5.6,0,0,0-2-.4H15.6a6.2,6.2,0,0,0-2,.4,3.7,3.7,0,0,0-2,2,6.2,6.2,0,0,0-.4,2v8.7a5.6,5.6,0,0,0,.4,2,2.5,2.5,0,0,0,.8,1.2,3.4,3.4,0,0,0,1.2.9,7,7,0,0,0,2,.3h8.7a6.3,6.3,0,0,0,2-.3,3.8,3.8,0,0,0,1.3-.9,3.6,3.6,0,0,0,.8-1.2,6.3,6.3,0,0,0,.3-2,40.4,40.4,0,0,0,.1-4.3A42.7,42.7,0,0,0,28.7,15.6ZM20,25.5A5.6,5.6,0,1,1,25.5,20,5.6,5.6,0,0,1,20,25.5Zm5.7-10A1.3,1.3,0,1,1,27,14.2,1.3,1.3,0,0,1,25.7,15.5Zm3,.1a7,7,0,0,0-.3-2,5,5,0,0,0-.8-1.2,3.5,3.5,0,0,0-1.3-.8,5.6,5.6,0,0,0-2-.4H15.6a6.2,6.2,0,0,0-2,.4,3.7,3.7,0,0,0-2,2,6.2,6.2,0,0,0-.4,2v8.7a5.6,5.6,0,0,0,.4,2,2.5,2.5,0,0,0,.8,1.2,3.4,3.4,0,0,0,1.2.9,7,7,0,0,0,2,.3h8.7a6.3,6.3,0,0,0,2-.3,3.8,3.8,0,0,0,1.3-.9,3.6,3.6,0,0,0,.8-1.2,6.3,6.3,0,0,0,.3-2,40.4,40.4,0,0,0,.1-4.3A42.7,42.7,0,0,0,28.7,15.6ZM20,25.5A5.6,5.6,0,1,1,25.5,20,5.6,5.6,0,0,1,20,25.5Zm5.7-10A1.3,1.3,0,1,1,27,14.2,1.3,1.3,0,0,1,25.7,15.5Zm8.2-9.4A19.6,19.6,0,0,0,20,.3,19.2,19.2,0,0,0,6.1,6.1,19.2,19.2,0,0,0,.3,20,19.7,19.7,0,0,0,20,39.6a19.9,19.9,0,0,0,13.9-5.7A19.9,19.9,0,0,0,39.6,20,19.6,19.6,0,0,0,33.9,6.1ZM30.7,24.4a13.3,13.3,0,0,1-.5,2.6A6.2,6.2,0,0,1,27,30.2a12,12,0,0,1-2.6.5H15.5a13.3,13.3,0,0,1-2.6-.5A5.9,5.9,0,0,1,11,28.9,4.4,4.4,0,0,1,9.8,27a6.3,6.3,0,0,1-.5-2.6A41.6,41.6,0,0,1,9.2,20a44,44,0,0,1,.1-4.5,6.3,6.3,0,0,1,.5-2.6A4.4,4.4,0,0,1,11,11a4.4,4.4,0,0,1,1.9-1.2,6.3,6.3,0,0,1,2.6-.5h8.9a6,6,0,0,1,2.6.5A4.4,4.4,0,0,1,28.9,11a5.9,5.9,0,0,1,1.3,1.9,13.3,13.3,0,0,1,.5,2.6v8.9ZM28.4,13.6a5,5,0,0,0-.8-1.2,3.5,3.5,0,0,0-1.3-.8,5.6,5.6,0,0,0-2-.4H15.6a6.2,6.2,0,0,0-2,.4,3.7,3.7,0,0,0-2,2,6.2,6.2,0,0,0-.4,2v8.7a5.6,5.6,0,0,0,.4,2,2.5,2.5,0,0,0,.8,1.2,3.4,3.4,0,0,0,1.2.9,7,7,0,0,0,2,.3h8.7a6.3,6.3,0,0,0,2-.3,3.8,3.8,0,0,0,1.3-.9,3.6,3.6,0,0,0,.8-1.2,6.3,6.3,0,0,0,.3-2,40.4,40.4,0,0,0,.1-4.3,42.7,42.7,0,0,0-.1-4.4A7,7,0,0,0,28.4,13.6ZM20,25.5A5.6,5.6,0,1,1,25.5,20,5.6,5.6,0,0,1,20,25.5Zm5.7-10A1.3,1.3,0,1,1,27,14.2,1.3,1.3,0,0,1,25.7,15.5Zm3,.1a7,7,0,0,0-.3-2,5,5,0,0,0-.8-1.2,3.5,3.5,0,0,0-1.3-.8,5.6,5.6,0,0,0-2-.4H15.6a6.2,6.2,0,0,0-2,.4,3.7,3.7,0,0,0-2,2,6.2,6.2,0,0,0-.4,2v8.7a5.6,5.6,0,0,0,.4,2,2.5,2.5,0,0,0,.8,1.2,3.4,3.4,0,0,0,1.2.9,7,7,0,0,0,2,.3h8.7a6.3,6.3,0,0,0,2-.3,3.8,3.8,0,0,0,1.3-.9,3.6,3.6,0,0,0,.8-1.2,6.3,6.3,0,0,0,.3-2,40.4,40.4,0,0,0,.1-4.3A42.7,42.7,0,0,0,28.7,15.6ZM20,25.5A5.6,5.6,0,1,1,25.5,20,5.6,5.6,0,0,1,20,25.5Zm5.7-10A1.3,1.3,0,1,1,27,14.2,1.3,1.3,0,0,1,25.7,15.5Zm3,.1a7,7,0,0,0-.3-2,5,5,0,0,0-.8-1.2,3.5,3.5,0,0,0-1.3-.8,5.6,5.6,0,0,0-2-.4H15.6a6.2,6.2,0,0,0-2,.4,3.7,3.7,0,0,0-2,2,6.2,6.2,0,0,0-.4,2v8.7a5.6,5.6,0,0,0,.4,2,2.5,2.5,0,0,0,.8,1.2,3.4,3.4,0,0,0,1.2.9,7,7,0,0,0,2,.3h8.7a6.3,6.3,0,0,0,2-.3,3.8,3.8,0,0,0,1.3-.9,3.6,3.6,0,0,0,.8-1.2,6.3,6.3,0,0,0,.3-2,40.4,40.4,0,0,0,.1-4.3A42.7,42.7,0,0,0,28.7,15.6ZM20,25.5A5.6,5.6,0,1,1,25.5,20,5.6,5.6,0,0,1,20,25.5Zm5.7-10A1.3,1.3,0,1,1,27,14.2,1.3,1.3,0,0,1,25.7,15.5Zm3,.1a7,7,0,0,0-.3-2,5,5,0,0,0-.8-1.2,3.5,3.5,0,0,0-1.3-.8,5.6,5.6,0,0,0-2-.4H15.6a6.2,6.2,0,0,0-2,.4,3.7,3.7,0,0,0-2,2,6.2,6.2,0,0,0-.4,2v8.7a5.6,5.6,0,0,0,.4,2,2.5,2.5,0,0,0,.8,1.2,3.4,3.4,0,0,0,1.2.9,7,7,0,0,0,2,.3h8.7a6.3,6.3,0,0,0,2-.3,3.8,3.8,0,0,0,1.3-.9,3.6,3.6,0,0,0,.8-1.2,6.3,6.3,0,0,0,.3-2,40.4,40.4,0,0,0,.1-4.3A42.7,42.7,0,0,0,28.7,15.6ZM20,25.5A5.6,5.6,0,1,1,25.5,20,5.6,5.6,0,0,1,20,25.5Zm5.7-10A1.3,1.3,0,1,1,27,14.2,1.3,1.3,0,0,1,25.7,15.5Zm3,.1a7,7,0,0,0-.3-2,5,5,0,0,0-.8-1.2,3.5,3.5,0,0,0-1.3-.8,5.6,5.6,0,0,0-2-.4H15.6a6.2,6.2,0,0,0-2,.4,3.7,3.7,0,0,0-2,2,6.2,6.2,0,0,0-.4,2v8.7a5.6,5.6,0,0,0,.4,2,2.5,2.5,0,0,0,.8,1.2,3.4,3.4,0,0,0,1.2.9,7,7,0,0,0,2,.3h8.7a6.3,6.3,0,0,0,2-.3,3.8,3.8,0,0,0,1.3-.9,3.6,3.6,0,0,0,.8-1.2,6.3,6.3,0,0,0,.3-2,40.4,40.4,0,0,0,.1-4.3A42.7,42.7,0,0,0,28.7,15.6ZM20,25.5A5.6,5.6,0,1,1,25.5,20,5.6,5.6,0,0,1,20,25.5Zm5.7-10A1.3,1.3,0,1,1,27,14.2,1.3,1.3,0,0,1,25.7,15.5Z"/></svg>