<svg id="ae7d3690-01a6-4386-abf8-68cd00f4aae9" data-name="Layer 1" xmlns="http://www.w3.org/2000/svg" viewBox="0 0 39.9 39.9"><defs><style>.e9ce3595-6c05-4cc5-9b89-e3bf8f2fa6a3{fill:#f2f2f2;}</style></defs><path class="e9ce3595-6c05-4cc5-9b89-e3bf8f2fa6a3" d="M33.9,6.1A19.6,19.6,0,0,0,20,.3,19.2,19.2,0,0,0,6.1,6.1,19.4,19.4,0,0,0,.3,20,19.7,19.7,0,0,0,20,39.6a19.9,19.9,0,0,0,13.9-5.7,19.8,19.8,0,0,0,0-27.8ZM15.1,28.7h-4V15.6h4Zm-2-14.8a2.5,2.5,0,1,1,2.4-2.5A2.5,2.5,0,0,1,13.1,13.9ZM30.4,28.7H26.3V21.8c0-1.9-.7-2.9-2.2-2.9s-2.5,1.1-2.5,2.9v6.9H17.7V15.6h3.9v1.8a4.7,4.7,0,0,1,4-2.2c2.8,0,4.8,1.7,4.8,5.2Z"/></svg>