<svg xmlns="http://www.w3.org/2000/svg" viewBox="0 0 16.1 15.7"><g id="ad04e788-2c1b-4180-8cce-648a9b328d84" data-name="Layer 2"><g id="a14c31e5-5ab5-43bd-a15c-8c2e9b29f0a4" data-name="Layer 1"><path d="M0,7.9c0,.3.2.5.6.5H11.1L9,10.5a.6.6,0,0,0,0,.8h.8l3-3a.6.6,0,0,0,0-.8l-3-3a.6.6,0,0,0-.8,0,.6.6,0,0,0,0,.8l2.1,2H.6A.6.6,0,0,0,0,7.9Z"/><path d="M12.8,15.7a3.3,3.3,0,0,0,3.3-3.3V3.3A3.3,3.3,0,0,0,12.8,0H3.6A3.3,3.3,0,0,0,.3,3.3V5.2a.6.6,0,0,0,.6.5.5.5,0,0,0,.5-.5V3.3A2.2,2.2,0,0,1,3.6,1.1h9.2A2.2,2.2,0,0,1,15,3.3v9.1a2.2,2.2,0,0,1-2.2,2.2H3.6a2.2,2.2,0,0,1-2.2-2.2V10.6A.6.6,0,0,0,.9,10a.6.6,0,0,0-.6.6v1.8a3.3,3.3,0,0,0,3.3,3.3Z"/></g></g></svg>