<svg id="e608763f-c0e7-4c8a-9812-4b3697fa619c" data-name="Layer 1" xmlns="http://www.w3.org/2000/svg" viewBox="0 0 270.1 233.9"><defs><style>.a7af2d30-fa83-4474-a40d-410a3fa97fc9{fill:#f5f5f5;}.a90a226d-9c20-44fe-9af1-ddf921f4be91{fill:#ebebeb;}.f8903ad8-1cb7-4191-937c-09de03015090{fill:#27debf;}.b38505e5-4d4d-4650-96ed-29cfafbc5916,.f586cfd2-fa79-41b2-abc9-2e0492b2e027{opacity:0.1;}.a2b70f68-eb76-4973-a845-f7265f34f312,.efa766c6-32a2-401f-b378-d4dd8e8fa120{fill:#fff;}.bf3b6431-7a6f-4a02-8da4-d299d70dac80,.f3e8bfc3-65c1-4747-95a2-c8be650c7d09{fill:#fafafa;}.b23e3dd7-1571-4cca-92f4-a9a3759ccfff{fill:#e0e0e0;}.fb560bfb-ef12-4444-97b2-75a25e8e74b9{fill:#e2000f;}.bca13c62-1b5d-4c6d-8748-171c2ce58ce6{fill:#455a64;}.efa766c6-32a2-401f-b378-d4dd8e8fa120{opacity:0.4;}.a6d99992-4454-4bed-bcee-f178e83dbcf8{opacity:0.2;}.bf3b6431-7a6f-4a02-8da4-d299d70dac80{stroke:#e0e0e0;stroke-miterlimit:10;stroke-width:1.17px;}.f2cc26f6-3b7e-406f-82fe-b866f7176b07{fill:#37474f;}.b9f30bc3-547a-4310-81ba-e8c22ce93c0e{fill:#f2f2f2;}</style></defs><path id="b512f1a5-2e4d-4bdb-834c-422a4affd486" data-name="Floor" class="a7af2d30-fa83-4474-a40d-410a3fa97fc9" d="M42.7,210c49.5,25.3,129.8,25.3,179.2,0s49.5-66.3,0-91.6-129.7-25.3-179.2,0S-6.7,184.7,42.7,210Z"/><path id="b565c110-ab5c-4b73-948e-2c18378763a7" data-name="Shadow" class="a90a226d-9c20-44fe-9af1-ddf921f4be91" d="M204.6,169.6c2.7,1.6,8,1,11.9-1.2l22.3-12.9c3.8-2.3,4.7-5.3,2-6.9s-8-1-11.9,1.2l-22.2,12.9C202.8,165,201.9,168,204.6,169.6Z"/><polygon id="a8410ec3-6e88-4140-854a-22cbce22e920" data-name="Shadow" class="a90a226d-9c20-44fe-9af1-ddf921f4be91" points="70.5 181.5 47.9 168.5 70.5 155.4 70.5 181.5"/><polygon id="abedbb0e-8dae-4fc7-8e20-607e49df7328" data-name="Shadow" class="a90a226d-9c20-44fe-9af1-ddf921f4be91" points="134.5 189.4 98 168.3 134.6 147.2 134.5 189.4"/><g id="fd8be01a-66ed-408e-b0fa-e38414e16132" data-name="Plants"><path class="f8903ad8-1cb7-4191-937c-09de03015090" d="M39.9,151c.1-5.3-3.6-16.4-9-23.3s-14-12.1-20.2-10-5.2,9.3,1.7,14.4,17.2,11.4,20.1,20.1l6.3,10.6Z"/><path class="f586cfd2-fa79-41b2-abc9-2e0492b2e027" d="M39.9,151c.1-5.3-3.6-16.4-9-23.3s-14-12.1-20.2-10-5.2,9.3,1.7,14.4,17.2,11.4,20.1,20.1l6.3,10.6Z"/><path class="a2b70f68-eb76-4973-a845-f7265f34f312" d="M40.2,158.2a.3.3,0,0,1-.3-.3c-3.4-18.1-17.8-33-26.5-36.4-.2,0-.3-.3-.3-.5a.4.4,0,0,1,.5-.2c8.9,3.4,23.6,18.6,27,37,.1.2-.1.4-.3.4Z"/><path class="f8903ad8-1cb7-4191-937c-09de03015090" d="M37.4,169.8c-.8-3-4.4-8-10.3-12.1S12.5,151,10.6,147.4s1.4-8.1,8.1-7.2,18.3,10.2,20,23.9Z"/><path class="a2b70f68-eb76-4973-a845-f7265f34f312" d="M38.7,166.6l-.3-.2c-5.4-15.6-17.1-21.1-22.6-21.9-.2-.1-.4-.3-.3-.5s.2-.3.4-.3c6,.9,17.7,6.6,23.2,22.4.1.2,0,.5-.2.5Z"/></g><g id="fec20793-430f-40d2-be9f-bb7dbe653e9a" data-name="Plants"><path class="f8903ad8-1cb7-4191-937c-09de03015090" d="M237.6,135.9s.7-11.2,7.3-19.5,6.2-11.7,1.6-13.4-15,8.4-12.7,21.7S237.6,135.9,237.6,135.9Z"/><path class="f586cfd2-fa79-41b2-abc9-2e0492b2e027" d="M237.6,135.9s.7-11.2,7.3-19.5,6.2-11.7,1.6-13.4-15,8.4-12.7,21.7S237.6,135.9,237.6,135.9Z"/><path class="a2b70f68-eb76-4973-a845-f7265f34f312" d="M235.6,129.5c-.2,0-.3-.1-.3-.2-.8-12.3,7.9-22.4,11.2-24.7.1-.1.3-.1.3.1a.2.2,0,0,1,0,.3c-3.2,2.3-11.7,12.2-11,24.2,0,.2-.1.3-.2.3Z"/><path class="f8903ad8-1cb7-4191-937c-09de03015090" d="M235.8,145.1a57.7,57.7,0,0,0,9.1,2.2c5.1.8,7.3-1.6,7.3-1.6s-2-4.8-4.9-6.2a27.2,27.2,0,0,1,8.8,3.7s3.2,0,4.4-4.7c0,0-1.8-2.9-8-4.4a19.7,19.7,0,0,1,9.2.4c.4.2,2.1-6,2.6-8.8s-.6-2.8-2.8-3.4-9.5-2.2-10.9-1-2.1,5.3-2.1,5.3a9.6,9.6,0,0,1-.2-5.2,8.4,8.4,0,0,0-5.1.1c-2.5.7-2.6,2.4-2.5,4.4a18.4,18.4,0,0,0,1.1,4.9s-2-2.5-2-8c0,0-5.2,2.6-6.1,7.7C233.2,133.3,232.6,141.4,235.8,145.1Z"/><path class="a2b70f68-eb76-4973-a845-f7265f34f312" d="M236.8,144.1c.1,0,.2,0,.2-.2,4.1-8.5,19.4-18.4,24.9-19.5.2,0,.3-.2.2-.3a.3.3,0,0,0-.3-.3c-5.6,1.1-21.1,11.2-25.3,19.9-.1.1,0,.3.1.4Z"/></g><path class="f3e8bfc3-65c1-4747-95a2-c8be650c7d09" d="M37.9,173.4c-.7,0-.7-.7-.7-1.1V78.7l114.3-66v92.9a4.9,4.9,0,0,1-2.1,3.7L38.7,173.2a1.3,1.3,0,0,1-.8.2Z"/><path class="b23e3dd7-1571-4cca-92f4-a9a3759ccfff" d="M150.9,13.7v91.9a4.4,4.4,0,0,1-1.8,3.2L38.4,172.7l-.5.2h0c-.1-.1-.2-.2-.2-.6V79L150.9,13.7m1.2-2L36.6,78.3v94c0,1.1.5,1.7,1.3,1.7l1.1-.3,110.7-63.9a5.4,5.4,0,0,0,2.4-4.2V11.7Z"/><polygon class="fb560bfb-ef12-4444-97b2-75a25e8e74b9" points="36.6 78.3 36.6 94 152.1 27.3 152.1 11.7 36.6 78.3"/><path class="f3e8bfc3-65c1-4747-95a2-c8be650c7d09" d="M45.6,79.2v2.2a.5.5,0,0,0,.8.4L81.9,61.3V57.4L46.4,77.9A1.8,1.8,0,0,0,45.6,79.2Z"/><path class="bca13c62-1b5d-4c6d-8748-171c2ce58ce6" d="M85.7,55.2c.4-.2.7,0,.7.4v2.3a1.4,1.4,0,0,1-.7,1.2l-3.8,2.2V57.4Z"/><path class="bca13c62-1b5d-4c6d-8748-171c2ce58ce6" d="M36.6,73.3A5.4,5.4,0,0,1,39,69.1L149.7,5.2c1.3-.8,2.4-.1,2.4,1.4v5.1L36.6,78.3Z"/><path class="f8903ad8-1cb7-4191-937c-09de03015090" d="M139.2,13.8a2.7,2.7,0,0,0-1.1,2c0,.7.5,1,1.1.7a2.5,2.5,0,0,0,1.2-2C140.4,13.8,139.9,13.5,139.2,13.8Z"/><path class="f8903ad8-1cb7-4191-937c-09de03015090" d="M142.8,11.8a2.4,2.4,0,0,0-1.1,1.9c0,.8.5,1,1.1.7a2.8,2.8,0,0,0,1.2-2A.7.7,0,0,0,142.8,11.8Z"/><path class="f8903ad8-1cb7-4191-937c-09de03015090" d="M146.4,9.7a2.6,2.6,0,0,0-1.1,2c0,.7.5,1,1.1.6a2.4,2.4,0,0,0,1.1-1.9C147.5,9.6,147,9.3,146.4,9.7Z"/><g class="b38505e5-4d4d-4650-96ed-29cfafbc5916"><path d="M115.8,37.6a5.6,5.6,0,0,0-2.4,4.3c0,1.5,1.1,2.2,2.4,1.4a5.4,5.4,0,0,0,2.5-4.3C118.3,37.4,117.2,36.8,115.8,37.6Z"/><path d="M104.5,44.1a5.4,5.4,0,0,0-2.5,4.3c0,1.6,1.1,2.2,2.5,1.4a5.4,5.4,0,0,0,2.5-4.3C107,44,105.9,43.3,104.5,44.1Z"/><path d="M127.2,31a5.4,5.4,0,0,0-2.5,4.3c0,1.6,1.1,2.2,2.5,1.4a5.4,5.4,0,0,0,2.4-4.2C129.6,30.9,128.5,30.2,127.2,31Z"/><path d="M138.5,24.5a5.4,5.4,0,0,0-2.5,4.3c0,1.5,1.1,2.2,2.5,1.4a5.4,5.4,0,0,0,2.5-4.3C141,24.3,139.9,23.7,138.5,24.5Z"/></g><path class="b23e3dd7-1571-4cca-92f4-a9a3759ccfff" d="M48,95.3,74.9,79.7c1.4-.7,2.4-.1,2.4,1.4v25.8a5.1,5.1,0,0,1-2.4,4.2L48,126.6c-1.3.8-2.4.2-2.4-1.4V99.4A5.2,5.2,0,0,1,48,95.3Z"/><path class="b23e3dd7-1571-4cca-92f4-a9a3759ccfff" d="M86.5,73l56.4-32.5c1.3-.8,2.4-.1,2.4,1.4V67.7a5.6,5.6,0,0,1-2.4,4.2L86.5,104.4c-1.3.8-2.4.2-2.4-1.4V77.2A5.6,5.6,0,0,1,86.5,73Z"/><path class="b23e3dd7-1571-4cca-92f4-a9a3759ccfff" d="M48,134.5l42.8-24.7c1.3-.8,2.4-.2,2.4,1.2a5,5,0,0,1-2.4,4L48,139.7c-1.3.8-2.4.2-2.4-1.2A5,5,0,0,1,48,134.5Z"/><path class="b23e3dd7-1571-4cca-92f4-a9a3759ccfff" d="M48,143.6,90.8,119c1.3-.8,2.4-.3,2.4,1.2a5.4,5.4,0,0,1-2.4,4L48,148.9c-1.3.7-2.4.2-2.4-1.3A5.4,5.4,0,0,1,48,143.6Z"/><path class="b23e3dd7-1571-4cca-92f4-a9a3759ccfff" d="M48,152.8l42.8-24.7c1.3-.8,2.4-.2,2.4,1.2a5,5,0,0,1-2.4,4L48,158c-1.3.8-2.4.2-2.4-1.2A5.2,5.2,0,0,1,48,152.8Z"/><g id="a7bccd49-1d61-46ca-9f7d-9d15565f2631" data-name="Letter"><path class="fb560bfb-ef12-4444-97b2-75a25e8e74b9" d="M68.3,121.8a3.3,3.3,0,0,1,1.4-2.6l74.1-42.7a3,3,0,0,1,2.9,0l1.7.9a3.2,3.2,0,0,1,1.4,2.5v56.8a3.1,3.1,0,0,1-1.4,2.5L74.3,182a3,3,0,0,1-2.9,0l-1.7-.9a3.2,3.2,0,0,1-1.4-2.5Z"/><path class="efa766c6-32a2-401f-b378-d4dd8e8fa120" d="M68.7,120.3l4.1,2.4,76.6-44.2a2.7,2.7,0,0,0-1-1.1l-1.7-.9a3,3,0,0,0-2.9,0L69.7,119.2A5.2,5.2,0,0,0,68.7,120.3Z"/><path class="f586cfd2-fa79-41b2-abc9-2e0492b2e027" d="M68.3,121.7v56.8a3.3,3.3,0,0,0,1.4,2.6l1.7.9.4.2h1.5a.9.9,0,0,1-.5-.9V124.4a1.3,1.3,0,0,1,.8-1.3l-.8-.4-4.1-2.4A2.7,2.7,0,0,0,68.3,121.7Z"/><path class="a6d99992-4454-4bed-bcee-f178e83dbcf8" d="M72.8,122.7l34.3,12.8a5.5,5.5,0,0,0,6.6-2.2l5.6-8.4,30.4-46.6-29.3,46.9,29.4,11.5a4.2,4.2,0,0,1-.4,1.5l-29.1-12.9-6.4,10.3a5.6,5.6,0,0,1-7,2.1l-4.6-2-29,46.4a.9.9,0,0,1-.5-.9v-1l29.4-44.5Z"/></g><path class="bf3b6431-7a6f-4a02-8da4-d299d70dac80" d="M134,57.5V187.9c0,1.5,1,2.2,2.4,1.4L195,155.5a5.6,5.6,0,0,0,2.4-4.2V20.9c0-1.6-1.1-2.2-2.4-1.4L136.4,53.3A5.1,5.1,0,0,0,134,57.5Z"/><path class="bca13c62-1b5d-4c6d-8748-171c2ce58ce6" d="M137.3,59.9a1.4,1.4,0,0,1,.7-1l6.7-3.9a.4.4,0,0,1,.6.3,1.5,1.5,0,0,1-.6,1.1L138,60.2C137.6,60.4,137.3,60.3,137.3,59.9Z"/><path class="bca13c62-1b5d-4c6d-8748-171c2ce58ce6" d="M137.3,62.5a1.4,1.4,0,0,1,.7-1l6.7-3.9a.4.4,0,0,1,.6.3,1.5,1.5,0,0,1-.6,1.1L138,62.8C137.6,63,137.3,62.9,137.3,62.5Z"/><path class="bca13c62-1b5d-4c6d-8748-171c2ce58ce6" d="M137.3,65.1a1.2,1.2,0,0,1,.7-1l6.7-3.9a.4.4,0,0,1,.6.3,1.3,1.3,0,0,1-.6,1L138,65.4C137.6,65.6,137.3,65.5,137.3,65.1Z"/><path class="f2cc26f6-3b7e-406f-82fe-b866f7176b07" d="M192.8,31.7V30.6s0-.1-.1,0l-.8.3h-.1a.5.5,0,0,0-.2-.4v-.2l.5-1.1c.1-.1,0-.1,0-.2l-.6-.3h-.1l-.7,1c0,.1-.1.1-.2.1H190v-.9h-.1l-.9.5a.1.1,0,0,0-.1.1v1a.3.3,0,0,1-.1.2l-.5.6h-.2l-.6-.2h-.2l-.6,1.1v.2l.5.4v.2a6.4,6.4,0,0,0-.2.7.1.1,0,0,1-.1.1l-.8.6c-.1.1-.1.1-.1.2v1h.1l.8-.4a.1.1,0,0,1,.1.1l.2.4v.2l-.5,1.1h0l.6.4h.2l.6-1h.6c.1,0,.2,0,.2.1v.9h.1l.9-.5a.3.3,0,0,0,.1-.2V35.6l.5-.5s.1-.1.1,0l.6.2h.2l.6-1.2c.1,0,.1-.1,0-.1l-.5-.4v-.2a1.9,1.9,0,0,0,.2-.7c0-.1.1-.1.1-.2l.8-.6A.1.1,0,0,0,192.8,31.7Zm-3.5,3.2c-.8.5-1.5.1-1.5-.8a3.6,3.6,0,0,1,1.5-2.7c.9-.5,1.5-.1,1.5.9A3,3,0,0,1,189.3,34.9Z"/><path class="bca13c62-1b5d-4c6d-8748-171c2ce58ce6" d="M165.7,57.4c6.8-4,12.4-.8,12.4,7.1S172.5,82,165.7,86s-12.4.7-12.4-7.2S158.8,61.3,165.7,57.4Z"/><path class="b9f30bc3-547a-4310-81ba-e8c22ce93c0e" d="M165.6,63.6c2.2-1.3,4-.3,4,2.3a9,9,0,0,1-4,7c-2.2,1.3-4,.2-4-2.3A9,9,0,0,1,165.6,63.6Z"/><path class="b9f30bc3-547a-4310-81ba-e8c22ce93c0e" d="M173.5,77.3c0-4.2-3-6-6.6-3.8l-2.3,1.3A14.7,14.7,0,0,0,158,86.2v1.2l2.1.3a11.9,11.9,0,0,0,5.6-1.7,24.2,24.2,0,0,0,7.8-7.8Z"/><path class="fb560bfb-ef12-4444-97b2-75a25e8e74b9" d="M154.5,97.8l22.3-13c.7-.3,1.3-.1,1.3.6a2.7,2.7,0,0,1-1.3,2.1l-22.3,12.9c-.7.4-1.2.1-1.2-.6A2.3,2.3,0,0,1,154.5,97.8Z"/><path class="bca13c62-1b5d-4c6d-8748-171c2ce58ce6" d="M152.1,107l27.1-15.7c.7-.4,1.3-.1,1.3.6a2.7,2.7,0,0,1-1.3,2l-27.1,15.7c-.7.4-1.2.1-1.2-.6A2.5,2.5,0,0,1,152.1,107Z"/><path class="f2cc26f6-3b7e-406f-82fe-b866f7176b07" d="M180,103.9l7.6-4.3c.4-.3.7-.2.7.2a1.5,1.5,0,0,1-.7,1.1l-7.6,4.4c-.4.2-.8.1-.8-.3A1.9,1.9,0,0,1,180,103.9Z"/><path class="fb560bfb-ef12-4444-97b2-75a25e8e74b9" d="M142,123.3l11.1-6.5c.7-.3,1.2,0,1.2.7v7.7a2.6,2.6,0,0,1-1.2,2.1L142,133.7c-.7.4-1.3.1-1.3-.6v-7.7A2.7,2.7,0,0,1,142,123.3Z"/><path class="f3e8bfc3-65c1-4747-95a2-c8be650c7d09" d="M143.7,124.4l7.6-4.4c.4-.3.8-.2.8.2s-.4.8-.8,1.1l-7.6,4.4c-.4.2-.7.1-.7-.3A1.4,1.4,0,0,1,143.7,124.4Z"/><path class="f3e8bfc3-65c1-4747-95a2-c8be650c7d09" d="M143,128.2v2.3c0,.4.3.6.7.4l7.6-4.4a1.7,1.7,0,0,0,.8-1.3V123c0-.5-.4-.6-.8-.4l-7.6,4.4A1.5,1.5,0,0,0,143,128.2Z"/><path class="fb560bfb-ef12-4444-97b2-75a25e8e74b9" d="M160.1,112.8l11.1-6.4c.7-.4,1.3-.1,1.3.7v7.6a2.5,2.5,0,0,1-1.3,2.1l-11.1,6.5c-.7.4-1.2.1-1.2-.7v-7.7A2.6,2.6,0,0,1,160.1,112.8Z"/><path class="f3e8bfc3-65c1-4747-95a2-c8be650c7d09" d="M161.9,113.9l7.6-4.4c.4-.2.7-.1.7.2a1.4,1.4,0,0,1-.7,1.1l-7.6,4.4c-.4.2-.8.1-.8-.2A1.5,1.5,0,0,1,161.9,113.9Z"/><path class="f3e8bfc3-65c1-4747-95a2-c8be650c7d09" d="M161.1,117.8V120a.5.5,0,0,0,.8.4l7.6-4.4a1.4,1.4,0,0,0,.7-1.2v-2.3c0-.4-.3-.6-.7-.4l-7.6,4.4A1.7,1.7,0,0,0,161.1,117.8Z"/><path class="fb560bfb-ef12-4444-97b2-75a25e8e74b9" d="M178.2,102.4l11.2-6.5c.6-.4,1.2-.1,1.2.7v7.7a2.8,2.8,0,0,1-1.2,2.1l-11.2,6.4c-.7.4-1.2.1-1.2-.7v-7.6A2.6,2.6,0,0,1,178.2,102.4Z"/><path class="f3e8bfc3-65c1-4747-95a2-c8be650c7d09" d="M180,103.4l7.6-4.4c.4-.2.7-.1.7.3a1.7,1.7,0,0,1-.7,1.1l-7.6,4.3c-.4.3-.8.2-.8-.2A1.9,1.9,0,0,1,180,103.4Z"/><path class="f3e8bfc3-65c1-4747-95a2-c8be650c7d09" d="M179.2,107.3v2.3c0,.4.4.6.8.4l7.6-4.4a1.6,1.6,0,0,0,.7-1.3v-2.2c0-.5-.3-.7-.7-.4l-7.6,4.4A1.5,1.5,0,0,0,179.2,107.3Z"/><path class="b23e3dd7-1571-4cca-92f4-a9a3759ccfff" d="M143.2,140.9l45-26c1.3-.8,2.4-.2,2.4,1.2a5,5,0,0,1-2.4,4l-45,26c-1.4.8-2.5.2-2.5-1.2A5.2,5.2,0,0,1,143.2,140.9Z"/><path class="b23e3dd7-1571-4cca-92f4-a9a3759ccfff" d="M143.2,151.4l45-26c1.3-.8,2.4-.2,2.4,1.2a5.4,5.4,0,0,1-2.4,4l-45,26c-1.4.8-2.5.2-2.5-1.2A4.9,4.9,0,0,1,143.2,151.4Z"/><path class="fb560bfb-ef12-4444-97b2-75a25e8e74b9" d="M157.8,156l15.7-9.1c.7-.4,1.2-.1,1.2.7v5.1a2.7,2.7,0,0,1-1.2,2.1l-15.7,9c-.7.4-1.2.1-1.2-.7v-5A2.6,2.6,0,0,1,157.8,156Z"/><path class="f3e8bfc3-65c1-4747-95a2-c8be650c7d09" d="M144.1,141.7a2.4,2.4,0,0,0-1.1,1.9c0,.7.5,1,1.1.7a2.5,2.5,0,0,0,1.2-2C145.3,141.6,144.8,141.3,144.1,141.7Z"/><path class="f3e8bfc3-65c1-4747-95a2-c8be650c7d09" d="M147.7,139.6a2.6,2.6,0,0,0-1.1,2c0,.7.5,1,1.1.6a2.4,2.4,0,0,0,1.2-2C148.9,139.5,148.4,139.2,147.7,139.6Z"/><path class="f3e8bfc3-65c1-4747-95a2-c8be650c7d09" d="M151.3,137.5a2.7,2.7,0,0,0-1.1,2c0,.7.5,1,1.1.6a2.5,2.5,0,0,0,1.2-1.9C152.5,137.4,151.9,137.2,151.3,137.5Z"/><path class="f3e8bfc3-65c1-4747-95a2-c8be650c7d09" d="M154.9,135.4a2.7,2.7,0,0,0-1.1,2c0,.7.5,1,1.1.7a2.7,2.7,0,0,0,1.1-2C156,135.4,155.5,135.1,154.9,135.4Z"/><path class="f3e8bfc3-65c1-4747-95a2-c8be650c7d09" d="M158.5,133.4a2.4,2.4,0,0,0-1.1,1.9c0,.8.5,1,1.1.7a2.7,2.7,0,0,0,1.1-2C159.6,133.3,159.1,133,158.5,133.4Z"/><path class="f3e8bfc3-65c1-4747-95a2-c8be650c7d09" d="M162.1,131.3a2.6,2.6,0,0,0-1.1,2c0,.7.5,1,1.1.6a2.6,2.6,0,0,0,1.1-2C163.2,131.2,162.7,130.9,162.1,131.3Z"/><path class="f3e8bfc3-65c1-4747-95a2-c8be650c7d09" d="M165.7,129.2a2.5,2.5,0,0,0-1.2,2c0,.7.5,1,1.2.6a2.4,2.4,0,0,0,1.1-1.9C166.8,129.2,166.3,128.9,165.7,129.2Z"/><path class="f3e8bfc3-65c1-4747-95a2-c8be650c7d09" d="M144.1,152.1a2.7,2.7,0,0,0-1.1,2c0,.7.5,1,1.1.7a2.5,2.5,0,0,0,1.2-2C145.3,152.1,144.8,151.8,144.1,152.1Z"/><path class="f3e8bfc3-65c1-4747-95a2-c8be650c7d09" d="M147.7,150.1a2.4,2.4,0,0,0-1.1,1.9c0,.7.5,1,1.1.7a2.5,2.5,0,0,0,1.2-2C148.9,150,148.4,149.7,147.7,150.1Z"/><path class="f3e8bfc3-65c1-4747-95a2-c8be650c7d09" d="M151.3,148a2.4,2.4,0,0,0-1.1,1.9c0,.8.5,1.1,1.1.7a2.7,2.7,0,0,0,1.2-2A.7.7,0,0,0,151.3,148Z"/><path class="f3e8bfc3-65c1-4747-95a2-c8be650c7d09" d="M154.9,145.9a2.7,2.7,0,0,0-1.1,2c0,.7.5,1,1.1.6a2.4,2.4,0,0,0,1.1-1.9C156,145.8,155.5,145.6,154.9,145.9Z"/><path class="f3e8bfc3-65c1-4747-95a2-c8be650c7d09" d="M158.5,143.8a2.7,2.7,0,0,0-1.1,2c0,.7.5,1,1.1.7a2.7,2.7,0,0,0,1.1-2C159.6,143.8,159.1,143.5,158.5,143.8Z"/><path class="f3e8bfc3-65c1-4747-95a2-c8be650c7d09" d="M162.1,141.8a2.4,2.4,0,0,0-1.1,1.9c0,.7.5,1,1.1.7a2.7,2.7,0,0,0,1.1-2C163.2,141.7,162.7,141.4,162.1,141.8Z"/><path class="f3e8bfc3-65c1-4747-95a2-c8be650c7d09" d="M165.7,139.7a2.4,2.4,0,0,0-1.2,2c0,.7.5,1,1.2.6a2.6,2.6,0,0,0,1.1-2C166.8,139.6,166.3,139.3,165.7,139.7Z"/><path class="bca13c62-1b5d-4c6d-8748-171c2ce58ce6" d="M216,163.3a10.6,10.6,0,0,1-5.5-1.5c-4-2.3-6.3-7.2-6.3-13.3,0-10.8,6.8-23.2,15.6-28.3,4.7-2.7,9.4-3,13.2-.8s6.3,7.1,6.3,13.3c0,10.8-6.8,23.2-15.6,28.3A15.8,15.8,0,0,1,216,163.3Zm11.5-37.6a8.5,8.5,0,0,0-3.8,1.2c-6.4,3.7-11.7,13.6-11.7,21.6,0,3.2.9,5.7,2.4,6.6s4.1-.1,5.4-.9c6.4-3.6,11.8-13.5,11.8-21.5,0-3.3-1-5.7-2.5-6.6A2.9,2.9,0,0,0,227.5,125.7Z"/><path class="f2cc26f6-3b7e-406f-82fe-b866f7176b07" d="M232.9,134.4c0-6.1-3.8-8.3-3.8-8.3h0c1.5.9,2.5,3.3,2.5,6.6,0,8-5.4,17.9-11.8,21.5-1.3.8-3.7,1.9-5.4.9,0,0,3.2,2,7.7-.5C228.5,151.1,232.9,142.4,232.9,134.4Z"/><path class="f2cc26f6-3b7e-406f-82fe-b866f7176b07" d="M226.8,58.5a4,4,0,0,0-8,0h0v64h0a1.9,1.9,0,0,0,1.1,1.6,5.8,5.8,0,0,0,5.7,0,1.9,1.9,0,0,0,1.2-1.6h0v-64Z"/><path class="bca13c62-1b5d-4c6d-8748-171c2ce58ce6" d="M223.6,72.8a4.9,4.9,0,0,0-2.3-4,1.5,1.5,0,0,0-1.7-.1h0l-9.9,5.7h-.3a1,1,0,0,0-.5.4,3.3,3.3,0,0,0-1,2.3,3.4,3.4,0,0,0,1.7,2.9,3.4,3.4,0,0,0,3.2,0h.1l10-5.8h0A1.6,1.6,0,0,0,223.6,72.8Z"/><path class="bca13c62-1b5d-4c6d-8748-171c2ce58ce6" d="M223.6,88.8a5.2,5.2,0,0,0-2.3-4,1.5,1.5,0,0,0-1.7-.1h0L208,91.4h-.4l-.4.3a3.5,3.5,0,0,0-1,2.4,3.4,3.4,0,0,0,1.7,2.9,3.4,3.4,0,0,0,3.2,0,.1.1,0,0,1,.1-.1l11.7-6.8h0A1.6,1.6,0,0,0,223.6,88.8Z"/></svg>