<svg xmlns="http://www.w3.org/2000/svg" xmlns:xlink="http://www.w3.org/1999/xlink" viewBox="0 0 141 172.9"><defs><style>.b4f58ca7-a790-46a5-8871-dfae2c87d5ba,.bb99b309-da45-45ee-81e8-d5d5194d1e3e,.f42b6a54-9c86-4af8-b23e-71e3812d06ee{fill:none;}.b6af8120-f74d-4b09-9a59-efbe17a3c7ec{clip-path:url(#ea649dc8-f736-4cf7-be48-ff0306637317);}.eac873a7-4ffe-4b79-b245-301df18965f1{clip-path:url(#ac6cb3cf-da53-454b-aa04-b1039557853f);}.b63e75be-ce5c-405b-8043-2ab989987d18{fill:#ff8b66;}.f9d33b01-fc14-4b2b-b157-1455e7ff76d9{fill:#703311;}.ab703f60-001a-4b1d-a00d-4191d3f22be4{fill:#662c10;}.a73bb790-0411-4237-ace6-28aa089d3089,.e85c2910-236e-4e05-ae68-a7bc2057e890,.e91e7ee2-fbe1-4538-a474-7710328fa8ef{fill:#dd6747;}.e91e7ee2-fbe1-4538-a474-7710328fa8ef{opacity:0.5;}.b5228b8f-2169-4703-a44a-d8bef95b9d41{fill:#072735;}.f42b6a54-9c86-4af8-b23e-71e3812d06ee{stroke:#dd6747;stroke-width:0.45px;}.b4f58ca7-a790-46a5-8871-dfae2c87d5ba,.f42b6a54-9c86-4af8-b23e-71e3812d06ee{stroke-linecap:round;stroke-miterlimit:10;}.a44f0862-629e-4eaa-acba-0a49209f5527{fill:#c9593f;}.a73bb790-0411-4237-ace6-28aa089d3089{opacity:0.2;}.f0ba1893-4220-40cd-bb18-97ff5ae9197d{fill:#66e2ca;}.b4f58ca7-a790-46a5-8871-dfae2c87d5ba{stroke:#66e2ca;stroke-width:0.94px;}</style><clipPath id="ea649dc8-f736-4cf7-be48-ff0306637317" transform="translate(0 -11.2)"><rect class="bb99b309-da45-45ee-81e8-d5d5194d1e3e" width="143.4" height="159.82"/></clipPath><clipPath id="ac6cb3cf-da53-454b-aa04-b1039557853f" transform="translate(0 -11.2)"><rect class="bb99b309-da45-45ee-81e8-d5d5194d1e3e" y="-35.4" width="141" height="195.21"/></clipPath></defs><g id="e55a0571-2848-4ff8-b342-de5a1d5cacd3" data-name="Layer 2"><g id="e116aff7-94e7-40ce-9e1b-3e0066e51094" data-name="Layer 1"><g class="b6af8120-f74d-4b09-9a59-efbe17a3c7ec"><g class="eac873a7-4ffe-4b79-b245-301df18965f1"><path class="b63e75be-ce5c-405b-8043-2ab989987d18" d="M93.3,82a30.6,30.6,0,0,1-2.4-8.9c-.1-1.3-.1-2.3-.1-3.1a10.8,10.8,0,0,1,.3-1.8l-.6.2v-.2l-11,3.1-11-3.1v.2l-.6-.2a7.2,7.2,0,0,1,.2,1.8,15.8,15.8,0,0,1,0,3.1A31.3,31.3,0,0,1,65.6,82s-1,2.6-8.1,3.5A42.4,42.4,0,0,0,59.3,90c.2.3.3.7.5,1a24.3,24.3,0,0,0,1.5,2.6,30.9,30.9,0,0,0,3.3,4.3c1.3,3.7,4.2,6.8,7.6,7.4l4.7.3h5.2l4.7-.3c3.3-.6,6.2-3.7,7.5-7.4a31.9,31.9,0,0,0,3.4-4.3L99.2,91l.9-1.9a29.4,29.4,0,0,0,1.3-3.6C94.4,84.6,93.3,82,93.3,82Z" transform="translate(0 -11.2)"/><path class="f9d33b01-fc14-4b2b-b157-1455e7ff76d9" d="M139.8,141.6l-19.9-19.9-1.7,53.7a89.4,89.4,0,0,1-38.7,8.8,88.5,88.5,0,0,1-38.8-8.9l-.3-7L39,121.7l-2.7,2.6H21.7c3-14.1,9.4-28.6,23.5-36,5.1-2.7,12.6-3.3,15-3.5a1.1,1.1,0,0,1,1,.6c.4.8,1,2.2,2,3.9a.5.5,0,0,1,.2.4c2.9,4.8,8.2,11.7,16.1,13.9,7.9-2.2,13.2-9.1,16.1-13.9a.5.5,0,0,1,.2-.4,29.1,29.1,0,0,0,2-3.9,1.1,1.1,0,0,1,1-.6c2.4.2,9.9.8,15.1,3.5C133.9,98.9,138.4,123.9,139.8,141.6Z" transform="translate(0 -11.2)"/><path class="ab703f60-001a-4b1d-a00d-4191d3f22be4" d="M73.8,114.9s11.6,23.5,25.8,36.3C99.6,151.2,82.4,145.8,73.8,114.9Z" transform="translate(0 -11.2)"/><path class="ab703f60-001a-4b1d-a00d-4191d3f22be4" d="M69.7,133.9s12.6,16.9,29.2,19.7C98.9,153.6,78.7,155.3,69.7,133.9Z" transform="translate(0 -11.2)"/><path class="e85c2910-236e-4e05-ae68-a7bc2057e890" d="M90.9,73.1a15.8,15.8,0,0,1,0-3.1l-.5-.8L79.5,72.1,68.6,69.2l-.5.8a15.8,15.8,0,0,1,0,3.1c1.4,2.4,5.1,7,11.4,7h0C85.8,80.1,89.4,75.5,90.9,73.1Z" transform="translate(0 -11.2)"/><path class="b63e75be-ce5c-405b-8043-2ab989987d18" d="M59.7,47.6s1.2,4.1,2.2,9.5c.6,3,.2,4.5-2.5,4.1s-7.2-6.5-5.5-11.7A4.1,4.1,0,0,1,59.7,47.6Z" transform="translate(0 -11.2)"/><path class="e85c2910-236e-4e05-ae68-a7bc2057e890" d="M57.2,50.9a7.3,7.3,0,0,1,1.4,2.6,11.9,11.9,0,0,1,.5,3.2c0,.3.5.4.5.1a6.9,6.9,0,0,0-.4-3.5,6.7,6.7,0,0,0-1.6-2.7c-.3-.3-.6.1-.4.3Z" transform="translate(0 -11.2)"/><path class="e85c2910-236e-4e05-ae68-a7bc2057e890" d="M57.1,53h.3a.1.1,0,0,1,.1.1h.4a.1.1,0,0,0,.1.1h.1c.1.1.2.1.2.2h.2a6.1,6.1,0,0,1,.4.6.3.3,0,0,0,.5-.2,1.3,1.3,0,0,0-.4-.7l-.5-.6-.7-.4h-.7c-.1,0-.2.1-.2.3a.2.2,0,0,0,.2.2Z" transform="translate(0 -11.2)"/><path class="b63e75be-ce5c-405b-8043-2ab989987d18" d="M99.7,61.2h-.4c-2.3.3-2.7-1.2-2.1-4.1.1-.3.1-.7.2-1.1,1-4.8,2-8.4,2-8.4,3.2-1.5,5.4.6,5.8,1.9C107,54.7,101.7,60.9,99.7,61.2Z" transform="translate(0 -11.2)"/><path class="e85c2910-236e-4e05-ae68-a7bc2057e890" d="M101.6,50.6a6.9,6.9,0,0,0-1.7,2.7,8.2,8.2,0,0,0-.4,3.5.3.3,0,0,0,.5-.1,11.9,11.9,0,0,1,.5-3.2,9.4,9.4,0,0,1,1.4-2.6c.3-.2-.1-.6-.3-.3Z" transform="translate(0 -11.2)"/><path class="e85c2910-236e-4e05-ae68-a7bc2057e890" d="M102,52.5h-.7l-.7.4-.5.6a2.5,2.5,0,0,0-.4.7c0,.3.3.5.5.2s.1,0,.1-.1v-.2l.2-.3h0a.1.1,0,0,0,.1-.1h.1l.2-.2a.1.1,0,0,0,.1-.1h0a.1.1,0,0,0,.1-.1h.8c.1,0,.3-.1.3-.2a.3.3,0,0,0-.3-.3Z" transform="translate(0 -11.2)"/><path class="e91e7ee2-fbe1-4538-a474-7710328fa8ef" d="M99.3,61.2c-2.3.3-2.7-1.2-2.1-4.1.1-.3.1-.7.2-1.1l.5.2S97.9,61.1,99.3,61.2Z" transform="translate(0 -11.2)"/><path class="e91e7ee2-fbe1-4538-a474-7710328fa8ef" d="M59.8,61.2c2.3.3,2.7-1.2,2.1-4.1a5.2,5.2,0,0,0-.2-1.1l-.4.2S61.2,61.1,59.8,61.2Z" transform="translate(0 -11.2)"/><path class="b63e75be-ce5c-405b-8043-2ab989987d18" d="M79.5,33.9H56.1s2,6.8,3.4,14.4c2.3,12.8,2.8,29.1,20,29.1s17.8-16.3,20-29c1.4-7.6,3.4-14.5,3.4-14.5Z" transform="translate(0 -11.2)"/><path class="b5228b8f-2169-4703-a44a-d8bef95b9d41" d="M104,28.2c-4.2-8-8,5.6-8,5.6l.2.6-1.9.5c2.6,1.1,5.2,13.5,5.2,13.5l1.9-1.2h0S108.1,36.3,104,28.2Z" transform="translate(0 -11.2)"/><path class="b5228b8f-2169-4703-a44a-d8bef95b9d41" d="M66.2,46.6a7.3,7.3,0,0,1,7.5-.9.7.7,0,0,0,1.1-.4c.1-.4-.5-.9-.7-1-2.4-1.6-6.8-.6-8.5,1.5a.8.8,0,0,0-.1.9A.8.8,0,0,0,66.2,46.6Z" transform="translate(0 -11.2)"/><path class="b5228b8f-2169-4703-a44a-d8bef95b9d41" d="M92.7,46.6a7.3,7.3,0,0,0-7.5-.9c-.2.1-1,.3-1.2-.4s.6-.9.8-1c2.3-1.6,6.7-.6,8.5,1.5.1.2.2.7,0,.9S92.8,46.7,92.7,46.6Z" transform="translate(0 -11.2)"/><path class="b5228b8f-2169-4703-a44a-d8bef95b9d41" d="M71.9,49.5c0,1-.7,1.9-1.4,1.9s-1.4-.9-1.4-2,.6-1.9,1.4-1.9S71.9,48.4,71.9,49.5Z" transform="translate(0 -11.2)"/><path class="b5228b8f-2169-4703-a44a-d8bef95b9d41" d="M87,49.5c0,1,.6,1.9,1.4,1.9s1.3-.9,1.3-2-.6-1.9-1.3-1.9S87,48.4,87,49.5Z" transform="translate(0 -11.2)"/><path class="f42b6a54-9c86-4af8-b23e-71e3812d06ee" d="M77.5,60.1a3.2,3.2,0,0,0,4,0" transform="translate(0 -11.2)"/><path class="b63e75be-ce5c-405b-8043-2ab989987d18" d="M4.4,166.3a148.7,148.7,0,0,1,11.7-33.2L38,141.2s-6.2,18.9-14.6,28" transform="translate(0 -11.2)"/><path class="b63e75be-ce5c-405b-8043-2ab989987d18" d="M141,159.8a88.5,88.5,0,0,1-17.9,13.1l-3.4-31.7,19.7-7.3C140.3,143.7,140.8,152.9,141,159.8Z" transform="translate(0 -11.2)"/><path class="f9d33b01-fc14-4b2b-b157-1455e7ff76d9" d="M42.2,90S27.8,97.4,13,137.2c0,0,17.4,8.4,26.8,8.7Z" transform="translate(0 -11.2)"/><path class="f9d33b01-fc14-4b2b-b157-1455e7ff76d9" d="M140.7,141.5c-4.7,2.2-13.6,3.9-21.6,4.4L116.8,90s4.5,1.8,11.3,11.2l.3.6C130.5,106.3,139,118,140.7,141.5Z" transform="translate(0 -11.2)"/><path class="a44f0862-629e-4eaa-acba-0a49209f5527" d="M86,66.4a17.8,17.8,0,0,1-6.5,1.1A15.9,15.9,0,0,1,73,66.4l-.6-.3c0,.1.4.5.6.7a12,12,0,0,0,6.5,1.7h0c2.5,0,5.3-.7,6.5-1.7s.7-.6.6-.7Z" transform="translate(0 -11.2)"/><path class="b5228b8f-2169-4703-a44a-d8bef95b9d41" d="M60,22.5s-2.4-2.7-.8-7.1,5.2-5.2,9.2-3.6S79.1,10.1,83.9,13a27.7,27.7,0,0,0,8.5,3.5c6.8,1.2,11-3.2,15.6,4.4s-4.3,18.8-18.3,18.4-20.6-6.4-26-4.1-6.3-7.9-6.3-7.9Z" transform="translate(0 -11.2)"/><path class="b5228b8f-2169-4703-a44a-d8bef95b9d41" d="M63.5,34.6,60,22.5s-8.9-3.1-8.9,4.9c0,4.1,2.9,5.8,3.9,8.7-2.9,9.6,2.6,11.1,2.6,11.1l1.9,1.1s2.6-12.4,5.2-13.4Z" transform="translate(0 -11.2)"/><path class="ab703f60-001a-4b1d-a00d-4191d3f22be4" d="M116.8,108.5l1.2,18.7.6,9.3c.2,3.1.4,6.2.5,9.4-.2-1.6-.5-3.1-.7-4.7l-.5-4.6c-.4-3.1-.6-6.2-.9-9.3s-.3-6.3-.3-9.4S116.6,111.7,116.8,108.5Z" transform="translate(0 -11.2)"/><path class="ab703f60-001a-4b1d-a00d-4191d3f22be4" d="M42.1,108.5c.1,3.2.1,6.3.1,9.4s-.2,6.2-.4,9.4-.4,6.2-.8,9.3l-.6,4.6c-.2,1.6-.4,3.1-.7,4.7.2-3.2.4-6.3.5-9.4l.6-9.3Z" transform="translate(0 -11.2)"/><path class="b5228b8f-2169-4703-a44a-d8bef95b9d41" d="M63.1,35c3.6-.7,7,.9,10.1,2.6s5.8,3.3,9.2,4a19.6,19.6,0,0,0,9.6-.3c2.4-.7,4.7-2,5.5-4.5a.7.7,0,1,0-1.4-.4c-.9,2.7-4.4,3.6-6.9,4a18.6,18.6,0,0,1-9.9-1.3c-5.4-2.3-10.3-6.7-16.6-5.5-1,.2-.6,1.6.4,1.4Z" transform="translate(0 -11.2)"/><path class="b5228b8f-2169-4703-a44a-d8bef95b9d41" d="M61.7,18.9c-3.2-1.1-7.8-1.5-10.1,1.5a7.2,7.2,0,0,0-1.5,4.9,6,6,0,0,0,1.7,4.6c.7.6,1.8-.4,1.1-1.1a4.5,4.5,0,0,1-1.3-3.7,5.4,5.4,0,0,1,1.2-3.9,5.1,5.1,0,0,1,3.7-1.6,15.9,15.9,0,0,1,4.8.7c.9.3,1.3-1.1.4-1.4Z" transform="translate(0 -11.2)"/><path class="a73bb790-0411-4237-ace6-28aa089d3089" d="M101.4,114.9H90.3s.3,13.1,1.7,15.4,7.8,6.9,9.4,6.9,8.1-4.6,9.4-6.9,1.8-15.4,1.8-15.4Z" transform="translate(0 -11.2)"/><path class="b63e75be-ce5c-405b-8043-2ab989987d18" d="M33.1,87.2c-.2-1.6-.3-3.5-1.6-3.4s-2.2,2.9-2.5,3.5a6,6,0,0,1-2.1,2.8,4.1,4.1,0,0,1-5.2-1.5c-1-1.9.9-4.8.9-4.8a28.2,28.2,0,0,1,3.2-2,2.4,2.4,0,0,1,2.1.2c.9,1.6,3,2.4,3.7,1.5s-.4-3.4-.7-4.2-3.2-2.5-5.9-2.7-6.3,3.8-6.3,3.8-.5-4.2-.7-6-.1-4-.2-5.6a34.8,34.8,0,0,0-.5-8c-.6-3-2.8-3.3-3.1-2.8s-.6,8.1-.7,9.7-1.3,8.2-1.3,8.2a65.5,65.5,0,0,1-1.4-7,33.9,33.9,0,0,0,.1-5c-.2-2.9-1.8-3.6-2.5-3.4s-1.5,5.3-1.6,6.2.1,4.5.2,6.9S8.6,82,8.6,82c-2-.9-3.3-3.9-4.2-6.1S1.7,72.1.5,72.3s-.2,1.8,1.1,6A20.3,20.3,0,0,0,6,86.4a19.4,19.4,0,0,1,3.4,9.8h0c0,5.5-.6,17.5-1.6,21.4-2.3,9.7-6.3,23.2-5.8,37.9.7,24,22.5,20.1,24.5,7.4,3.4-21.4-7.3-36.8-4.3-53a.1.1,0,0,0,.1-.1,20.7,20.7,0,0,1,3.5-9.2,26.8,26.8,0,0,0,2.4-4.1c1.4-2.8,2.8-3.6,3.8-5A6.3,6.3,0,0,0,33.1,87.2Z" transform="translate(0 -11.2)"/><path class="f0ba1893-4220-40cd-bb18-97ff5ae9197d" d="M87.2,55.9c-4.5,0-4.3-1.2-7.7-1.2s-3.1,1.2-7.6,1.2a27.5,27.5,0,0,0-11.2,2.6C64.4,79.6,79.5,78,79.5,78s15.2,1.6,18.9-19.5A27.5,27.5,0,0,0,87.2,55.9Z" transform="translate(0 -11.2)"/><path class="b4f58ca7-a790-46a5-8871-dfae2c87d5ba" d="M59.6,48.3A92.2,92.2,0,0,0,61.2,59" transform="translate(0 -11.2)"/><path class="b4f58ca7-a790-46a5-8871-dfae2c87d5ba" d="M99.6,48.3s-.2,2.6-1.7,10.7" transform="translate(0 -11.2)"/></g></g></g></g></svg>