<?xml version="1.0" encoding="utf-8"?>
<!-- Generator: Adobe Illustrator 24.1.2, SVG Export Plug-In . SVG Version: 6.00 Build 0)  -->
<svg version="1.1" id="Layer_1" xmlns="http://www.w3.org/2000/svg" xmlns:xlink="http://www.w3.org/1999/xlink" x="0px" y="0px"
	 viewBox="0 0 432 374.1" style="enable-background:new 0 0 432 374.1;" xml:space="preserve">
<style type="text/css">
	.st0{fill:#FFFFFF;}
	.st1{fill-rule:evenodd;clip-rule:evenodd;fill:url(#SVGID_1_);}
	.st2{opacity:0.7;fill:url(#SVGID_2_);enable-background:new    ;}
	.st3{opacity:0.7;fill:url(#SVGID_3_);enable-background:new    ;}
	.st4{fill:url(#SVGID_4_);}
	.st5{opacity:0.5;fill-rule:evenodd;clip-rule:evenodd;fill:url(#SVGID_5_);enable-background:new    ;}
	.st6{fill:url(#SVGID_6_);}
	.st7{fill:url(#SVGID_7_);}
	.st8{fill:url(#SVGID_8_);}
	.st9{opacity:0.91;fill-rule:evenodd;clip-rule:evenodd;fill:url(#SVGID_9_);enable-background:new    ;}
	.st10{opacity:0.5;fill-rule:evenodd;clip-rule:evenodd;fill:url(#SVGID_10_);enable-background:new    ;}
	.st11{opacity:0.5;fill-rule:evenodd;clip-rule:evenodd;fill:url(#SVGID_11_);enable-background:new    ;}
	.st12{fill-rule:evenodd;clip-rule:evenodd;fill:url(#SVGID_12_);}
	.st13{fill:url(#SVGID_13_);}
	.st14{fill-rule:evenodd;clip-rule:evenodd;fill:url(#SVGID_14_);}
	.st15{opacity:0.6;fill-rule:evenodd;clip-rule:evenodd;fill:url(#SVGID_15_);enable-background:new    ;}
	.st16{fill:url(#SVGID_16_);}
	.st17{fill:url(#SVGID_17_);}
	.st18{opacity:0.5;fill:url(#SVGID_18_);enable-background:new    ;}
	.st19{opacity:0.5;fill:url(#SVGID_19_);enable-background:new    ;}
	.st20{opacity:0.5;fill:url(#SVGID_20_);enable-background:new    ;}
	.st21{fill-rule:evenodd;clip-rule:evenodd;fill:url(#SVGID_21_);}
	.st22{opacity:0.5;fill:url(#SVGID_22_);enable-background:new    ;}
	.st23{opacity:0.5;fill:url(#SVGID_23_);enable-background:new    ;}
	.st24{fill:url(#SVGID_24_);}
	.st25{fill:url(#SVGID_25_);}
	.st26{fill:url(#SVGID_26_);}
	.st27{fill:url(#SVGID_27_);}
	.st28{fill:url(#SVGID_28_);}
	.st29{clip-path:url(#SVGID_30_);}
	.st30{fill:url(#SVGID_31_);}
	.st31{fill:#522F2E;}
	.st32{clip-path:url(#SVGID_33_);}
	.st33{fill:url(#SVGID_34_);}
	.st34{fill:url(#SVGID_35_);}
	.st35{fill-rule:evenodd;clip-rule:evenodd;fill:#DD6668;}
	.st36{fill:#77485E;}
	.st37{fill:#F58E6F;}
	.st38{fill:url(#SVGID_36_);}
	.st39{fill:#C44A4C;}
	.st40{fill-rule:evenodd;clip-rule:evenodd;fill:#CC5952;}
	.st41{fill:#FFEBED;}
	.st42{fill-rule:evenodd;clip-rule:evenodd;fill:#FF8B68;}
	.st43{fill:url(#SVGID_37_);}
	.st44{fill:url(#SVGID_38_);}
	.st45{fill:url(#SVGID_39_);}
	.st46{fill:url(#SVGID_40_);}
	.st47{opacity:0.5;fill:url(#SVGID_41_);enable-background:new    ;}
	.st48{opacity:0.5;fill:url(#SVGID_42_);enable-background:new    ;}
	.st49{opacity:0.5;fill:url(#SVGID_43_);enable-background:new    ;}
	.st50{opacity:0.5;fill:url(#SVGID_44_);enable-background:new    ;}
	.st51{opacity:0.5;fill:url(#SVGID_45_);enable-background:new    ;}
	.st52{fill-rule:evenodd;clip-rule:evenodd;fill:url(#SVGID_46_);}
	.st53{fill-rule:evenodd;clip-rule:evenodd;fill:url(#SVGID_47_);}
	.st54{fill-rule:evenodd;clip-rule:evenodd;fill:url(#SVGID_48_);}
	.st55{opacity:0.5;fill-rule:evenodd;clip-rule:evenodd;fill:url(#SVGID_49_);enable-background:new    ;}
	.st56{opacity:0.5;fill-rule:evenodd;clip-rule:evenodd;fill:url(#SVGID_50_);enable-background:new    ;}
	.st57{fill-rule:evenodd;clip-rule:evenodd;fill:url(#SVGID_51_);}
	.st58{fill:url(#SVGID_52_);}
	.st59{fill:url(#SVGID_53_);}
	.st60{fill:url(#SVGID_54_);}
	.st61{opacity:0.5;}
	.st62{fill:url(#SVGID_55_);}
	.st63{fill:url(#SVGID_56_);}
	.st64{fill:url(#SVGID_57_);}
	.st65{fill:url(#SVGID_58_);}
	.st66{fill:url(#SVGID_59_);}
	.st67{fill:url(#SVGID_60_);}
	.st68{fill:url(#SVGID_61_);}
	.st69{fill:url(#SVGID_62_);}
	.st70{fill:url(#SVGID_63_);}
	.st71{fill:url(#SVGID_64_);}
	.st72{fill:url(#SVGID_65_);}
	.st73{fill:url(#SVGID_66_);}
	.st74{opacity:0.5;fill-rule:evenodd;clip-rule:evenodd;fill:url(#SVGID_67_);enable-background:new    ;}
	.st75{fill:url(#SVGID_68_);}
	.st76{fill:url(#SVGID_69_);}
	.st77{font-family:'Mistral';}
	.st78{font-size:21.77px;}
	.st79{font-size:10.43px;}
</style>
<g>
	<g id="b4c03851-97c9-4043-a0d2-be54b3c8d9ae">
		<g id="ecfa4a79-3edc-48bf-97be-17986c554937">
			<path class="st0" d="M432,295.5c0,26.9-5,53.5-14.7,78.5H14.7C5,349,0,322.4,0,295.5c0-119.3,96.7-216,216-216
				S432,176.2,432,295.5z"/>
			
				<image style="overflow:visible;opacity:0.15;enable-background:new    ;" width="238" height="394" xlink:href="FB4C51C0.png"  transform="matrix(1 0 0 1 101.3 0)">
			</image>
			
				<linearGradient id="SVGID_1_" gradientUnits="userSpaceOnUse" x1="279.5255" y1="-80.54" x2="279.5255" y2="166.49" gradientTransform="matrix(1 0 0 -1 -65.6 396)">
				<stop  offset="0" style="stop-color:#721FB1"/>
				<stop  offset="1" style="stop-color:#8B36A5"/>
			</linearGradient>
			<path class="st1" d="M195.5,374h0.1c0.8-1.2,1.5-2.4,2.1-3.6c1.9-3.6,7.3-19.9,10.6-48.9c0.8-7.3,1.5-15.3,2-24.1
				c0.4-6.8,0.6-13.9,0.7-21.6c0,0,1.9,6.2,4.7,15.9c1.3,4.7,2.9,10.1,4.5,16c0.1,0.5,0.3,1,0.4,1.5c4.8,17.4,10.2,38.7,13.5,56.2
				l0.3,1.7l-1.6,7h26.4V373l0,0c0.2-0.5,2.8-6.6,4-10v-0.2c0.2-0.6,0.4-1.1,0.6-1.7c0.3-1.5-0.7-19.6-3.6-41.1
				c-0.1-0.3-0.1-0.8-0.2-1.2s-0.6-3.9-0.9-6.5c-0.2-0.7-0.3-1.5-0.4-2.2c0-0.4-0.1-0.8-0.2-1.2c-0.3-2.4-0.8-4.8-1.2-7.3
				c-0.8-4.5-1.7-9-2.6-13.4c-0.1-0.1-0.1-0.2-0.1-0.4c-7.3-32.1-15-54.7-15-54.7l-47.2-3.5l-12.5,5.9l-1.8,4.3
				c0,0-8.6,37.6-10,66.7v1.7c-1.1,29.4-1.1,60.7-1.1,60.7l-3,5.2L195.5,374z"/>
			
				<linearGradient id="SVGID_2_" gradientUnits="userSpaceOnUse" x1="252.8" y1="-64.01" x2="252.8" y2="100.71" gradientTransform="matrix(1 0 0 -1 -65.6 396)">
				<stop  offset="1.000000e-02" style="stop-color:#63517C"/>
				<stop  offset="1" style="stop-color:#8E72B3"/>
			</linearGradient>
			<path class="st2" d="M191.3,374c-10.5-0.7-18.7-7.2-18.7-7.2s-0.8-23,7.1-29.9c6.3-5.6,22.5-12.9,28.6-15.5
				c0.8-7.3,1.6-17.3,2.1-26.1l-41.6,3.7c0,0.5-0.7,8.6-0.8,9.1c-1,29.4-1,60.7-1,60.7l-3,5.2L191.3,374z"/>
			
				<linearGradient id="SVGID_3_" gradientUnits="userSpaceOnUse" x1="305.05" y1="-61.03" x2="305.05" y2="107.87" gradientTransform="matrix(1 0 0 -1 -65.6 396)">
				<stop  offset="1.000000e-02" style="stop-color:#63517C"/>
				<stop  offset="1" style="stop-color:#8E72B3"/>
			</linearGradient>
			<path class="st3" d="M220.6,309.1c4.8,17.4,10.2,38.7,13.5,56.2l0.3,1.7l-1.6,7h26.4v-1.1l0,0c1.9-3.1,3.2-6.5,4-10v-0.2
				c-4.8,3.4-23.3,4.8-25.3,0s0-20.3,0-20.3c5.9-12.7,22.3-22.5,22.3-22.5s-0.1-0.8-0.2-1.2s-0.6-3.9-0.9-6.5
				c-0.2-0.7-0.3-1.5-0.4-2.2c0-0.4-0.1-0.8-0.2-1.2c-0.3-2.4-0.8-4.8-1.2-7.3c-0.8-4.5-1.7-9-2.6-13.4l-39,3.5
				c1.3,4.7,2.9,10.1,4.5,16C220.3,308.1,220.5,308.6,220.6,309.1z"/>
			
				<linearGradient id="SVGID_4_" gradientUnits="userSpaceOnUse" x1="339.106" y1="178.9" x2="339.106" y2="283.4" gradientTransform="matrix(1 0 0 -1 -65.6 396)">
				<stop  offset="1.000000e-02" style="stop-color:#E5B0CE"/>
				<stop  offset="1" style="stop-color:#DDB0E5"/>
			</linearGradient>
			<path class="st4" d="M302.3,182c0,0-11.3,5.7-15.3,14.8c-1.8,4.4-2.6,9.1-2.4,13.8c0,2.2,0.2,4.4,0.5,6.5c0,0-6-0.1-7.9-2.8
				c-0.2-1.5-0.3-2.9-0.2-4.4c0.1-1.3,0.3-2.6,0.7-3.9c0,0-7.9-17.3-11.9-22.4c-2.9-3.5-6.2-6.6-9.9-9.1l-3.4-13.4l-8-32l8.9-11.1
				l4.4-5.4c1.8,1.3,3.5,2.7,5.1,4.3c4,3.9,7.3,8.4,9.8,13.3c0,0,5.9,16.5,7.8,23.5c0.9,3.6,4.1,8.3,7.1,12.1s4.4,5.2,5.2,6.1
				l0.2,0.2h0.1v0.2c0,0,4.8-1.2,7.7,0C302.3,175.3,302.8,178.7,302.3,182z"/>
			
				<linearGradient id="SVGID_5_" gradientUnits="userSpaceOnUse" x1="342.3022" y1="185.4" x2="342.3022" y2="283.4" gradientTransform="matrix(1 0 0 -1 -65.6 396)">
				<stop  offset="1.000000e-02" style="stop-color:#BE6888"/>
				<stop  offset="1" style="stop-color:#8E81F4"/>
			</linearGradient>
			<path class="st5" d="M302.3,182c0,0-11.3,5.7-15.3,14.8c-1.8,4.4-2.6,9.1-2.4,13.8l-7.6-0.7c0.1-1.3,0.3-2.6,0.7-3.9
				c0,0-7.9-17.3-11.9-22.4c-2.9-3.5-6.2-6.6-9.9-9.1l-3.4-13.4l1-13.3c0,0-5.8-18.3-0.1-29.8c1.1-2.1,2.6-3.9,4.4-5.4
				c1.8,1.3,3.5,2.7,5.1,4.3c0,0-6.2,16.2-5.1,29s5.1,19.9,5.1,19.9s15.3,1.8,24.7,0l0,0l5.2,6.1l0.2,0.2h0.1v0.2
				c0,0-9.3,5.9-13,16.6c0,0,12.2-14.9,20.7-16.6C302.3,175.3,302.8,178.7,302.3,182z"/>
			
				<linearGradient id="SVGID_6_" gradientUnits="userSpaceOnUse" x1="268.8766" y1="160.0222" x2="268.8766" y2="300.3" gradientTransform="matrix(1 0 0 -1 -65.6 396)">
				<stop  offset="1.000000e-02" style="stop-color:#D6C8FB"/>
				<stop  offset="1" style="stop-color:#FFD1FF"/>
			</linearGradient>
			<path class="st6" d="M260.3,114.1l-2.5-1.5c0,0-5.2,10.3-5.2,16.8c0,3.5,1.5,12.9,2.9,20.9c1.4,8,2.3,12.8,2.3,12.8
				c-3.2,27.3-18.2,57-18.2,57V231c0,0-1.5,3.1-15.5,4.4s-44.2,0-44.2,0s3.5-7.7,2.6-10.8s-6.8-22.8-11.6-35.9c-0.5-1.5-1-3-1.5-4.2
				l-22.8-59.1c0,0-0.9-5.2,0.2-6.6s5.9-1,21.5-4.9s24.1-11.7,24.1-11.7l4.6-6.5l30.4,3.8c0,0,6,9.2,10,10.4s21.3-0.8,21.3-0.8
				C260.3,110,260.3,114.1,260.3,114.1z"/>
			
				<linearGradient id="SVGID_7_" gradientUnits="userSpaceOnUse" x1="302.65" y1="355.81" x2="302.65" y2="375.1402" gradientTransform="matrix(1 0 0 -1 -65.6 396)">
				<stop  offset="1.000000e-02" style="stop-color:#512438"/>
				<stop  offset="0.99" style="stop-color:#5E1A31"/>
			</linearGradient>
			<path class="st7" d="M239.6,20.9c0,0,2.7,10.4,0,17.6s-6.3-10.4-6.3-10.4L239.6,20.9z"/>
			
				<linearGradient id="SVGID_8_" gradientUnits="userSpaceOnUse" x1="277.8" y1="287.8" x2="277.8" y2="315.7" gradientTransform="matrix(1 0 0 -1 -65.6 396)">
				<stop  offset="2.000000e-02" style="stop-color:#FF8359"/>
				<stop  offset="1" style="stop-color:#FF8B7C"/>
			</linearGradient>
			<path class="st8" d="M198.5,80.3c0,0,1.3,6.1-1.5,15.4c0,0,8.2,11.7,19.5,12.5c0,0,7-0.4,10.9-8.7l-6.8-16.2L198.5,80.3z"/>
			
				<linearGradient id="SVGID_9_" gradientUnits="userSpaceOnUse" x1="278.55" y1="289.7688" x2="278.55" y2="315.7" gradientTransform="matrix(1 0 0 -1 -65.6 396)">
				<stop  offset="2.000000e-02" style="stop-color:#F0C2D6"/>
				<stop  offset="0.99" style="stop-color:#BD89C4"/>
			</linearGradient>
			<path class="st9" d="M198.8,84.5c0,0,7.5,14.9,13.9,19.4s10.2,1.1,10.2,1.1c1.9-1.5,3.4-3.4,4.5-5.5l-10.9-17.6l-18-1.6
				L198.8,84.5z"/>
			
				<linearGradient id="SVGID_10_" gradientUnits="userSpaceOnUse" x1="231.5266" y1="204.1" x2="231.5266" y2="277.13" gradientTransform="matrix(1 0 0 -1 -65.6 396)">
				<stop  offset="1.000000e-02" style="stop-color:#BE6888"/>
				<stop  offset="1" style="stop-color:#8E81F4"/>
			</linearGradient>
			<path class="st10" d="M185.6,169.3l-4.3,22.6l-10.4-3.2c-0.5-1.5-1-3-1.5-4.2l-22.8-59.1c0,0-0.9-5.2,0.2-6.6s16.5,5,22.9,22.2
				s5.1,36.9,5.1,36.9s4.2-23.8,2.7-33.9L185.6,169.3z"/>
			
				<linearGradient id="SVGID_11_" gradientUnits="userSpaceOnUse" x1="282.3" y1="214" x2="282.3" y2="289.9" gradientTransform="matrix(1 0 0 -1 -65.6 396)">
				<stop  offset="1.000000e-02" style="stop-color:#BE6888"/>
				<stop  offset="1" style="stop-color:#8E81F4"/>
			</linearGradient>
			<path class="st11" d="M179.9,109.8c0,0,20,18.2,35.9,26.6c1.2,1.1,1.9,2.7,1.9,4.3c0,0-19.8-4.9-28.9-11.3c0,0,8.7,7.6,28.4,16.3
				c0,0-1.6,26-4.3,34.1l2,2.2l13.2-28.2c0,0,8.5-13.4,12.2-24.4c0,0,8.2,19.9,7.6,28.1s-4.6,16.5-4.6,16.5l10.2-14.2l-9-39.6
				l-7.1-10.3l-1.6-0.8l-15.2-0.9h-4.1l-1.8-0.2l-27.7-1.9L179.9,109.8z"/>
			
				<linearGradient id="SVGID_12_" gradientUnits="userSpaceOnUse" x1="289.8375" y1="200.9" x2="289.8375" y2="283.502" gradientTransform="matrix(1 0 0 -1 -65.6 396)">
				<stop  offset="0" style="stop-color:#FF023E"/>
				<stop  offset="0.99" style="stop-color:#FF5055"/>
			</linearGradient>
			<path class="st12" d="M239,180.6c0,0-2.8,8-6.8,12.9l0,0l-1.5,1.6l-1.1-0.7l-15-9.9c0,0,4.8-31.9,4.3-56.8c0,0-5-1.3-7.9-4.3l0,0
				c-0.6-0.6-1-1.2-1.4-1.9c0,0-0.5-4.4,0.5-6.7c0.2-0.5,0.5-0.9,0.9-1.2c0,0,11.6-1.5,16.4-1c1.3,1.6,2,3.6,1.8,5.7
				c-0.7,1.8-1.6,3.6-2.6,5.3l0,0c-0.7,1.1-1.5,2.2-2.4,3.3l0.2,0.5l0.3,0.7c0.2,0.4,0.3,0.9,0.4,1.3l0.2,0.4l0.4,1.1l0.2,0.5
				c1.6,4.5,4,11.8,6.5,20.2c2.7,8.8,4.8,17.8,6.2,26.9l0,0C238.8,179.2,238.9,179.9,239,180.6z"/>
			
				<linearGradient id="SVGID_13_" gradientUnits="userSpaceOnUse" x1="282.1221" y1="296.7776" x2="282.1221" y2="377.4476" gradientTransform="matrix(1 0 0 -1 -65.6 396)">
				<stop  offset="2.000000e-02" style="stop-color:#FFAE78"/>
				<stop  offset="1" style="stop-color:#FF957C"/>
			</linearGradient>
			<path class="st13" d="M244.5,70.9v0.8c-0.2,8.6-9.6,25.8-11.4,26.5s-10,1.9-15.1,0c-3-1-7.5-4.4-11.7-8.4c-3-2.8-5.6-6-7.8-9.5
				l-0.9-1.6l0,0c-1.3-2.5-2.4-5.1-3.4-7.7c-4.8-13-8.6-32.1-2.5-39.1c11.7-13.7,32.4-15.5,41.4-11.1c1,0.5,1.8,1.1,2.6,1.8
				c0.6,0.5,1.2,1.2,1.5,2c0.4,1.2,0.8,2.5,1,3.8h0.1v0.2c0.5,2.4,0.8,4.9,1,7.4c0.3,2.3,0.4,4.7,0.5,7.1c0.4,7.5,0.4,14.4,0.5,15.5
				s2.2,5.3,3.3,8.7h0.1C244.1,68.5,244.4,69.7,244.5,70.9z"/>
			
				<linearGradient id="SVGID_14_" gradientUnits="userSpaceOnUse" x1="286.65" y1="296.7776" x2="286.65" y2="328.7576" gradientTransform="matrix(1 0 0 -1 -65.6 396)">
				<stop  offset="0" style="stop-color:#B39893"/>
				<stop  offset="1" style="stop-color:#FFA475"/>
			</linearGradient>
			<path class="st14" d="M244.5,71.7c-0.2,8.6-9.6,25.8-11.4,26.5s-10,1.9-15.1,0c-3-1-7.5-4.4-11.7-8.4c-3-2.8-5.6-6-7.8-9.5
				l-0.9-1.6l0,0l0.9-8.8c7.3-3.1,23.1-1.8,26.9-2.1s18.2-0.4,18.2-0.4h0.1L244.5,71.7z"/>
			
				<linearGradient id="SVGID_15_" gradientUnits="userSpaceOnUse" x1="282.55" y1="297.8" x2="282.55" y2="376.1" gradientTransform="matrix(1 0 0 -1 -65.6 396)">
				<stop  offset="0" style="stop-color:#FFEADB"/>
				<stop  offset="0.99" style="stop-color:#B060F4"/>
			</linearGradient>
			<path class="st15" d="M240.3,58.6l-0.7,1.3c0,0-5.3-0.5-6.3-3.9s0-13,0-13c-1.9-1.7-6.6,0-6.6,0c0,4.8-1.8,14.6-1.8,14.6
				s-4.2,3.8-9.4,2.8c-3.1-0.6-6.2-1.7-8.9-3.4c-4.9,0.1-6.7,5.7-4.1,18.6S218,98.2,218,98.2c-5.2-1.8-15.3-10.7-19.5-17.9
				c-1.7-3-3.2-6.1-4.3-9.4v-8.3l-0.6-16.5l0.6-15.6l7.9-6.8l18.6-3.8l12.5,0.8l1.9,0.2l0.7,1.6l2.5,5.8h0.1v0.2l1,7.4
				c0,0,0.3,4.6,0.5,7.1v0.2C240.1,45.6,240.3,58.6,240.3,58.6z"/>
			
				<linearGradient id="SVGID_16_" gradientUnits="userSpaceOnUse" x1="278.2746" y1="329.9" x2="278.2746" y2="385.25" gradientTransform="matrix(1 0 0 -1 -65.6 396)">
				<stop  offset="1.000000e-02" style="stop-color:#512438"/>
				<stop  offset="0.99" style="stop-color:#832E31"/>
			</linearGradient>
			<path class="st16" d="M235.9,33.1l0.2-3.5c-0.9,2.1-2.2,4.1-3.8,5.8c0,0-1.1-7.3-2.9-9.9h-2.3l-6.4-0.4c-4.2-0.4-13-0.5-19.1,2.2
				c-1.3,0.6-2.5,1.4-3.6,2.3c0,0-2.7,6.4,2.4,13.2c0,0-2.2,1.8-3.4,8.1s0,15.2,0,15.2s-2.9-4.3-5.9-5.1c0,0-3.8-8.5-4.8-15.8
				S184.6,31,188.6,29s15-7.7,19.1-10.4s9.3-6.7,10.9-7.2s15.4-2.6,21,6.1C240.4,23,239.1,28.6,235.9,33.1z"/>
			
				<linearGradient id="SVGID_17_" gradientUnits="userSpaceOnUse" x1="209.3311" y1="156.3" x2="209.3311" y2="274.4" gradientTransform="matrix(1 0 0 -1 -65.6 396)">
				<stop  offset="1.000000e-02" style="stop-color:#D6C8FB"/>
				<stop  offset="1" style="stop-color:#FFDDFF"/>
			</linearGradient>
			<path class="st17" d="M169.2,173.4c-7.5,4.7-9.2,25-9.9,31.1c-0.1,1.4-0.4,2.9-0.7,4.6c-1.2,5.7-3,12.1-3,12.1
				c-8.4,9-32.2,18.5-32.2,18.5c-0.5-10.2-5.7-10.2-5.7-10.2s1.3-22.9,4.3-27.4c1.9-2.8,4.5-5.1,7.6-6.6l0,0c-0.2-2.6-0.2-5.3,0-7.9
				l0,0c2.2-1.4,5.8-1.4,5.8-1.4c0.6-1,1.1-2,1.4-3.1l0,0c0.8-2.4,1.4-4.9,1.9-7.4c0,0,1.5-29.4,3.2-36.1s5.8-18,5.8-18
				s14.9,1,19.3,19.6c0.8,3.4,1.4,6.5,1.8,9.5l0,0C170.7,164.2,169.2,173.4,169.2,173.4z"/>
			
				<linearGradient id="SVGID_18_" gradientUnits="userSpaceOnUse" x1="218.1811" y1="170" x2="218.1811" y2="245.4" gradientTransform="matrix(1 0 0 -1 -65.6 396)">
				<stop  offset="1.000000e-02" style="stop-color:#BE6888"/>
				<stop  offset="1" style="stop-color:#8E81F4"/>
			</linearGradient>
			<path class="st18" d="M169.2,173.4c-7.5,4.7-9.2,25-9.9,31.1c-0.1,1.4-0.4,2.9-0.7,4.6l-1.1,2.9l-17.2,14
				c0.4-0.7,14.6-24.6,16.2-36.1c-6.3-3.8-13.8-5.1-21.1-3.8l1.4-3.1l0,0c0,0,10.2,0.8,18.1-2.4s14.2-24.5,13.9-30
				C170.7,164.2,169.2,173.4,169.2,173.4z"/>
			
				<linearGradient id="SVGID_19_" gradientUnits="userSpaceOnUse" x1="285.2618" y1="272.35" x2="285.2618" y2="283.52" gradientTransform="matrix(1 0 0 -1 -65.6 396)">
				<stop  offset="1.000000e-02" style="stop-color:#BE6888"/>
				<stop  offset="1" style="stop-color:#8E81F4"/>
			</linearGradient>
			<path class="st19" d="M229.2,118.3c-0.7,1.8-1.6,3.6-2.6,5.3l0,0c0,0-1.1-7.1-4.5-9c-3.7-0.8-7.4-0.8-11.1,0l-0.9,0.2
				c0.2-0.5,0.5-0.9,0.9-1.2c0,0,11.6-1.5,16.4-1C228.7,114.2,229.4,116.2,229.2,118.3z"/>
			
				<linearGradient id="SVGID_20_" gradientUnits="userSpaceOnUse" x1="291.05" y1="201.6" x2="291.05" y2="272.6" gradientTransform="matrix(1 0 0 -1 -65.6 396)">
				<stop  offset="1.000000e-02" style="stop-color:#BE6888"/>
				<stop  offset="1" style="stop-color:#8E81F4"/>
			</linearGradient>
			<path class="st20" d="M239.9,182.1l-1.9,9.4l-5.8,2l0,0l-2.6,0.9l-15-9.9c0,0,4.8-31.9,4.3-56.8c0,0-5-1.3-7.9-4.3l0,0
				c0,0,7.7,3.6,13.2,3.5l0.2,0.5l0.3,0.7l0.4,1.3l0.2,0.4l0.4,1.1l0.2,0.5l-5.5,6.9c0,0-1.7,30.5,1.2,41.5c0,0,8.6,5.8,17-1.2h0.1
				L239.9,182.1z"/>
			
				<linearGradient id="SVGID_21_" gradientUnits="userSpaceOnUse" x1="276.55" y1="145.5" x2="276.55" y2="287" gradientTransform="matrix(1 0 0 -1 -65.6 396)">
				<stop  offset="0" style="stop-color:#511F90"/>
				<stop  offset="1" style="stop-color:#6336B6"/>
			</linearGradient>
			<path class="st21" d="M251.7,195c-2.5,9-5.7,18.3-10.1,25.7c0,0,1.8,14.9,8.3,25.4c-7.6-6.7-13.9-14.7-18.6-23.6
				c0,0-16.6,16.9-38.1,28c0,0-4.4-17.6-7.6-19.9c-3.3,2.3-5.8,5.5-7.5,9.1c0.3-0.7,3.9-11.1,3.5-15.1c-0.8-3.8-1.8-7.5-3-11.2
				c-3.6-11.7-9-28.2-9.2-28.9s3.4,2.9,5.9,1.4s4.6-27.1,1.5-46.9s-8.5-25.1-8.5-25.1l-4.2,1c0,0,0.6-3,2.4-4.4l0,0
				c1.6,0.7,3.5,0.9,5.2,0.5c1.4-0.3,2.7-1,3.7-2c0,0,7,24.1,13.2,45c0,0,21.3,25.3,38.8,36.2l2.6,1.6h0.1c0.9-1,15.4-17.1,19-31.1
				s-11.7-50.8-11.7-50.8c0.8-0.3,1.7-0.5,2.5-0.6c1.7-0.3,3.8-0.4,4.6,0.6s11.9,39.2,13.3,53.2C256.5,173.9,254.5,184.5,251.7,195z
				"/>
			
				<linearGradient id="SVGID_22_" gradientUnits="userSpaceOnUse" x1="309.5" y1="201" x2="309.5" y2="286.74" gradientTransform="matrix(1 0 0 -1 -65.6 396)">
				<stop  offset="1.000000e-02" style="stop-color:#BE6888"/>
				<stop  offset="1" style="stop-color:#8E81F4"/>
			</linearGradient>
			<path class="st22" d="M257.8,163.1c-1.3,10.8-3.3,21.4-6.1,31.9l-21.7-3.1h0.1c0.9-1,15.4-17.1,19-31.1S237.4,110,237.4,110
				c0.8-0.3,1.7-0.5,2.5-0.6c0.8,2.9,10.3,38.4,11,45.3s-3.6,19.4-3.6,19.4C251.5,171.2,255.1,167.5,257.8,163.1z"/>
			
				<linearGradient id="SVGID_23_" gradientUnits="userSpaceOnUse" x1="261.35" y1="182.6" x2="261.35" y2="285.5" gradientTransform="matrix(1 0 0 -1 -65.6 396)">
				<stop  offset="1.000000e-02" style="stop-color:#BE6888"/>
				<stop  offset="1" style="stop-color:#8E81F4"/>
			</linearGradient>
			<path class="st23" d="M227.4,190.3L207,210.6l-28.4,2.8c-3.6-11.7-9-28.2-9.2-28.9s3.4,2.9,5.9,1.4s4.6-27.1,1.5-46.9
				s-8.5-25.1-8.5-25.1l-4.2,1c0,0,0.6-3,2.4-4.4l0,0c0.9,0.7,9,7.1,13.4,28.2c2.8,14.2,3.9,28.7,3.3,43.2
				C183.2,181.9,211,191.5,227.4,190.3z"/>
			
				<linearGradient id="SVGID_24_" gradientUnits="userSpaceOnUse" x1="267.35" y1="266.65" x2="267.35" y2="302.55" gradientTransform="matrix(1 0 0 -1 -65.6 396)">
				<stop  offset="1.000000e-02" style="stop-color:#E6DEFD"/>
				<stop  offset="1" style="stop-color:#FFF1FF"/>
			</linearGradient>
			<path class="st24" d="M216.5,108.2l-1.8-0.2l-7.7,21.3c-11.2-7.2-20-23.2-20-23.2l8.4-12.7h2.2l-0.6,2.3
				C202.4,103,216.5,108.2,216.5,108.2z"/>
			
				<linearGradient id="SVGID_25_" gradientUnits="userSpaceOnUse" x1="292.15" y1="268.3" x2="292.15" y2="296.43" gradientTransform="matrix(1 0 0 -1 -65.6 396)">
				<stop  offset="1.000000e-02" style="stop-color:#E6DEFD"/>
				<stop  offset="1" style="stop-color:#FFF1FF"/>
			</linearGradient>
			<path class="st25" d="M235.8,109.1c0,0-0.4,13.3-4.1,18.6c0,0-7.2-16.4-9.1-18.6l-5.3-1l3.4-1.2c0,0,4.8-3.7,6.7-7.4l2.4,2.7
				L235.8,109.1z"/>
			
				<linearGradient id="SVGID_26_" gradientUnits="userSpaceOnUse" x1="302.3852" y1="349.35" x2="302.3852" y2="359.99" gradientTransform="matrix(1 0 0 -1 -65.6 396)">
				<stop  offset="1.000000e-02" style="stop-color:#4F223A"/>
				<stop  offset="0.99" style="stop-color:#7D363D"/>
			</linearGradient>
			<path class="st26" d="M233.3,46.6c0,0,1.4-7.9,3.1-9.4c0.8-0.8,1.8-1.2,2.9-1.2c0,0,1.7,4.3,0.6,7.3c-1-0.3-2.1-0.2-3.1,0.3
				C235.4,44.4,234.3,45.4,233.3,46.6z"/>
			
				<linearGradient id="SVGID_27_" gradientUnits="userSpaceOnUse" x1="281.6016" y1="348.53" x2="281.6016" y2="358.86" gradientTransform="matrix(1 0 0 -1 -65.6 396)">
				<stop  offset="1.000000e-02" style="stop-color:#4F223A"/>
				<stop  offset="0.99" style="stop-color:#7D363D"/>
			</linearGradient>
			<path class="st27" d="M223.8,37.1c0.1,2.5-0.6,4.9-1.9,7c-4.8,0-9.5,1.2-13.7,3.4c0.5-1.8,1.4-3.4,2.6-4.8
				C214.6,38.7,223.8,37.1,223.8,37.1z"/>
			
				<linearGradient id="SVGID_28_" gradientUnits="userSpaceOnUse" x1="215.5473" y1="338.383" x2="215.5473" y2="347.813" gradientTransform="matrix(1 0 0 -1 0 396)">
				<stop  offset="0" style="stop-color:#D0C7F8"/>
				<stop  offset="1" style="stop-color:#FFFFFF"/>
			</linearGradient>
			<path class="st28" d="M220.7,56.9c-1.8,0.7-3.8,0.9-5.7,0.5c-2.1-0.3-4-1.4-5.3-3.1c-0.2-0.1-0.2-0.2-0.2-0.2s0-0.1,0.1-0.2
				c0.5-0.9,1.1-1.7,1.7-2.4c0.5-0.6,1.1-1.1,1.7-1.5c0.8-0.6,1.7-1,2.6-1.3c1.5-0.5,3.2-0.7,4.8-0.4
				C222.9,52.2,220.7,56.9,220.7,56.9z"/>
			<g>
				<defs>
					<path id="SVGID_29_" d="M220.7,56.9c-1.8,0.7-3.8,0.9-5.7,0.5c-2.1-0.3-4-1.4-5.3-3.1c-0.2-0.1-0.2-0.2-0.2-0.2s0-0.1,0.1-0.2
						c0.5-0.9,1.1-1.7,1.7-2.4c0.5-0.6,1.1-1.1,1.7-1.5c0.8-0.6,1.7-1,2.6-1.3c1.5-0.5,3.2-0.7,4.8-0.4
						C222.9,52.2,220.7,56.9,220.7,56.9z"/>
				</defs>
				<clipPath id="SVGID_30_">
					<use xlink:href="#SVGID_29_"  style="overflow:visible;"/>
				</clipPath>
				<g class="st29">
					
						<linearGradient id="SVGID_31_" gradientUnits="userSpaceOnUse" x1="280.2" y1="337.94" x2="280.2" y2="347.94" gradientTransform="matrix(1 0 0 -1 -65.6 396)">
						<stop  offset="1.000000e-02" style="stop-color:#C2862E"/>
						<stop  offset="0.98" style="stop-color:#74422F"/>
					</linearGradient>
					<ellipse class="st30" cx="214.6" cy="53.1" rx="4.7" ry="5"/>
					<ellipse class="st31" cx="214.6" cy="53.1" rx="3.3" ry="3.5"/>
				</g>
			</g>
			<g>
				<defs>
					<path id="SVGID_32_" d="M238.9,58.7c-0.9,0-1.8-0.1-2.7-0.5c-0.7-0.2-1.4-0.7-1.8-1.3c-0.5-0.6-0.9-1.3-1.1-2
						c-0.2-0.9-0.2-1.8,0.1-2.7c0.6-2,1.9-3.8,3.7-4.9C238.6,46.5,241.4,52.4,238.9,58.7z"/>
				</defs>
				<clipPath id="SVGID_33_">
					<use xlink:href="#SVGID_32_"  style="overflow:visible;"/>
				</clipPath>
				<g class="st32">
					
						<linearGradient id="SVGID_34_" gradientUnits="userSpaceOnUse" x1="302.1279" y1="337.28" x2="302.1279" y2="348.81" gradientTransform="matrix(1 0 0 -1 -65.6 396)">
						<stop  offset="0" style="stop-color:#D0C7F8"/>
						<stop  offset="1" style="stop-color:#FFFFFF"/>
					</linearGradient>
					<path class="st33" d="M238.9,58.7c-0.9,0-1.8-0.1-2.7-0.5c-0.7-0.2-1.4-0.7-1.8-1.3c-0.5-0.6-0.9-1.3-1.1-2
						c-0.2-0.9-0.2-1.8,0.1-2.7c0.6-2,1.9-3.8,3.7-4.9C238.6,46.5,241.4,52.4,238.9,58.7z"/>
					
						<linearGradient id="SVGID_35_" gradientUnits="userSpaceOnUse" x1="301.1" y1="337.58" x2="301.1" y2="346.74" gradientTransform="matrix(1 0 0 -1 -65.6 396)">
						<stop  offset="1.000000e-02" style="stop-color:#C2862E"/>
						<stop  offset="0.98" style="stop-color:#74422F"/>
					</linearGradient>
					<ellipse class="st34" cx="235.5" cy="53.8" rx="3.9" ry="4.6"/>
					<path class="st31" d="M238.3,53.8c0.1,1.7-1.1,3.1-2.8,3.3c-1.5,0-2.7-1.5-2.7-3.3c-0.3-1.5,0.7-3,2.2-3.3
						c1.5-0.3,3,0.7,3.3,2.2C238.4,53.1,238.4,53.5,238.3,53.8z"/>
				</g>
			</g>
			<path class="st35" d="M233.1,54.1c-0.2-3.1,1.2-6.1,3.7-8c0.9,0.7,1.6,1.6,2.1,2.6c-0.1-0.4-0.6-0.6-1-0.5
				C236.6,48.5,234.2,49.8,233.1,54.1z"/>
			<path class="st36" d="M233.1,54.1c0,0,1.1-6.9,6.5-6.6l-0.3,2.2l-0.5-1.2C238.8,48.5,234.7,49.1,233.1,54.1z"/>
			<path class="st0" d="M218.1,52.5c-0.1,0.4-0.4,0.7-0.8,0.7c-0.4,0.1-0.7-0.2-0.8-0.6c0,0,0-0.1,0-0.1c-0.1-0.4,0.2-0.7,0.6-0.8
				c0.1,0,0.1,0,0.2,0C217.7,51.7,218.1,52.1,218.1,52.5C218.1,52.5,218.1,52.5,218.1,52.5z"/>
			<path class="st0" d="M238.2,52.5c-0.1,0.4-0.4,0.7-0.8,0.7c-0.4,0.1-0.7-0.2-0.8-0.6c0,0,0-0.1,0-0.1c-0.1-0.4,0.2-0.7,0.6-0.8
				c0.1,0,0.1,0,0.2,0C237.8,51.7,238.2,52.1,238.2,52.5C238.2,52.5,238.2,52.5,238.2,52.5z"/>
			<path class="st35" d="M209.5,54.1c0,0,2.2-6.7,8.6-8c1,0.5,1.8,1.2,2.3,2.2C220.4,48.3,214.5,46.8,209.5,54.1z"/>
			<path class="st37" d="M224.2,67c2.1-3.8,5.9-6.2,10.2-6.6c0,0,5,2.2,5.2,5.7L224.2,67z"/>
			<path class="st36" d="M209.5,54.1c0,0,2.1-3.7,5.4-5.1c2.3-0.9,4.8-1.2,7.2-0.8l-1,1.5l-0.4-1C216.3,48.5,212.1,50.5,209.5,54.1z
				"/>
			
				<linearGradient id="SVGID_36_" gradientUnits="userSpaceOnUse" x1="297.5" y1="325.29" x2="297.5" y2="330.13" gradientTransform="matrix(1 0 0 -1 -65.6 396)">
				<stop  offset="3.000000e-02" style="stop-color:#FF6A68"/>
				<stop  offset="1" style="stop-color:#FF7C5E"/>
			</linearGradient>
			<path class="st38" d="M224.2,67c1,0.7,2.1,1.2,3.2,1.6c0,0,3.4,0.3,4.8,2.1c0,0,5.5-0.5,7.4-4.6c0,0-2.1-0.6-7.7,0L224.2,67z"/>
			<path class="st39" d="M227.4,68.6l4.5,1.4C231.9,70,228.1,66.6,227.4,68.6z"/>
			<path class="st39" d="M234.4,60.4c0,0,4.2,2.3,5.2,5.7c0,0-1.4,2.9-4,3.7c0,0,3.9-1.4,5.2-3.9C240.8,65.9,239.9,62.9,234.4,60.4z
				"/>
			<path class="st40" d="M218.1,72.6c2,1.5,4.3,2.5,6.7,3c3.7,0.6,7.5,0.6,11.2,0c0.8-0.4,1.6-0.8,2.3-1.3c0,0-3.9,6-7.6,6
				s-11.1-5.3-12.7-7L218.1,72.6z"/>
			<path class="st41" d="M223.3,76c0,0,7.4,1.5,12.5,0c-1.1,1.5-2.6,2.6-4.2,3.5C228.5,79.4,225.5,78.2,223.3,76z"/>
			<path class="st42" d="M220.6,70.2c-1,0.4-1.9,1-2.5,1.9c-0.9,1-1.5,2.2-1.9,3.5c0,0,2.1-2.8,3.6-3.5
				C220.2,71.5,220.5,70.9,220.6,70.2z"/>
			
				<linearGradient id="SVGID_37_" gradientUnits="userSpaceOnUse" x1="255.2488" y1="314.84" x2="255.2488" y2="337.09" gradientTransform="matrix(1 0 0 -1 -65.6 396)">
				<stop  offset="2.000000e-02" style="stop-color:#FF8359"/>
				<stop  offset="1" style="stop-color:#FF8B7C"/>
			</linearGradient>
			<path class="st43" d="M197,66.1c0,0-4.7-8.7-14.2-7c0,0-3,3.1-2.9,9.5c0,0,2.1,8.2,8.9,11.7s10.6-4.2,10.6-4.2
				S198.3,67.9,197,66.1z"/>
			<path class="st35" d="M197,72.6c0,0-3.1-6.7-14.9-6.7c0,0-2.2,2.7,0.6,7.9c0,0-1.4-4,0.8-5.5C183.5,68.3,191.8,67,197,72.6z"/>
			<path class="st35" d="M187.8,68.3c-0.4,2,0.3,4.1,1.8,5.5c2.7,2.5,5.8,0.4,7.4-1.2c0,0-3.5,2-5.8,0.3s-0.8-4.6-0.8-4.6
				L187.8,68.3z"/>
			
				<linearGradient id="SVGID_38_" gradientUnits="userSpaceOnUse" x1="295.4278" y1="360.63" x2="295.4278" y2="385.2381" gradientTransform="matrix(1 0 0 -1 -65.6 396)">
				<stop  offset="1.000000e-02" style="stop-color:#6F2E45"/>
				<stop  offset="0.99" style="stop-color:#A6453D"/>
			</linearGradient>
			<path class="st44" d="M223.8,10.8c0,0,11.2,4,8.5,24.6c0,0,8-15.7,0-23.4C229.6,11.1,226.7,10.7,223.8,10.8z"/>
			
				<linearGradient id="SVGID_39_" gradientUnits="userSpaceOnUse" x1="257.75" y1="346.26" x2="257.75" y2="358.86" gradientTransform="matrix(1 0 0 -1 -65.6 396)">
				<stop  offset="1.000000e-02" style="stop-color:#6F2E45"/>
				<stop  offset="0.99" style="stop-color:#A6453D"/>
			</linearGradient>
			<path class="st45" d="M197.7,37.1c0,0-2.6,4.7-11.5,6.9c0.2,1.9,0.6,3.8,1,5.7c0,0,8-6.9,10.9-11.2L197.7,37.1z"/>
			
				<linearGradient id="SVGID_40_" gradientUnits="userSpaceOnUse" x1="260.05" y1="336.96" x2="260.05" y2="353.19" gradientTransform="matrix(1 0 0 -1 -65.6 396)">
				<stop  offset="1.000000e-02" style="stop-color:#6F2E45"/>
				<stop  offset="0.99" style="stop-color:#A6453D"/>
			</linearGradient>
			<path class="st46" d="M188.5,54c4.2-3.5,8.2-7.2,11.9-11.2c-2,2.2-3.2,5.1-3.4,8.1c-1.5,3.2-3.8,6-6.7,8.1L188.5,54z"/>
			
				<linearGradient id="SVGID_41_" gradientUnits="userSpaceOnUse" x1="337.55" y1="239.04" x2="337.55" y2="247.03" gradientTransform="matrix(1 0 0 -1 -65.6 396)">
				<stop  offset="1.000000e-02" style="stop-color:#BE6888"/>
				<stop  offset="1" style="stop-color:#8E81F4"/>
			</linearGradient>
			<path class="st47" d="M262.2,149c0,0,10.3,6.3,19.5,8c0,0-7.8-0.2-10.8-1.6S262.2,149,262.2,149z"/>
			
				<linearGradient id="SVGID_42_" gradientUnits="userSpaceOnUse" x1="205.3627" y1="200.55" x2="205.3627" y2="208.54" gradientTransform="matrix(1 0 0 -1 -65.6 396)">
				<stop  offset="1.000000e-02" style="stop-color:#BE6888"/>
				<stop  offset="1" style="stop-color:#8E81F4"/>
			</linearGradient>
			<path class="st48" d="M129.6,187.5c0,0,13.3,0.5,20.5,4.4c0,0-12,0.4-20.5,3.6C129.4,192.8,129.4,190.2,129.6,187.5z"/>
			
				<linearGradient id="SVGID_43_" gradientUnits="userSpaceOnUse" x1="220.15" y1="219.5" x2="220.15" y2="252.24" gradientTransform="matrix(1 0 0 -1 -65.6 396)">
				<stop  offset="1.000000e-02" style="stop-color:#BE6888"/>
				<stop  offset="1" style="stop-color:#8E81F4"/>
			</linearGradient>
			<path class="st49" d="M165.9,143.8c-1.8,6.1-4.2,12.1-7.2,17.8c-3.7,6.8-15.5,14.9-15.5,14.9s13.2-4.8,17-11.2
				S165.9,143.8,165.9,143.8z"/>
			
				<linearGradient id="SVGID_44_" gradientUnits="userSpaceOnUse" x1="271.5485" y1="287.8" x2="271.5485" y2="302.6" gradientTransform="matrix(1 0 0 -1 -65.6 396)">
				<stop  offset="1.000000e-02" style="stop-color:#BE6888"/>
				<stop  offset="1" style="stop-color:#8E81F4"/>
			</linearGradient>
			<path class="st50" d="M216.5,108.2l-1.8-0.2c0,0-15.9-5.4-17.7-8.8c-1.1-1.7-1.6-3.8-1.6-5.8h2.2l-0.6,2.3
				C202.4,103,216.5,108.2,216.5,108.2z"/>
			
				<linearGradient id="SVGID_45_" gradientUnits="userSpaceOnUse" x1="289.15" y1="286.93" x2="289.15" y2="296.45" gradientTransform="matrix(1 0 0 -1 -65.6 396)">
				<stop  offset="1.000000e-02" style="stop-color:#BE6888"/>
				<stop  offset="1" style="stop-color:#8E81F4"/>
			</linearGradient>
			<path class="st51" d="M229.8,102.2c-1.5,3.7-7.2,6.9-7.2,6.9l-5.3-1l3.4-1.2c0,0,4.8-3.7,6.7-7.4L229.8,102.2z"/>
			
				<radialGradient id="SVGID_46_" cx="281.996" cy="164.0047" r="85.6065" gradientTransform="matrix(1 0 0 -1 -65.6 396)" gradientUnits="userSpaceOnUse">
				<stop  offset="0" style="stop-color:#7C65E0"/>
				<stop  offset="0.99" style="stop-color:#BD77E3"/>
			</radialGradient>
			<path class="st52" d="M305.3,282.2l-158.4,18.5c-6.3,0.7-12.1-3.3-13.2-9.1l-16.8-96c-1-6.3,3.8-12.3,10.7-13.1l36.6-4.2
				l47.5-5.5l83.3-9.5c6.9-0.8,13,3.9,13.4,10.2l7.6,96.8C316.4,276.2,311.7,281.5,305.3,282.2z"/>
			
				<radialGradient id="SVGID_47_" cx="282.1897" cy="162.0635" r="85.6222" gradientTransform="matrix(1 0 0 -1 -65.6 396)" gradientUnits="userSpaceOnUse">
				<stop  offset="0" style="stop-color:#E2005B"/>
				<stop  offset="0.99" style="stop-color:#D40011"/>
			</radialGradient>
			<path class="st53" d="M305.5,284.2l-33.3,3.9h-0.4l-98.6,11.5h-0.4l-3.1,0.3l-22.5,2.7c-6,0.6-11.6-3.2-13.2-9.1l-5.7-32.5
				l-5.6-32.1l-5.5-31.4c-1.1-6.3,3.7-12.2,10.6-13l39-4.5l48.3-5.6l14.5-1.6h0.3l65.4-7.5c6.8-0.8,12.9,3.9,13.3,10.3l2.4,30.7v1.6
				l2.4,30.6l2.7,33.9C316.6,278.2,311.9,283.5,305.5,284.2z"/>
			
				<radialGradient id="SVGID_48_" cx="-438.9886" cy="253.2294" r="63.03" gradientTransform="matrix(1.08 -0.13 -0.12 -0.99 719.03 403.72)" gradientUnits="userSpaceOnUse">
				<stop  offset="0" style="stop-color:#603082"/>
				<stop  offset="0.99" style="stop-color:#2A0E51"/>
			</radialGradient>
			<polygon class="st54" points="119.3,211.6 309.5,187.5 310.9,206.7 122.9,230.5 			"/>
			
				<linearGradient id="SVGID_49_" gradientUnits="userSpaceOnUse" x1="-518.0486" y1="231.0191" x2="-413.8886" y2="231.0191" gradientTransform="matrix(1.08 -0.13 -0.12 -0.99 719.03 403.72)">
				<stop  offset="0" style="stop-color:#F3E6EE"/>
				<stop  offset="0.98" style="stop-color:#E5DFED"/>
			</linearGradient>
			<polygon class="st55" points="132.6,236.5 134,248.7 245.9,235 244.4,222.2 			"/>
			
				<linearGradient id="SVGID_50_" gradientUnits="userSpaceOnUse" x1="-396.9786" y1="231.2311" x2="-358.7586" y2="231.2311" gradientTransform="matrix(1.08 -0.13 -0.12 -0.99 719.03 403.72)">
				<stop  offset="0" style="stop-color:#F3E6EE"/>
				<stop  offset="0.98" style="stop-color:#E5DFED"/>
			</linearGradient>
			<polygon class="st56" points="262.6,220.1 264.1,233.4 305.2,228.4 303.5,214.3 			"/>
			
				<linearGradient id="SVGID_51_" gradientUnits="userSpaceOnUse" x1="-390.7186" y1="197.1585" x2="-360.8873" y2="197.1585" gradientTransform="matrix(1.08 -0.13 -0.12 -0.99 719.03 403.72)">
				<stop  offset="0" style="stop-color:#E03347"/>
				<stop  offset="1" style="stop-color:#FF6E27"/>
			</linearGradient>
			<polygon class="st57" points="273.3,253.3 305.3,248.6 305.9,262.3 274.6,265 			"/>
			
				<linearGradient id="SVGID_52_" gradientUnits="userSpaceOnUse" x1="-384.5453" y1="188.1315" x2="-384.5453" y2="213.8315" gradientTransform="matrix(1.0728 -0.1241 -0.1149 -0.9934 709.3896 411.0386)">
				<stop  offset="0" style="stop-color:#FF8647"/>
				<stop  offset="1" style="stop-color:#FFB934"/>
			</linearGradient>
			<path class="st58" d="M272.3,246.4c7.6-0.9,14.5,4.1,15.3,11.1s-4.7,13.4-12.3,14.3s-14.5-4.1-15.3-11.1
				C259.1,253.7,264.6,247.3,272.3,246.4z"/>
			
				<linearGradient id="SVGID_53_" gradientUnits="userSpaceOnUse" x1="307.55" y1="96.4" x2="307.55" y2="230.8888" gradientTransform="matrix(1 0 0 -1 -65.6 396)">
				<stop  offset="0" style="stop-color:#000000"/>
				<stop  offset="0.1" style="stop-color:#050304"/>
				<stop  offset="0.23" style="stop-color:#130C10"/>
				<stop  offset="0.36" style="stop-color:#2B1B23"/>
				<stop  offset="0.5" style="stop-color:#4C2F3F"/>
				<stop  offset="0.65" style="stop-color:#774A62"/>
				<stop  offset="0.8" style="stop-color:#AB6B8D"/>
				<stop  offset="0.95" style="stop-color:#E890BF"/>
				<stop  offset="1" style="stop-color:#FF9FD2"/>
			</linearGradient>
			<path class="st59" d="M311.1,207.1l-38.9,80.2l-0.4,0.8l-98.6,11.5h-0.4l0.4-0.8l56.4-126.1h0.3l65.4-7.5
				c6.8-0.8,12.9,3.9,13.3,10.3L311.1,207.1z"/>
			
				<linearGradient id="SVGID_54_" gradientUnits="userSpaceOnUse" x1="245.15" y1="93.2306" x2="245.15" y2="221.6" gradientTransform="matrix(1 0 0 -1 -65.6 396)">
				<stop  offset="0" style="stop-color:#000000"/>
				<stop  offset="0.1" style="stop-color:#050304"/>
				<stop  offset="0.23" style="stop-color:#130C10"/>
				<stop  offset="0.36" style="stop-color:#2B1B23"/>
				<stop  offset="0.5" style="stop-color:#4C2F3F"/>
				<stop  offset="0.65" style="stop-color:#774A62"/>
				<stop  offset="0.8" style="stop-color:#AB6B8D"/>
				<stop  offset="0.95" style="stop-color:#E890BF"/>
				<stop  offset="1" style="stop-color:#FF9FD2"/>
			</linearGradient>
			<path class="st60" d="M215.1,174.4L169.7,300l-22.5,2.7c-1.1,0.1-2.1,0.1-3.2-0.1L166.8,180L215.1,174.4z"/>
			<g class="st61">
				
					<linearGradient id="SVGID_55_" gradientUnits="userSpaceOnUse" x1="193.5265" y1="135" x2="193.5265" y2="167.1012" gradientTransform="matrix(1 0 0 -1 -65.6 396)">
					<stop  offset="1.000000e-02" style="stop-color:#BE6888"/>
					<stop  offset="1" style="stop-color:#8E81F4"/>
				</linearGradient>
				<path class="st62" d="M132.9,259.7c-1.5,0.7-3,1.1-4.6,1.3l-5.6-32.1c2,0,4,0.2,5.9,0.6c0,0,1.1,4.2,0,6.8c0,0,3.4,0.3,4.1,1.1
					s0.5,4.4,0,5.8l-0.4,0.6h-0.1c-0.9,0.7-1.8,1.1-2.9,1.3c1.2,2,1.3,4.4,0.3,6.5l-1.5,0.6c0,0,3.5,0.3,4.2,1.8
					S132.9,259.7,132.9,259.7z"/>
				
					<linearGradient id="SVGID_56_" gradientUnits="userSpaceOnUse" x1="370.9375" y1="157.5897" x2="370.9375" y2="189.7997" gradientTransform="matrix(1 0 0 -1 -65.6 396)">
					<stop  offset="1.000000e-02" style="stop-color:#BE6888"/>
					<stop  offset="1" style="stop-color:#8E81F4"/>
				</linearGradient>
				<path class="st63" d="M313.6,238.4c-1.8,0.1-3.6-0.1-5.3-0.4c-1-0.8-1.7-4-0.8-4.5c0.9-0.5,2-0.9,3-1.2l-0.2-3.5
					c-2.8,0.5-5.7,0.6-8.6,0.3c-1.2-0.9-1.9-2.3-1.8-3.8c0-0.4,0.1-0.9,0.2-1.3c-0.9-0.1-1.8-0.3-2.6-0.7c-0.5-0.5-0.7-4.2,0.2-5.2
					s6.3-2.6,6.3-2.6h-0.1c-0.1-0.4-0.4-1-0.6-1.7c-0.5-1.3-0.5-2.7,0.1-4c0,0,3.8-1.9,7.6-3.5v1.6L313.6,238.4z"/>
			</g>
			
				<linearGradient id="SVGID_57_" gradientUnits="userSpaceOnUse" x1="177.22" y1="155.7111" x2="198.13" y2="155.7111" gradientTransform="matrix(1 0 0 -1 -65.6 396)">
				<stop  offset="0" style="stop-color:#FF957C"/>
				<stop  offset="0.98" style="stop-color:#FFAE78"/>
			</linearGradient>
			<path class="st64" d="M112.6,228.2c0,0,9.9-1.4,15.3,0c0,0,1.2,4.2,0,6.8c0,0,3.5,0.3,4.2,1.1s0.5,4.4,0,5.8s-3.5,2-3.5,2
				c1.3,1.9,1.5,4.4,0.4,6.4c-3.4,1.6-7.1,2.5-10.8,2.7c-1.5-2.2-1.7-5.1-0.6-7.5c0,0-2.7-2.3-2.3-7.3c-1-0.3-1.9-0.7-2.7-1.2
				C112,236.5,110.9,231.4,112.6,228.2z"/>
			
				<linearGradient id="SVGID_58_" gradientUnits="userSpaceOnUse" x1="192.1" y1="142.06" x2="192.1" y2="145.08" gradientTransform="matrix(1 0 0 -1 -65.6 396)">
				<stop  offset="2.000000e-02" style="stop-color:#FF8359"/>
				<stop  offset="1" style="stop-color:#FF8B7C"/>
			</linearGradient>
			<path class="st65" d="M121.3,253.9l0.8-1.3l5.4-1.7c0,0,3.5,0.3,4.2,1.8L121.3,253.9z"/>
			
				<linearGradient id="SVGID_59_" gradientUnits="userSpaceOnUse" x1="186.57" y1="139.6537" x2="198.1206" y2="139.6537" gradientTransform="matrix(1 0 0 -1 -65.6 396)">
				<stop  offset="0" style="stop-color:#FF957C"/>
				<stop  offset="0.98" style="stop-color:#FFAE78"/>
			</linearGradient>
			<path class="st66" d="M121.3,253.9c-0.7,0.3,0,4.5,1,6.1c0,0,6,0.3,10-1.6c0,0,0.9-3.8-0.6-5.7
				C128.2,252.6,124.7,253,121.3,253.9z"/>
			
				<linearGradient id="SVGID_60_" gradientUnits="userSpaceOnUse" x1="185.85" y1="157.83" x2="185.85" y2="161.02" gradientTransform="matrix(1 0 0 -1 -65.6 396)">
				<stop  offset="2.000000e-02" style="stop-color:#FF8359"/>
				<stop  offset="1" style="stop-color:#FF8B7C"/>
			</linearGradient>
			<path class="st67" d="M112.6,237c0,0,5.7-0.4,15.3-2c-4.1,1.5-8.3,2.6-12.6,3.2C115.3,238.2,113,237.9,112.6,237z"/>
			
				<linearGradient id="SVGID_61_" gradientUnits="userSpaceOnUse" x1="189.9" y1="150.51" x2="189.9" y2="153.54" gradientTransform="matrix(1 0 0 -1 -65.6 396)">
				<stop  offset="2.000000e-02" style="stop-color:#FF8359"/>
				<stop  offset="1" style="stop-color:#FF8B7C"/>
			</linearGradient>
			<path class="st68" d="M116.9,244.6c5-0.1,10-0.8,14.8-2.1c-1,0.5-2,1-3.1,1.4l-11,1.6L116.9,244.6z"/>
			
				<linearGradient id="SVGID_62_" gradientUnits="userSpaceOnUse" x1="380.15" y1="165.02" x2="380.15" y2="169.63" gradientTransform="matrix(1 0 0 -1 -65.6 396)">
				<stop  offset="2.000000e-02" style="stop-color:#FF8359"/>
				<stop  offset="1" style="stop-color:#FF8B7C"/>
			</linearGradient>
			<path class="st69" d="M314.9,226.4c0,0,2.7,1.4,3.2,3.6l-6.9,1l-0.2-3.8L314.9,226.4z"/>
			
				<linearGradient id="SVGID_63_" gradientUnits="userSpaceOnUse" x1="363.23" y1="180.5286" x2="384.26" y2="180.5286" gradientTransform="matrix(1 0 0 -1 -65.6 396)">
				<stop  offset="2.000000e-02" style="stop-color:#FFAE78"/>
				<stop  offset="1" style="stop-color:#FF957C"/>
			</linearGradient>
			<path class="st70" d="M304.1,208.4c0,0,9.3-4.7,13.4-5.4c0,0,2,4,0.8,7.9l-3.3,1.6c0,0,0.5,4-0.4,5.7c0.7,2.7,0.9,5.5,0.3,8.2
				c0,0-3.8,2.1-12.6,1.4c0,0-2.4-1.4-1.6-5.4c0,0-2,0.1-2.5-0.4s-0.8-4.2,0.1-5.2s6.4-2.6,6.4-2.6S302.7,210.7,304.1,208.4z"/>
			
				<linearGradient id="SVGID_64_" gradientUnits="userSpaceOnUse" x1="373.35" y1="162.3" x2="384.494" y2="162.3" gradientTransform="matrix(1 0 0 -1 -65.6 396)">
				<stop  offset="2.000000e-02" style="stop-color:#FFAE78"/>
				<stop  offset="1" style="stop-color:#FF957C"/>
			</linearGradient>
			<path class="st71" d="M308.2,232.2c-0.9,0.5-0.2,3.7,0.8,4.5s5.8,1.2,9.7-0.4c0.4-2.1,0.2-4.3-0.6-6.3
				C318.1,230,312.2,230,308.2,232.2z"/>
			
				<linearGradient id="SVGID_65_" gradientUnits="userSpaceOnUse" x1="375.05" y1="181.79" x2="375.05" y2="183.67" gradientTransform="matrix(1 0 0 -1 -65.6 396)">
				<stop  offset="2.000000e-02" style="stop-color:#FF8359"/>
				<stop  offset="1" style="stop-color:#FF8B7C"/>
			</linearGradient>
			<path class="st72" d="M303.9,212.3c0,0,6.4,1.1,11.1,0.2l-10.3,1.7C304.3,213.6,304.1,213,303.9,212.3z"/>
			
				<linearGradient id="SVGID_66_" gradientUnits="userSpaceOnUse" x1="372.1" y1="173.31" x2="372.1" y2="176.82" gradientTransform="matrix(1 0 0 -1 -65.6 396)">
				<stop  offset="2.000000e-02" style="stop-color:#FF8359"/>
				<stop  offset="1" style="stop-color:#FF8B7C"/>
			</linearGradient>
			<path class="st73" d="M298.2,222c0,0,11.2-0.5,16.6-2.8c0,0-3.9,3.1-14.1,3.5C299.8,222.6,299,222.4,298.2,222z"/>
			
				<linearGradient id="SVGID_67_" gradientUnits="userSpaceOnUse" x1="320.01" y1="242.2" x2="320.01" y2="286.9" gradientTransform="matrix(1 0 0 -1 -65.6 396)">
				<stop  offset="1.000000e-02" style="stop-color:#BE6888"/>
				<stop  offset="1" style="stop-color:#8E81F4"/>
			</linearGradient>
			<path class="st74" d="M260.3,114.1l-2.5-1.5c0,0-5.2,10.3-5.2,16.8c0,3.5,1.5,12.9,2.9,20.9l-1.8,3.5c0,0-6.6-21.5-4.9-29.1
				s9.9-15.6,9.9-15.6C260.3,110,260.3,114.1,260.3,114.1z"/>
			
				<linearGradient id="SVGID_68_" gradientUnits="userSpaceOnUse" x1="294.9196" y1="222.3656" x2="226.0996" y2="217.6156" gradientTransform="matrix(1 0 0 -1 -65.6 396)">
				<stop  offset="0" style="stop-color:#000000"/>
				<stop  offset="0.1" style="stop-color:#050304"/>
				<stop  offset="0.23" style="stop-color:#130C10"/>
				<stop  offset="0.36" style="stop-color:#2B1B23"/>
				<stop  offset="0.5" style="stop-color:#4C2F3F"/>
				<stop  offset="0.65" style="stop-color:#774A62"/>
				<stop  offset="0.8" style="stop-color:#AB6B8D"/>
				<stop  offset="0.95" style="stop-color:#E890BF"/>
				<stop  offset="1" style="stop-color:#FF9FD2"/>
			</linearGradient>
			<polygon class="st75" points="215.1,174.4 166.8,180 164.2,178.3 211.7,172.8 			"/>
			
				<linearGradient id="SVGID_69_" gradientUnits="userSpaceOnUse" x1="357.6599" y1="229.5708" x2="288.8399" y2="224.8108" gradientTransform="matrix(1 0 0 -1 -65.6 396)">
				<stop  offset="0" style="stop-color:#000000"/>
				<stop  offset="0.1" style="stop-color:#050304"/>
				<stop  offset="0.23" style="stop-color:#130C10"/>
				<stop  offset="0.36" style="stop-color:#2B1B23"/>
				<stop  offset="0.5" style="stop-color:#4C2F3F"/>
				<stop  offset="0.65" style="stop-color:#774A62"/>
				<stop  offset="0.8" style="stop-color:#AB6B8D"/>
				<stop  offset="0.95" style="stop-color:#E890BF"/>
				<stop  offset="1" style="stop-color:#FF9FD2"/>
			</linearGradient>
			<polygon class="st76" points="277.8,167.2 229.6,172.8 227,171.1 274.4,165.6 			"/>
			<text transform="matrix(0.9934 -0.1149 0.1149 0.9934 152.8 281.4)" class="st0 st77 st78">Hairspeak</text>
			<text transform="matrix(0.9934 -0.1149 0.1149 0.9934 154.2367 293.8171)" class="st0 st77 st79">membership</text>
		</g>
	</g>
</g>
</svg>
