<svg xmlns="http://www.w3.org/2000/svg" viewBox="0 0 29.8 29.8"><defs><style>.a1d216b5-4803-4a5d-a779-10d96a9f1485{fill:#333;}</style></defs><g id="a87c1411-a226-466c-b093-0bfa91528977" data-name="Layer 2"><g id="b94adb73-44bc-4892-b710-3f2e69fc1142" data-name="Layer 1"><path class="a1d216b5-4803-4a5d-a779-10d96a9f1485" d="M20.3,15.8a1.1,1.1,0,0,0,.4-.9,1.3,1.3,0,0,0-.4-1L13.1,6.7a1.3,1.3,0,0,0-1.9,1.9l6.3,6.3-6.3,6.2a1.8,1.8,0,0,0-.4,1,2.1,2.1,0,0,0,.4,1,1.4,1.4,0,0,0,1.9,0Z"/><path class="a1d216b5-4803-4a5d-a779-10d96a9f1485" d="M29.8,14.9A14.9,14.9,0,1,0,14.9,29.8,14.9,14.9,0,0,0,29.8,14.9Zm-27.1,0A12.2,12.2,0,1,1,14.9,27.1,12.2,12.2,0,0,1,2.7,14.9Z"/></g></g></svg>