<svg id="a266cd92-7d6f-4428-9917-f5c1eedf6069" data-name="Layer 1" xmlns="http://www.w3.org/2000/svg" viewBox="0 0 39.9 39.9"><defs><style>.fee2a1a6-d7cd-46a6-97f1-9d8e41cd1809{fill:#f2f2f2;}</style></defs><path class="fee2a1a6-d7cd-46a6-97f1-9d8e41cd1809" d="M33.9,6A19.9,19.9,0,0,0,6,6,20,20,0,0,0,.3,20,19.7,19.7,0,1,0,33.9,6Zm-5.6,9.7A12.3,12.3,0,0,1,9.5,26.6a9.2,9.2,0,0,0,6.4-1.8,4.6,4.6,0,0,1-4.1-3,4.4,4.4,0,0,0,2-.1,4.4,4.4,0,0,1-3.5-4.3,3.6,3.6,0,0,0,2,.6,4.4,4.4,0,0,1-1.4-5.8,12.1,12.1,0,0,0,8.9,4.5,4.3,4.3,0,0,1,7.3-3.9,9.4,9.4,0,0,0,2.8-1A3.9,3.9,0,0,1,28,14.1a10.2,10.2,0,0,0,2.5-.6A9.2,9.2,0,0,1,28.3,15.7Z"/></svg>