<?xml version="1.0" encoding="utf-8"?>
<!-- Generator: Adobe Illustrator 21.0.0, SVG Export Plug-In . SVG Version: 6.00 Build 0)  -->
<svg version="1.1" id="Layer_1" xmlns="http://www.w3.org/2000/svg" xmlns:xlink="http://www.w3.org/1999/xlink" x="0px" y="0px"
	 viewBox="0 0 32 32" style="enable-background:new 0 0 32 32;" xml:space="preserve">
<path d="M16.2,4C16.2,4,16.2,4,16.2,4C16.2,4,16.2,4,16.2,4c-0.1,0-0.1,0-0.2,0L5.4,8.6C5.1,8.6,5,8.8,5,9.1v13.8C5,23,5,23,5,23.1
	c0,0,0,0,0,0c0,0,0,0,0,0c0,0.1,0.1,0.2,0.2,0.2l10.7,4.6C16,28,16.1,28,16.2,28c0.1,0,0.2,0,0.2-0.1l10.7-4.6
	c0.2-0.1,0.3-0.2,0.3-0.4c0,0,0,0,0,0c0,0,0,0,0,0c0,0,0,0,0,0c0,0,0,0,0,0V9.1c0-0.2-0.2-0.4-0.4-0.5L16.4,4.1c0,0,0,0,0,0
	c0,0,0,0,0,0c0,0,0,0,0,0c0,0,0,0,0,0C16.3,4,16.3,4,16.2,4C16.3,4,16.3,4,16.2,4C16.2,4,16.2,4,16.2,4C16.2,4,16.2,4,16.2,4z
	 M16.2,5l2.3,1L8.9,10c0,0,0,0,0,0l-2.3-1L16.2,5L16.2,5z M19.6,6.4l2.7,1.2l-9.8,4.2c-0.2,0.1-0.3,0.3-0.3,0.5c0,0,0,0,0,0.1v4.9
	l-1-1.5c-0.1-0.2-0.4-0.3-0.6-0.2l-1.2,0.6v-5.4C9.6,10.7,19.6,6.4,19.6,6.4z M23.5,8.1l2.3,1l-9.6,4.1l-2.3-1L23.5,8.1
	C23.5,8.1,23.5,8.1,23.5,8.1L23.5,8.1z M5.9,9.8L8.6,11v6c0,0.3,0.2,0.5,0.5,0.5c0.1,0,0.1,0,0.2,0l1.5-0.7l1.6,2.4
	c0.1,0.1,0.1,0.2,0.2,0.2c0,0,0,0,0,0c0,0,0,0,0,0c0,0,0.1,0,0.1,0c0,0,0,0,0,0c0,0,0,0,0,0c0,0,0,0,0,0c0,0,0,0,0,0c0,0,0,0,0,0
	c0.2-0.1,0.3-0.3,0.3-0.5v-5.8l2.5,1.1v12.8l-9.9-4.2C5.9,22.6,5.9,9.8,5.9,9.8z M26.5,9.8v12.8l-9.9,4.2V14L26.5,9.8z M20.7,20.4
	C20.7,20.4,20.7,20.4,20.7,20.4c-0.1,0-0.1,0-0.2,0l-2.7,1.1c-0.2,0.1-0.3,0.4-0.2,0.6c0.1,0.2,0.4,0.3,0.6,0.2l2.7-1.1
	c0.2-0.1,0.4-0.4,0.3-0.6C21.1,20.5,20.9,20.4,20.7,20.4z M23.4,21.1c-0.1,0-0.1,0-0.2,0l-2.7,1.1l-2.7,1.2
	c-0.2,0.1-0.3,0.4-0.2,0.6s0.4,0.3,0.6,0.2l2.7-1.2l2.7-1.2c0.2-0.1,0.3-0.4,0.2-0.6C23.8,21.2,23.6,21.1,23.4,21.1z"/>
</svg>
