<?xml version="1.0" encoding="utf-8"?>
<!-- Generator: Adobe Illustrator 21.0.0, SVG Export Plug-In . SVG Version: 6.00 Build 0)  -->
<svg version="1.1" id="Layer_1" xmlns="http://www.w3.org/2000/svg" xmlns:xlink="http://www.w3.org/1999/xlink" x="0px" y="0px"
	 viewBox="0 0 32 32" style="enable-background:new 0 0 32 32;" xml:space="preserve">
<path d="M26.3,15.7h-0.1v-3.3c0-1-0.8-1.9-1.7-2V9.6c0-1.1-0.9-2-2-2h-0.9L21,6.3C21,6.1,20.8,6,20.6,6.1L16,7.6H6.6
	c-1,0-1.7,0.8-1.7,1.7v14.5c0,1.1,0.9,2,2,2h17.3c1.1,0,2-0.9,2-2v-3.3h0.1c0.5,0,0.8-0.4,0.8-0.8v-3.2C27.2,16,26.8,15.7,26.3,15.7
	z M21.8,8.3h0.6c0.7,0,1.3,0.6,1.3,1.3v0.7h-1.2l-0.1-0.2L21.8,8.3z M20.7,7.6l0.6,1.6l0.4,1.2h-12l10.7-3.4
	C20.5,6.9,20.7,7.6,20.7,7.6z M6.6,8.3h7.2L9.2,9.8l-1.8,0.6H6.6c-0.6,0-1-0.5-1-1C5.6,8.8,6,8.3,6.6,8.3z M25.5,23.9
	c0,0.7-0.6,1.3-1.3,1.3H6.9c-0.7,0-1.3-0.6-1.3-1.3V10.7c0,0,0,0,0,0c0.1,0,0.1,0.1,0.2,0.1c0,0,0,0,0,0c0.1,0,0.1,0.1,0.2,0.1
	c0,0,0,0,0,0c0.1,0,0.2,0,0.2,0.1c0,0,0,0,0.1,0c0.1,0,0.2,0,0.2,0h17.6c0.7,0,1.3,0.6,1.3,1.3v3.3h-2.4c-1.1,0-2,0.9-2,2v0.8
	c0,1.1,0.9,2,2,2h2.4V23.9z M26.4,19.7c0,0.1-0.1,0.1-0.1,0.1h-3.2c-0.7,0-1.3-0.6-1.3-1.3v-0.8c0-0.7,0.6-1.3,1.3-1.3h3.2
	c0.1,0,0.1,0.1,0.1,0.1V19.7z"/>
<path d="M22.9,16.9c-0.5,0-0.9,0.4-0.9,0.9c0,0.5,0.4,0.9,0.9,0.9c0.5,0,0.9-0.4,0.9-0.9C23.8,17.3,23.4,16.9,22.9,16.9z M22.9,18.1
	c-0.2,0-0.3-0.1-0.3-0.3c0-0.2,0.1-0.3,0.3-0.3c0.1,0,0.3,0.1,0.3,0.3C23.2,18,23.1,18.1,22.9,18.1z"/>
</svg>
