<svg id="a6382fe9-1731-4625-9dc5-d3c54154e477" data-name="Layer 1" xmlns="http://www.w3.org/2000/svg" viewBox="0 0 384 384"><defs><style>.e292a918-a7f9-43f4-88a9-57557da0e732{fill:#717171;}</style></defs><path class="e292a918-a7f9-43f4-88a9-57557da0e732" d="M260.1,340.2c-5.5,9.2-11,18-16.3,26.8-1.6,2.7-3.5,5.1-7,4.6s-4.6-2.9-5.6-5.7c-10.6-29.1-21.1-58.1-31.7-87.1-.4-1.2-.9-2.3-1.2-3.2H185.7c-1.5,4.2-3.2,8.7-4.9,13.2Q167,327.1,153,365.4a10.4,10.4,0,0,0-.4,1c-.8,2.9-2.5,5-5.6,5.3s-5-1.7-6.5-4.2l-14.4-23.7-2.2-3.6-29.6,10c-2.9,1-5.8,1.8-8.3-.8s-1.8-5.3-.7-8.3c10.6-28.9,21-57.8,31.6-86.7,1-2.6,1-4.5-.7-6.8a46.9,46.9,0,0,1-4.4-7.9A30.7,30.7,0,0,0,95.6,224l-1.7-.8c-14.5-6.8-20.6-16.2-19.3-32.1.8-10.9-1.6-20.1-8-29.1-8.6-11.9-8.2-24.6.4-36.5a39.1,39.1,0,0,0,7.6-27.3c-1.4-17,4.4-26.3,20-33.4a34.7,34.7,0,0,0,18.2-18.3c6.8-15.1,16.3-21.1,32.9-19.8,10.5.8,19.3-1.8,28-7.7,13.4-9,23.6-8.9,37.1.3,8.4,5.7,16.9,8.2,27,7.4,17.1-1.3,26.5,4.5,33.5,20a35,35,0,0,0,18.3,18.2c15.1,6.8,21.1,16.3,19.9,32.8a39.5,39.5,0,0,0,7.7,28c8.7,12.1,8.7,24.9,0,36.9-6.3,8.5-8.5,17.5-7.7,28,1.2,16.5-4.8,25.9-19.9,32.8-8.1,3.7-14.3,9-17.8,17.3a7.8,7.8,0,0,1-1.2,2.2c-4.7,5.5-4,10.9-1.5,17.4,10.2,26.8,19.7,53.8,29.6,80.7,1.1,2.9,1.9,5.8-.6,8.3s-5.3,1.9-8.3.9Zm37.2-237.3c1.1-18.3-.4-21.2-15.4-28.4a44.3,44.3,0,0,1-21-21.9c-5.6-12.2-10.1-14.7-23.4-14a79.6,79.6,0,0,1-13.8-.4c-7-.8-12.7-4.6-18.5-8.4-10.8-7-15.6-7.3-25-.7S158.1,39.8,145,38.6c-11.6-1-16.7,2.3-21.4,12.9A45.3,45.3,0,0,1,99.4,75.8c-10.8,4.8-13.6,9.8-13,21.7a7.6,7.6,0,0,0,.1,1.5c1.4,12-2.1,22.4-9,32.3s-6.7,15.1-.1,25.7c.9,1.5,2,2.9,2.9,4.3,4,6.4,6.5,13.2,6.4,20.8-.1,3.6-.1,7.3-.4,10.9-.6,8.8,3.4,14.7,11.1,18.6l3,1.4c10.7,4.6,18.1,12.4,22.9,23s9.9,14.7,22.5,13.6,23.8,1.7,34,9.5c7.8,6,16.2,6.2,24.1.2,10.5-7.9,22-10.9,35.1-9.7s16.7-2.2,21.4-12.9a45.5,45.5,0,0,1,24.2-24.2c10.6-4.7,13.5-9.7,13-21.4a7.6,7.6,0,0,0-.1-1.5c-1.4-12.1,2-22.7,9-32.6s6.7-15.1.1-25.7c-.6-1-1.3-1.9-1.9-2.8C299,120.3,296.4,111.3,297.3,102.9ZM145.1,352l29.8-81.8c-7.2-5.2-14.4-9.6-23.5-8.8s-15.6.8-23.5-2.3c-9.2,25.4-18.4,50.5-27.8,76.5l22.6-7.6c5.2-1.8,7.1-1.2,9.9,3.5C136.7,338.1,140.7,344.6,145.1,352Zm93.8-.2,2.2-3.4,10.5-17.2c2.6-4.3,4.6-4.9,9.4-3.4l3.5,1.2,19.4,6.5c-9.4-25.9-18.6-51-27.8-76.4-7.9,3.2-15.9,2.8-23.9,2.3s-16.1,3.8-23,8.9C219.1,297.4,228.8,324.3,238.9,351.8Z"/><path class="e292a918-a7f9-43f4-88a9-57557da0e732" d="M191.7,240c-53.1-.2-95.7-43.4-95.5-96.7s43.5-95.2,96.1-95A96.1,96.1,0,0,1,287.9,145C287.6,197.4,244.4,240.1,191.7,240Zm-83.5-95.9c-.1,46,37.5,83.8,83.3,83.9a84,84,0,0,0,84.4-84.1c0-45.9-37.7-83.6-83.6-83.6A83.8,83.8,0,0,0,108.2,144.1Z"/><path class="e292a918-a7f9-43f4-88a9-57557da0e732" d="M254.7,126.6a27.8,27.8,0,0,1-3.1,4.3c-7.3,7.3-14.7,14.6-22.3,21.7a6.3,6.3,0,0,0-2,6.2c1.9,10.4,3.8,20.8,5.3,31.3.3,2.1-.6,5.3-2.2,6.5s-4.9,1.2-6.7.3c-9.7-4.7-19.1-9.8-28.5-14.9a5.8,5.8,0,0,0-6.2-.1c-9.1,5-18.3,9.7-27.4,14.5-2.6,1.4-5.3,2.5-8,.5s-2.8-4.6-2.2-7.7c1.8-10.1,3.4-20.1,5.3-30.2.4-2.7,0-4.6-2.1-6.6-7.6-7-14.9-14.4-22.3-21.6-2.1-2-3.7-4.1-2.6-7.2s3.4-3.9,6.4-4.3l30.7-4.4a6.4,6.4,0,0,0,5.5-4.1c4.2-9,8.8-17.9,13.1-26.8,1.4-2.8,3-5.4,6.5-5.4s5.3,2.6,6.8,5.5c4.3,9,8.9,17.8,13.1,26.9,1.3,2.9,3.3,3.6,6,3.9l31.1,4.5C252.5,120,254.8,122.5,254.7,126.6Zm-35.6,54.5c-1.5-8.8-2.7-16.7-4.3-24.7a8.9,8.9,0,0,1,3-9.3c5.2-4.7,10.1-9.7,15.1-14.6l2.6-2.9c-7.9-1.2-15.2-2.6-22.4-3.2-5.6-.5-8.8-2.8-11-7.9-2.9-6.8-6.5-13.3-10-20.5l-2.1,3.8c-3.1,6.3-6.3,12.5-9.2,18.8a8.5,8.5,0,0,1-7.4,5.4l-12.6,1.7-11.2,1.8c5.5,5.9,10.8,11.8,16.5,17.4,2.9,2.9,3.9,5.7,3.1,9.7-1.6,7.9-2.8,15.9-4.2,24.5,7.3-3.9,14.3-7.2,20.8-11.1,4.5-2.6,8.2-2.5,12.5.1C204.9,173.9,211.7,177.2,219.1,181.1Z"/></svg>