<svg id="fe734c7f-8b20-41c5-87af-ed32f68459d5" data-name="Layer 1" xmlns="http://www.w3.org/2000/svg" viewBox="0 0 384 384"><defs><style>.b7422752-598f-4592-8253-6c9edd10224e{fill:#717171;}</style></defs><path class="b7422752-598f-4592-8253-6c9edd10224e" d="M206.5,18.2l16.3.6c41.5,1.8,72.6,20.9,93.6,56.7.6.9,1,2,1.7,3.3l-8.7,4.3c-3.6-5.4-6.7-11-10.6-15.9C279.2,42.6,253.6,29.8,222.2,29c-9.6-.2-19.2-.1-28.9,0a8.3,8.3,0,0,0-4.5,1.7c-9.1,6.9-8.9,21.2.3,27.9a9.5,9.5,0,0,0,5.6,1.3c23.5-1.4,45.8,2.5,66,15.2,23.9,14.9,37.8,37,44.2,63.9,2.1,9.3,2.6,19,3.8,28.5.2,1.3.2,2.7.3,4.2h10V111.2l9.3-1.6c.4,3.8,1,7.3,1.1,10.7.1,25.4.5,50.8,0,76.1-.3,14.6-7.4,26.4-19.2,35.1a8.6,8.6,0,0,0-3.4,5.4c-2.6,11.1-5.5,22.1-8.6,33.1-1,3.7-.4,6.5,3.1,8.4,7.6,4.3,15.3,8.4,22.9,12.6l4,2.3-3.4,2c-7.4,4.1-15,8-22.3,12.3a13.5,13.5,0,0,0-4.6,4.6c-4.2,7.3-8.2,14.8-12.3,22.3l-1.9,3.2L271,314.6c-5.7,5.1-11.4,10.1-16.8,15.2-.8.7-.8,2.3-.8,3.4-.1,10.8-.1,21.5-.1,32.5h-10v-28l-3.5,1.9a125.6,125.6,0,0,1-35.2,14.9,10.2,10.2,0,0,1-4.6.1,127.4,127.4,0,0,1-35.5-14.9l-3.1-1.8v27.9H151.1v-3.5c0-9.8.1-19.5-.1-29.2a5.8,5.8,0,0,0-1.8-4c-29.2-24.3-46.4-55.3-52-92.8a7,7,0,0,0-2.6-4.3c-12.9-9.8-19.8-22.7-19.9-39-.1-21.7-.3-43.4.1-65.2.3-16.2,2.4-32.3,10-47a3.5,3.5,0,0,0,.3-1.2L55.7,62.8c9-5,17.7-9.6,26.2-14.5a10.4,10.4,0,0,0,3.9-3.9c4.4-7.8,8.6-15.6,12.9-23.5a22.1,22.1,0,0,0,1.2-2.7h.6c4.5,8.4,9,16.8,13.5,25.4a11.3,11.3,0,0,0,1.5-.9c17.3-14.5,37.6-21.5,59.9-23.2l18.2-1.3Zm84.1,242.9c.9-2.5,1.6-4.4,2.2-6.3a139,139,0,0,0,5.3-36.2c.4-16.3.3-32.6.2-48.9a11.9,11.9,0,0,0-1.1-4.5q-19.9-41.1-62.3-58.1a103.7,103.7,0,0,0-28.4-7c-1.9,8.7-4.9,16.8-10.6,23.8l-7-5.3c2.5-6.6,5.5-12.5,6.9-18.8s1.2-13.1,1.7-19.7h9.7v9.7c35.9,4.7,64.7,21.4,86.9,49.7a51.7,51.7,0,0,0-2-8.2c-8-24.2-22.3-42.8-46.5-52.6a114.7,114.7,0,0,0-62.9-7c-19,3-36.3,9.9-49.8,24.1-16.3,17.2-23.8,38.5-26.4,61.9,1.8-1.4,3.3-3.1,4.9-4.6,7.9-7.7,16.8-13.8,27.9-15.7a89.5,89.5,0,0,1,10.1-1.2c11.8-.7,22.9-3.3,32-11.6l6.8,7.7-3.3,2.8c-9.3,7.4-20.1,10.2-31.6,10.7-14.8.7-27.3,5.7-37.2,17-2.7,3.1-6,5.8-8.8,8.9a8.7,8.7,0,0,0-2.1,4.7c-1.4,20.8-.8,41.6,2.9,62.2s10.6,40.5,22.7,58c16.7,24,39.8,38.7,67.4,47a13.1,13.1,0,0,0,8.3-.1,127.9,127.9,0,0,0,55.4-34.7c.6-.7,1-1.4,1.6-2.2l-24.3-13.3c8.7-4.8,16.7-9.3,24.8-13.5a13.5,13.5,0,0,0,6.2-6.3c4.3-8.1,8.9-16.2,13.5-24.8C286.1,252.9,288.2,256.7,290.6,261.1ZM84.2,171.6H95c0-1.1.1-1.9.1-2.6a126.7,126.7,0,0,1,8.2-43.5c11.7-30.7,32.3-52.1,64.6-61.3,3.2-.9,6.4-1.6,9.7-2.4-7.3-12.8-7.5-17.4-1.8-32.5a97.9,97.9,0,0,0-53.6,21.1l22.6,12.4L135,68.2c-6.3,3.5-13.7,5.9-18.6,10.8S109,91.4,105.5,97.7l-5.3,9.7L92,92.5H90.9c-1.5,6.1-4.1,12.3-4.4,18.5C85.3,131.1,84.9,151.2,84.2,171.6ZM260.7,292.5l.3,1.1c3.9,2.1,7.8,4,11.5,6.4a15.5,15.5,0,0,1,4.6,4.6c2.3,3.7,4.3,7.7,6.7,12,2.4-4.4,4.3-8.4,6.7-12.1a14.1,14.1,0,0,1,4.6-4.5c3.7-2.4,7.6-4.3,12-6.7-4.4-2.4-8.3-4.4-12-6.7a15.5,15.5,0,0,1-4.6-4.6c-2.4-3.8-4.4-7.8-6.5-11.7l-.9-.2C279.7,281.6,272.3,289.1,260.7,292.5ZM123.5,62.8c-3.5-1.9-6.4-3.8-9.6-5.2a16.2,16.2,0,0,1-8.4-8.3,95.6,95.6,0,0,0-5.3-9.8c-2.4,4.3-4.3,8.3-6.6,12A15.5,15.5,0,0,1,89,56.1c-3.8,2.4-7.7,4.3-12.1,6.7,4.4,2.4,8.2,4.3,11.8,6.6a16,16,0,0,1,4.9,4.8c2.3,3.7,4.3,7.6,6.6,11.9,2-3.6,4-6.7,5.5-10.1a15.4,15.4,0,0,1,7.6-7.7C116.7,66.8,119.8,64.8,123.5,62.8ZM309.3,219.2c10.6-10.8,10.8-23.6,10.1-36.9H309.3Zm-214.5,0V182.3H85.1C84.4,195.5,84.5,208.3,94.8,219.2Z"/><path class="b7422752-598f-4592-8253-6c9edd10224e" d="M355,253.2v10h-9.8v10.2H335v-9.9H324.9V253.3h9.8V243.2H345v10Z"/><path class="b7422752-598f-4592-8253-6c9edd10224e" d="M29,110.9V100.8h9.9V90.5a78.7,78.7,0,0,1,8.5.1c.7,0,1.7,1.3,1.7,2.1a67.5,67.5,0,0,1,.1,7.9h10v10.2H49.3v10H39v-9.9Z"/><path class="b7422752-598f-4592-8253-6c9edd10224e" d="M196.4,49.3V39.6h9.9v9.7Z"/><path class="b7422752-598f-4592-8253-6c9edd10224e" d="M325.9,98.8l-9.7,2.7c-1.1-3-2-5.8-3.1-9.1l9.4-3.8Z"/><path class="b7422752-598f-4592-8253-6c9edd10224e" d="M186.8,161.8v10H183c-9.6,0-19.2.2-28.8-.1-11.2-.3-21.5,1.5-30.1,9.6l-6.9-7.4c7.8-7.3,16.8-11.6,27.2-12C158.4,161.4,172.4,161.8,186.8,161.8Z"/><path class="b7422752-598f-4592-8253-6c9edd10224e" d="M218.1,171.8v-9.7c.3-.2.5-.4.7-.4,14.8.1,29.7-.1,44.5.7,9.1.5,16.9,5,23.9,11.5l-6.9,7.4c-8.4-7.8-18.4-9.8-29.3-9.6S229.3,171.8,218.1,171.8Z"/><path class="b7422752-598f-4592-8253-6c9edd10224e" d="M168.8,277.5c2-2.7,3.8-5.3,5.5-7.7,18.6,11.1,37,10.5,55.8,0l5.4,7.6C220.9,291.5,187.2,293.4,168.8,277.5Z"/><path class="b7422752-598f-4592-8253-6c9edd10224e" d="M128.4,204.1l9-3.8c4,7.9,10.4,12.2,19.3,12.1s15-4.5,18.7-12.8l9.1,3.6c-3.2,10.7-14.3,18.7-26.7,19.4A29.9,29.9,0,0,1,128.4,204.1Z"/><path class="b7422752-598f-4592-8253-6c9edd10224e" d="M219.6,204.1l8.8-3.8c12,16.4,27.2,16.5,38.1,0l8.7,3.8c-2.8,10-14.2,17.9-26.3,18.5S224.1,215.8,219.6,204.1Z"/><path class="b7422752-598f-4592-8253-6c9edd10224e" d="M145.9,111v9.6H136V111Z"/><path class="b7422752-598f-4592-8253-6c9edd10224e" d="M166.1,120.7h-9.7v-9.8h9.7Z"/></svg>