<svg id="a460563a-a46c-480d-8f17-c1a8ada68f16" data-name="Layer 1" xmlns="http://www.w3.org/2000/svg" viewBox="0 0 343 314.5"><defs><style>.b5da2fff-b22f-4f0e-994e-32fdf1fb461c{fill:#afee8f;}.a9e168c9-8069-46b6-929d-da71da3f2ceb{fill:#019045;}</style></defs><path class="b5da2fff-b22f-4f0e-994e-32fdf1fb461c" d="M245.3,111.9a116.3,116.3,0,0,1,15.9,41.3c6.5,34.8.4,67.4-19.2,96.9s-48.5,49.5-84.4,56.2c-39.2,7.2-74.8-2-105.8-26.9-25.3-20.2-41-46.8-46.2-78.9C-.8,161.6,8.2,126.3,33.1,95.7,54,70,81.3,54.4,114,49.5c36.2-5.4,69.1,3.2,98.5,25.2l2.5,1.7-.7.8a844.5,844.5,0,0,0-76.8,86.9c-2.4,3.1-3.8,2.9-6.7.9L65.3,119c-2.1-1.5-3.4-1.7-5.3.3-6,6.3-12.3,12.4-18.5,18.5-1.5,1.4-1.6,2.4-.3,4,5.2,7,10.3,14.1,15.4,21.2,26.5,37.3,53.3,74.4,77.1,113.6.4.7.5,1.7,1.7,1.7l1.2-1.9q36.6-63,78.3-122.7C224.7,139.5,234.6,125.4,245.3,111.9Z"/><path class="a9e168c9-8069-46b6-929d-da71da3f2ceb" d="M245.3,111.9c-10.7,13.5-20.6,27.6-30.4,41.8q-41.6,59.7-78.3,122.7l-1.2,1.9c-1.2,0-1.3-1-1.7-1.7C109.9,237.4,83.1,200.3,56.6,163c-5.1-7.1-10.2-14.2-15.4-21.2-1.3-1.6-1.2-2.6.3-4,6.2-6.1,12.5-12.2,18.5-18.5,1.9-2,3.2-1.8,5.3-.3l65.5,46c2.9,2,4.3,2.2,6.7-.9a844.5,844.5,0,0,1,76.8-86.9l.7-.8c14.5-13.8,29.2-27.5,44.7-40.2,12.1-9.9,24.5-19.3,37.4-28a12.8,12.8,0,0,1,8-2.4c11.1.2,22.3.1,34.3.1L332,12.7c-29.8,27.5-55.6,58.5-80.3,90.5Z"/></svg>