<svg xmlns="http://www.w3.org/2000/svg" viewBox="0 0 255.9 69.9"><defs><style>.ad204c36-69bc-4934-9ff4-99752c70593a,.bfbf6f77-7c8b-4fdf-9641-90f25e0ec0e5{fill:#ec1c24;}.bfbf6f77-7c8b-4fdf-9641-90f25e0ec0e5{fill-rule:evenodd;}</style></defs><g id="a199c241-5b4c-4349-8d97-4457f6eb4160" data-name="Layer 2"><g id="ed6b4be8-6130-45c7-99b2-08245ea422d6" data-name="Layer 1"><path class="ad204c36-69bc-4934-9ff4-99752c70593a" d="M55.9,29.5a5.5,5.5,0,0,1-1,3.2A7.6,7.6,0,0,1,52,35.1a12.3,12.3,0,0,1-4.4.8,15.2,15.2,0,0,1-5.1-.8,8.2,8.2,0,0,1-3.2-2.6,6.7,6.7,0,0,1-1.2-3.9l2.8-.2a5,5,0,0,0,.9,2.6,4.6,4.6,0,0,0,2.3,1.7,7.4,7.4,0,0,0,3.4.7,9.4,9.4,0,0,0,3-.5,3.5,3.5,0,0,0,1.9-1.4,2.4,2.4,0,0,0,.7-1.8,2.8,2.8,0,0,0-.6-1.8,5.8,5.8,0,0,0-2.1-1.3l-4-1a17.8,17.8,0,0,1-4.3-1.4,5.4,5.4,0,0,1-2.4-2,5,5,0,0,1-.8-2.7,5.4,5.4,0,0,1,1-3,5.7,5.7,0,0,1,2.8-2.2,11.1,11.1,0,0,1,4.1-.8,11.5,11.5,0,0,1,4.4.8,6.4,6.4,0,0,1,3,2.3A6.5,6.5,0,0,1,55.3,20l-2.9.2a4.6,4.6,0,0,0-1.5-3.1,6.3,6.3,0,0,0-3.9-1,6.7,6.7,0,0,0-4,.9,2.9,2.9,0,0,0-1.2,2.3,2.7,2.7,0,0,0,.9,2c.5.5,2,1,4.4,1.5a27.9,27.9,0,0,1,5,1.4A6.8,6.8,0,0,1,55,26.4,5.4,5.4,0,0,1,55.9,29.5Z"/><polygon class="ad204c36-69bc-4934-9ff4-99752c70593a" points="34.1 13.9 34.1 35.5 31.1 35.5 31.1 25.4 19.5 25.4 19.5 35.5 16.6 35.5 16.6 13.9 19.5 13.9 19.5 22.8 31.1 22.8 31.1 13.9 34.1 13.9"/><path class="ad204c36-69bc-4934-9ff4-99752c70593a" d="M239,29.6l5.1,9.6h-6.6l-.9-2.1a17.2,17.2,0,0,0-.9-1.9l-2-4.1-.8-1.6,2.6-4.2,2-3.4h6.6l-3,4.4Q240.1,27.8,239,29.6Z"/><path class="ad204c36-69bc-4934-9ff4-99752c70593a" d="M233.3,16.1c-.3,3-.5,6.6-.7,11s-.3,8.4-.3,12.1h-6c.1-1.4.2-2.6.3-3.5s.1-2.8.2-4.6l.2-4c0-1.9.1-3.6.1-5.2s.1-3.9.1-5.8h6.1Z"/><path class="ad204c36-69bc-4934-9ff4-99752c70593a" d="M223.5,26.3c0,.6-.1,2-.2,4.2s-.3,5.1-.4,8.7h-6c.2-1.2.3-3.8.5-7.7l-.9.5-1.1.4-1.3.4-.8.5-.5.6a1.7,1.7,0,0,0-.1.7,1.3,1.3,0,0,0,.4,1,1.7,1.7,0,0,0,1.3.4h.7l1-.3a36.7,36.7,0,0,0-1.1,3.7,9.7,9.7,0,0,1-2.4.2,6.9,6.9,0,0,1-3.1-.5,4.6,4.6,0,0,1-2-1.9,6.5,6.5,0,0,1-.6-2.6,7.8,7.8,0,0,1,.2-1.6,5.5,5.5,0,0,1,.8-1.5,6.8,6.8,0,0,1,1.2-1.2,7.5,7.5,0,0,1,2-1,15.3,15.3,0,0,1,3.1-.8l1.4-.4.9-.3a1,1,0,0,0,.5-.4.5.5,0,0,0,.2-.4.6.6,0,0,0,.1-.4c0-.5-.1-.8-.5-1a2,2,0,0,0-1.4-.4,17.4,17.4,0,0,0-6.4,1.7c.2-1.2.4-1.9.4-2.3s.1-1.1.2-2a33.1,33.1,0,0,1,7.5-1.1,11.4,11.4,0,0,1,3.3.5,4.9,4.9,0,0,1,2.3,1.4A4.8,4.8,0,0,1,223.5,26.3Z"/><path class="ad204c36-69bc-4934-9ff4-99752c70593a" d="M205.5,31.2a16.2,16.2,0,0,0,.1-2.1,10.6,10.6,0,0,0-.4-3.1,6.3,6.3,0,0,0-1.6-2.5A6.1,6.1,0,0,0,201,22a11.4,11.4,0,0,0-3.3-.5,11.3,11.3,0,0,0-3.2.5,6.2,6.2,0,0,0-2.8,1.7,7.7,7.7,0,0,0-2,3.2,12.5,12.5,0,0,0-.8,4.2,10.3,10.3,0,0,0,.4,3,8.2,8.2,0,0,0,1.1,2.5,6.6,6.6,0,0,0,1.9,1.8,6.7,6.7,0,0,0,2.6,1,17.2,17.2,0,0,0,3.3.2h2.4a19.6,19.6,0,0,0,2.9-.5c.4-2.6.7-4.2.8-4.9l-3.2.9-2.2.3a4.6,4.6,0,0,1-2.9-.9,3.2,3.2,0,0,1-1.2-2.7,1.1,1.1,0,0,1,.1-.5Zm-10.3-3.6.3-.8.6-.7.8-.5h.8a2.4,2.4,0,0,1,1.2.3,1.5,1.5,0,0,1,.8.9,3.3,3.3,0,0,1,.3,1.5v.4h-5A2.5,2.5,0,0,1,195.2,27.6Z"/><path class="ad204c36-69bc-4934-9ff4-99752c70593a" d="M186.6,26.9a10.3,10.3,0,0,0-1.7-3.1A6.5,6.5,0,0,0,182,22a17.5,17.5,0,0,0-4-.5l-3.5.2a42.5,42.5,0,0,0-4.8.7c0,2.6-.1,5.2-.2,7.9s-.2,6-.4,9.9c-.2,2.3-.3,4.6-.5,6.9h6.1c0-1.1,0-2.7.1-4.9l.2-4.7,1.2.9,1.2.6,1.5.5h1.5a5.6,5.6,0,0,0,4.9-2.6,10.3,10.3,0,0,0,1.4-3,12.7,12.7,0,0,0,.4-3.4A15,15,0,0,0,186.6,26.9Zm-5.8,5.8a3.1,3.1,0,0,1-1.1,1.6,2.5,2.5,0,0,1-3,0,3.1,3.1,0,0,1-1.1-1.4,7.9,7.9,0,0,1-.4-2.3c0-.4.1-.8.1-1.3a4.5,4.5,0,0,1,.1-1.3c0-.3.1-.7.1-1.2a7.5,7.5,0,0,1,2.4-.4,2.8,2.8,0,0,1,2.5,1.1,4.7,4.7,0,0,1,.8,2.8A6.1,6.1,0,0,1,180.8,32.7Z"/><path class="ad204c36-69bc-4934-9ff4-99752c70593a" d="M166.3,32.9a5.9,5.9,0,0,1-.7,2.9,4.9,4.9,0,0,1-1.8,2.2,9.1,9.1,0,0,1-2.6,1.3,15.3,15.3,0,0,1-3,.3,31.6,31.6,0,0,1-6.2-.7c-.2-2.4-.3-4.4-.5-5.8a13.8,13.8,0,0,0,3.1,1.2l2.3.3a4.1,4.1,0,0,0,2.1-.4,1.4,1.4,0,0,0,.8-1.3c0-.2-.1-.4-.1-.6a1.6,1.6,0,0,1-.3-.6l-.6-.7-2.9-2.7a17.8,17.8,0,0,0-1.4-1.4,13.3,13.3,0,0,1-1.2-1.6,10.1,10.1,0,0,1-.7-1.5,8.8,8.8,0,0,1-.2-1.7,7.5,7.5,0,0,1,.3-2,16.2,16.2,0,0,1,1-1.8,6.1,6.1,0,0,1,1.7-1.5,10.9,10.9,0,0,1,2.3-.9l2.6-.2a22.4,22.4,0,0,1,5.5.7,15.5,15.5,0,0,1,.1,2.1c.1.6.2,1.8.3,3.4l-2.5-.9-2-.2a3.9,3.9,0,0,0-2,.5,1.4,1.4,0,0,0-.8,1.2,2.5,2.5,0,0,0,.2.7c0,.2.2.4.4.7l.9,1,1.7,1.5,1.1,1a4.7,4.7,0,0,1,1,1l1,1.2.7,1.2.3,1C166.2,32.1,166.3,32.5,166.3,32.9Z"/><path class="ad204c36-69bc-4934-9ff4-99752c70593a" d="M142.6,27.3a3.9,3.9,0,0,0-1.5-.2,3.8,3.8,0,0,0-1.6.3,4.2,4.2,0,0,0-1.2.8,5.3,5.3,0,0,0-.8,1.5,14.3,14.3,0,0,0-.4,2.9c-.1,1.3-.1,2.8-.1,4.4v2.2h-6l.4-7.5.2-4.3V21.9h5.8v2a5.7,5.7,0,0,1,1-1.1,2.7,2.7,0,0,1,.8-.7l1-.4,1.1-.2,1.2.2c.1,1.2.1,2.2.1,3Z"/><path class="ad204c36-69bc-4934-9ff4-99752c70593a" d="M118.5,26.3c0,.6-.1,2-.2,4.2s-.3,5.1-.3,8.7h-6c.1-1.2.3-3.8.4-7.7l-.9.5-1.1.4-1.3.4-.8.5a2.1,2.1,0,0,0-.4.6,1.9,1.9,0,0,0-.2.7,1.8,1.8,0,0,0,.4,1,1.7,1.7,0,0,0,1.3.4h.7l1-.3c-.3.8-.6,2.1-1,3.7a11,11,0,0,1-2.5.2,7.2,7.2,0,0,1-3.1-.5,4.4,4.4,0,0,1-1.9-1.9,5.4,5.4,0,0,1-.7-2.6,4.1,4.1,0,0,1,.3-1.6,5.1,5.1,0,0,1,.7-1.5,4.9,4.9,0,0,1,1.3-1.2,5.6,5.6,0,0,1,1.9-1,17.3,17.3,0,0,1,3.1-.8l1.4-.4,1-.3a.8.8,0,0,0,.4-.4l.3-.4v-.4a1.1,1.1,0,0,0-.4-1,2.1,2.1,0,0,0-1.4-.4,16.5,16.5,0,0,0-6.4,1.7,17.6,17.6,0,0,0,.3-2.3c.1-.5.2-1.1.3-2a33.1,33.1,0,0,1,7.4-1.1,11.4,11.4,0,0,1,3.3.5,4.5,4.5,0,0,1,2.3,1.4A4.8,4.8,0,0,1,118.5,26.3Z"/><path class="ad204c36-69bc-4934-9ff4-99752c70593a" d="M128.3,21.9c-.2,2.2-.3,4-.4,5.7s-.1,3.3-.1,5.1-.1,5.3-.1,6.5h-6.4c.1-1.4.2-2.5.3-3.4s.1-2,.2-3.4.1-2.9.1-4.6.1-3.6.2-5.9h6.2Z"/><path class="ad204c36-69bc-4934-9ff4-99752c70593a" d="M128.3,15.7v3c0,.3-.1.7-.1,1.1h-5.9c.1-1.3.1-2.4.1-3.2v-.9h6Z"/><path class="ad204c36-69bc-4934-9ff4-99752c70593a" d="M100,16.1c-.4,5.8-.6,10.1-.8,13s-.1,6.2-.1,10.1H92.3c.2-2.7.4-5.8.5-9.4H84.6l-.2,9.4H77.6l.6-9.2.3-6.8V16.1h6.7c-.2,3.3-.4,6.1-.5,8.6H93c.1-.9.1-2.2.2-3.7V16.1H100Z"/><path class="ad204c36-69bc-4934-9ff4-99752c70593a" d="M9.4,46.8H9.2a.4.4,0,0,1,.1.3h.2c.1-.1.1-.1.1-.2S9.6,46.8,9.4,46.8Zm19.5-.5h0c.1,0,.1,0,.1-.1Zm0,0h0c.1,0,.1,0,.1-.1Z"/><polygon points="148.8 49.5 147.5 49.5 147.5 51.5 148.8 51.5 148.8 51.5 148.8 51.5 148.8 49.5 148.8 49.5 148.8 49.5"/><polygon points="152.3 49.5 151 49.5 151 62.6 152.3 62.6 152.3 62.6 152.3 62.6 152.3 49.5 152.3 49.5 152.3 49.5"/><polygon points="148.8 52.7 147.5 52.7 147.5 62.6 148.8 62.6 148.8 62.6 148.8 62.6 148.8 52.7 148.8 52.7 148.8 52.7"/><polygon points="191.1 49.5 189.8 49.5 189.8 62.6 191.1 62.6 191.1 62.6 191.1 62.6 191.1 49.5 191.1 49.5 191.1 49.5"/><polygon points="115 49.5 108.3 49.5 108.3 62.6 109.5 62.6 109.5 62.6 109.5 62.6 109.5 55.3 115 55.3 115 55.3 115 55.3 115 54.1 109.5 54.1 109.5 50.7 115 50.7 115 50.7 115 50.7 115 49.5 115 49.5 115 49.5"/><polygon points="161.2 52.8 161.2 52.8 157.7 61 154.5 52.8 153 52.8 153 52.8 153 52.8 157 62.7 156.6 63.8 155.7 65.9 155.7 65.9 155.7 65.9 157 65.9 162.6 52.8 161.2 52.8 161.2 52.8"/><path d="M186.7,54.6a5.5,5.5,0,0,0-8.8.2,4.9,4.9,0,0,0-.9,3,5,5,0,0,0,5.3,5.1,4.6,4.6,0,0,0,2.3-.5,6.8,6.8,0,0,0,1.8-1.3v1.5h1.2V56.5A4.3,4.3,0,0,0,186.7,54.6Zm-1.5,6a3.9,3.9,0,0,1-2.8,1.2,4.3,4.3,0,0,1-2.4-.7,3.8,3.8,0,0,1-1.7-3.3,4.1,4.1,0,1,1,7,2.7Z"/><path d="M126.5,54.6a5.5,5.5,0,0,0-8.8.2,4.9,4.9,0,0,0-.9,3,5,5,0,0,0,5.3,5.1,6.2,6.2,0,0,0,2.6-.6,7.9,7.9,0,0,0,1.5-1.2v1.5h1.2V56.5A4.3,4.3,0,0,0,126.5,54.6Zm-1.4,5.9-.4.4a3.8,3.8,0,0,1-2.5.9,4.1,4.1,0,0,1-2.3-.6,4,4,0,0,1-1.8-3.4,3.9,3.9,0,0,1,.9-2.6,4,4,0,0,1,3.2-1.6,4.1,4.1,0,0,1,3.7,5.6A5.7,5.7,0,0,1,125.1,60.5Z"/><path d="M201.7,54a4.5,4.5,0,0,0-2.3-1.3,4,4,0,0,0-1.5-.3,5.3,5.3,0,0,0-5.3,5.3,5.1,5.1,0,0,0,2.3,4.3,5.4,5.4,0,0,0,3.1.9,5.3,5.3,0,0,0,3.8-1.6,5.1,5.1,0,0,0,1.4-2.6,3.7,3.7,0,0,0,.1-1.1A4.6,4.6,0,0,0,201.7,54Zm.2,4.6a6.4,6.4,0,0,0-.2.7h0l-.3.7-.5.6a4.1,4.1,0,0,1-7-2.9,3.9,3.9,0,0,1,3.9-4.1,4.6,4.6,0,0,1,2.7.8,4.3,4.3,0,0,1,1.5,3.3,2.2,2.2,0,0,1-.1.8Z"/><path d="M175.2,56.6a6.2,6.2,0,0,0-3.1-1.6c-1.2-.4-2.4-.9-2.4-2.3a2.8,2.8,0,0,1,.4-1.3,2.3,2.3,0,0,1,2-1c1.7,0,2.1,1.1,2.3,2.3h1.2a4.3,4.3,0,0,0-1.3-2.7,2.9,2.9,0,0,0-2.2-.7,3.4,3.4,0,0,0-3.7,3.5c0,1.9,1.4,2.6,2.9,3.2l1.1.5c1.1.4,2.2,1,2.2,2.4a3.2,3.2,0,0,1-.7,1.9,2.5,2.5,0,0,1-2,.8c-1.9,0-2.5-1.3-2.6-2.7h-1.2c.1,2.3,1.3,4,3.8,4a3.7,3.7,0,0,0,3.4-1.9,4.5,4.5,0,0,0,.6-2.4A3.2,3.2,0,0,0,175.2,56.6Z"/><path d="M141.3,52.6a4.2,4.2,0,0,0-3.3,1.3.1.1,0,0,0-.1.1l-.4.3a4.3,4.3,0,0,0-3.6-1.7l-1.9.2a4.3,4.3,0,0,0-1.3.9h-.2l-.3.4a5.6,5.6,0,0,0-.9,3.5v4.9h1.3V57.8a8.7,8.7,0,0,1,.1-1.8,2.9,2.9,0,0,1,3.1-2.3,3,3,0,0,1,2.4,1,4.3,4.3,0,0,1,.6,2.4v5.5H138V57.8a8.7,8.7,0,0,1,.1-1.8,2.8,2.8,0,0,1,3-2.3,2.7,2.7,0,0,1,2.2.8,4,4,0,0,1,.8,2.9v5.2h1.2V57.7h0a6.6,6.6,0,0,0-.8-3.6A3.5,3.5,0,0,0,141.3,52.6Z"/><path d="M213.5,57.5a9.1,9.1,0,0,0-.2-2.1c-.4-1.9-1.8-2.8-3.9-2.8a4.5,4.5,0,0,0-3.4,1.1h0a4.2,4.2,0,0,0-1.2,2.7v6.2H206V57.8c0-.8.1-1.4.1-1.8a2.9,2.9,0,0,1,3.1-2.3,3.3,3.3,0,0,1,2.1.6,3.6,3.6,0,0,1,1,2.8v5.5h1.2Z"/><path class="ad204c36-69bc-4934-9ff4-99752c70593a" d="M48.6,39.4a1.7,1.7,0,0,0-1.1.6,6,6,0,0,0-.9,1.5,7.4,7.4,0,0,0,1.6-1.1c.4-.4.6-.6.6-.8S48.8,39.4,48.6,39.4Zm-.6.8a1.8,1.8,0,0,1-.7.5,1,1,0,0,0,.4-.5,2.5,2.5,0,0,1,.8-.5ZM28.9,46.3h0c.1,0,.1,0,.1-.1Z"/><path class="ad204c36-69bc-4934-9ff4-99752c70593a" d="M48.6,39a2,2,0,0,0-1.5.9,6.2,6.2,0,0,0-1.4,1.8l-1.2.8v-.4a1.7,1.7,0,0,0-.6-1.4,2.1,2.1,0,0,0-1.6-.6,5.9,5.9,0,0,0-3.4,1.2,7.2,7.2,0,0,0-2.1,2.2,4.6,4.6,0,0,0-.8,2.4,3.1,3.1,0,0,0,1.4,2.7,1.9,1.9,0,0,0-.3,1,2.9,2.9,0,0,0,.2.9c.2.3.3.6.7.6a.3.3,0,0,0,.3-.3.4.4,0,0,0-.1-.3,1.8,1.8,0,0,1-.4-.9,1.9,1.9,0,0,1,.2-.7h1.3a7.9,7.9,0,0,0,5.2-2,4,4,0,0,0,1.2-1.5,18.6,18.6,0,0,0,.8-2.3,8.6,8.6,0,0,1,.3-1.3,11.1,11.1,0,0,0,1.6-1.2c.6-.5.8-.8.8-1.1A.5.5,0,0,0,48.6,39ZM37.8,47.9a1.6,1.6,0,0,1-.7-1.5,5.9,5.9,0,0,1,1.7-3.8,5,5,0,0,1,3.5-1.8,1.4,1.4,0,0,1,1.1.4,1,1,0,0,1,.4.9,3.1,3.1,0,0,1-.1.9,24.9,24.9,0,0,0-3.2,2.2h0c0-.4-.3-.6-.8-.6a1.1,1.1,0,0,0-1.2,1.2,1,1,0,0,0,.4.9A5.8,5.8,0,0,0,37.8,47.9Zm5.4-3.8A7.9,7.9,0,0,1,42,45.6a3.2,3.2,0,0,1-2,.9A20.2,20.2,0,0,1,43.2,44.1ZM39.5,46l-.2.2c0-.1-.1-.2-.1-.3Zm2.3,1.7a5.5,5.5,0,0,1-2.5.7l-.9-.2,1-1.2h.7A3.3,3.3,0,0,0,42.5,46a5.8,5.8,0,0,0,1.8-2.6l1-.6c-.4,1.1-.7,1.6-.8,1.9a5.3,5.3,0,0,1-.6,1A6.6,6.6,0,0,1,41.8,47.7Zm6.4-7.3a7.4,7.4,0,0,1-1.6,1.1,6,6,0,0,1,.9-1.5,1.7,1.7,0,0,1,1.1-.6c.2,0,.2.1.2.2S48.6,40,48.2,40.4Z"/><path class="ad204c36-69bc-4934-9ff4-99752c70593a" d="M29.1,43.5a.8.8,0,0,1-.2.7l-.7.3a.6.6,0,0,1-.6-.6.9.9,0,0,1,.3-.7.8.8,0,0,1,.7-.2A.5.5,0,0,1,29.1,43.5Z"/><path class="ad204c36-69bc-4934-9ff4-99752c70593a" d="M33,46l-.4.3a1.4,1.4,0,0,1-1,.8c-.1,0-.1,0-.1-.3v-.4l.5-.3c.8-.5,1.1-.8,1.1-1.1s-.1-.5-.5-.5a1.4,1.4,0,0,0-.9.5l-.3.4c-.1-.8-.6-.9-.9-.9s-.7.2-1.7,1.5h-.1a.1.1,0,0,1-.1.1c-1.4,1.9-1.9,2.1-2,2.1s-.1,0,0-.1a1.1,1.1,0,0,1,.3-.7L28.5,45v-.3c-.1-.1-.2-.2-.3-.1h-.8c-.1-.1-.2,0-.3.1l-.9,1.4a.1.1,0,0,1-.1.1l-1.2,1.5c-.5.6-.7.6-.7.5s0-.3.6-1.2l1.3-2v-.3c-.1-.1-.2-.2-.3-.1H25c-.1-.1-.2,0-.3.1s-1.1-.2-2,.3a3.9,3.9,0,0,0-1.9,1.6,3.2,3.2,0,0,1-1,1,2.5,2.5,0,0,1-1.8.8,8.4,8.4,0,0,0,2.7-3.1,26.5,26.5,0,0,1,1.7-3,4.3,4.3,0,0,1,3.4-2.1,1.2,1.2,0,0,1,.9.3.7.7,0,0,1,.3.6,1.8,1.8,0,0,1-.4,1,5.7,5.7,0,0,1-1.3.8.3.3,0,0,0-.3.3c0,.2.1.4.3.4l.9-.4a2.3,2.3,0,0,0,1.6-2.1,1.4,1.4,0,0,0-.6-1.1,2,2,0,0,0-1.4-.5,5.7,5.7,0,0,0-3.2,1.3,12.9,12.9,0,0,0-2.9,3.5H17.5a20.2,20.2,0,0,1,1.7-2.5,3.6,3.6,0,0,1,1.4-1.1c.1-.1.4-.2.4-.4a.3.3,0,0,0-.3-.3l-.8.2-.8.5a3.4,3.4,0,0,0-.6.6c-.1-.2-.2-.3-.4-.3a.4.4,0,0,0-.3.2,1.9,1.9,0,0,1-.6.7l-.7.2c-.3,0-.3-.1-.3-.2a1.7,1.7,0,0,1,.3-.7,2.7,2.7,0,0,0,.3-1.2c0-.5-.2-1.5-1.7-1.5a5.5,5.5,0,0,0-3.4,1.3,4,4,0,0,0-1.5,3,2,2,0,0,0,.6,1.4,1.7,1.7,0,0,0,1.4.6,3.5,3.5,0,0,0,2.3-.9c.4-.4.5-.6.5-.8s-.1-.3-.4-.3h0l-.2.2a2.8,2.8,0,0,1-2.2,1.1,1.3,1.3,0,0,1-1-.4,1.3,1.3,0,0,1-.3-1,3.2,3.2,0,0,1,1.3-2.4A4.5,4.5,0,0,1,15,39.2a1.1,1.1,0,0,1,.8.2c.2.1.2.2.2.3a2.3,2.3,0,0,1-.3.8,1.9,1.9,0,0,0-.4,1.1,1.2,1.2,0,0,0,.4.9,1.3,1.3,0,0,0,1.5.1l-1,1.4c0,.1-.1.2-.2.3H13.9a.2.2,0,0,0-.2.2h-.1a.4.4,0,0,0,.1.3c0,.1.1.1.2.1h1.7a12.6,12.6,0,0,1-2.3,2.6,4.1,4.1,0,0,1-2.5.8,2.1,2.1,0,0,1-1.2-.3q-.3-.1-.3-.3a1.1,1.1,0,0,0,.7-.3.8.8,0,0,0,.2-.5c0-.5-.3-.7-.8-.7a1.1,1.1,0,0,0-.7.3,1.1,1.1,0,0,0-.3.8,1.4,1.4,0,0,0,.8,1.2,2.9,2.9,0,0,0,1.7.5,6.8,6.8,0,0,0,3.7-1.2A5.8,5.8,0,0,0,16,46.7L17.1,45h2.2a10.1,10.1,0,0,1-1.5,2.4,4.1,4.1,0,0,1-1.2.9h-.8c-.2,0-.9,0-.9.5s.1.4.7.4l1-.2a4.2,4.2,0,0,0,3-.3,3.1,3.1,0,0,0,1-.8.9.9,0,0,0,.3.7,1.2,1.2,0,0,0,1.8,0l.4-.4c0,.2.1.3.3.5s1.1.5,2.1-.6a.7.7,0,0,0,.3.6.9.9,0,0,0,.7.3c.6,0,1.3-.6,2.3-1.9l.3-.4a.1.1,0,0,0,.1-.1,4.4,4.4,0,0,1,1.1-1.2,8.9,8.9,0,0,1-.8,1.3l-1.2,1.8v.3l.3.2h.8l.3-.2.9-1.5c.1,0,.1-.1.2-.2a.8.8,0,0,0,.8.7,1.5,1.5,0,0,0,1.2-.7c.5-.4.6-.5.6-.7A.4.4,0,0,0,33,46ZM9,47.1Zm.4-.3c.2,0,.2.1.2.2s0,.1-.1.2H9.3a.4.4,0,0,0-.1-.3Zm13.9,0c-1.1,1.4-1.4,1.5-1.5,1.5s-.1,0-.1-.2a2.6,2.6,0,0,1,1-1.8,3.2,3.2,0,0,1,1.5-1.2h0C24.2,45.3,24.2,45.7,23.3,46.8Zm5.6-.4H29C29,46.4,29,46.4,28.9,46.4Z"/><path class="ad204c36-69bc-4934-9ff4-99752c70593a" d="M9.4,46.8H9.2a.4.4,0,0,1,.1.3h.2c.1-.1.1-.1.1-.2S9.6,46.8,9.4,46.8Zm19.5-.5h0c.1,0,.1,0,.1-.1Zm0,0h0c.1,0,.1,0,.1-.1Z"/><path class="ad204c36-69bc-4934-9ff4-99752c70593a" d="M63,46l-.3.2c-1.1,1.6-1.6,1.9-1.9,2h.1a3.6,3.6,0,0,0,.4-1.1,1,1,0,0,0-.5-.7l.5-.5V46c0,.5.8.8,1.3.1a1.2,1.2,0,0,0,.4-.8c0-.5-.3-.8-.9-.8a1.4,1.4,0,0,0-1,.6l-1,.9h-.2l.3-.3,1.2-1.9.5-.9.6-.9.2-.2-.2-.2.2.2c.1-.1.1-.3,0-.3l-.3-.2h-.8l-.3.2-2.6,4.2a2.1,2.1,0,0,0-.4.6h0A10,10,0,0,1,57,47.7c-.5.6-.7.6-.7.6h0s0-.3.6-1.2l1.3-2a.2.2,0,0,0,0-.3c-.1-.1-.2-.2-.3-.1h-.8c-.1-.1-.2,0-.3.1s-1-.2-2,.3a4.1,4.1,0,0,0-1.7,1.4c-1.2,1.5-2,1.8-2.5,1.8s-.4-.1-.4-.3a3.1,3.1,0,0,1,.4-.9l2.2-.6c.6-.3.9-.7.9-1.1a.9.9,0,0,0-.3-.6c-.5-.4-1.3-.2-2.3.3a3.4,3.4,0,0,0-1.3,1h0a1.3,1.3,0,0,0-.4-1,1.2,1.2,0,0,0-1.1-.4l.8-1.3a.2.2,0,0,0,0-.3c0-.1-.1-.1-.2-.1a1.1,1.1,0,0,1-.8,0h-.3l-5.9,9.2v.4h1.4l2.3-3.7a.8.8,0,0,0,.6.2,3.7,3.7,0,0,0,2-.8,3.5,3.5,0,0,0,.9-.7h0a1.4,1.4,0,0,0,.5,1.1,1.2,1.2,0,0,0,1,.4,3.6,3.6,0,0,0,2.1-1.1l.3.7a1.2,1.2,0,0,0,1.8,0l.5-.4c0,.2.1.3.2.5a1,1,0,0,0,1.4.1h.3a1.1,1.1,0,0,1,.8,0c.1,0,.2,0,.2-.1v-.2a10.5,10.5,0,0,0,.8-1.3l.4-.6h.6a.4.4,0,0,1-.1.3,2.2,2.2,0,0,0-.4,1.1,1.1,1.1,0,0,0,.3.7l.7.2c.6,0,1.3-.6,2.3-1.9l.3-.4c.1-.1.1-.1.1-.2s.1,0,.1-.1A.4.4,0,0,0,63,46Zm-11.1-.4.8-.5q0,.3-.6.6l-.8.4Zm-4.2,1.5c-.9,1-1.3,1.2-1.6,1.2h0c0-.1.1-.5.9-1.6s1.5-1.4,1.5-1.4h.2A3.2,3.2,0,0,1,47.7,47.1Zm7.7-.3c-1,1.4-1.4,1.5-1.5,1.5s-.1,0-.1-.2a3.2,3.2,0,0,1,1-1.8c.9-1,1.3-1.1,1.6-1.2h0C56.4,45.3,56.3,45.7,55.4,46.8Z"/><path class="bfbf6f77-7c8b-4fdf-9641-90f25e0ec0e5" d="M65.8,5h1.1A2.3,2.3,0,0,0,68,4.8a.9.9,0,0,0,.3-.7.6.6,0,0,0-.1-.4l-.4-.3h-2Zm-.9,3.2V2.5h2l1.4.2a1.8,1.8,0,0,1,.7.5,1.6,1.6,0,0,1,.3.9,1.4,1.4,0,0,1-.5,1,2.4,2.4,0,0,1-1.1.6c.2,0,.3.1.4.3A3.7,3.7,0,0,1,69,7.1l.7,1.1H68.5L68,7.3A3.1,3.1,0,0,0,67.1,6a.8.8,0,0,0-.7-.2h-.6V8.2ZM67.2.9a4.2,4.2,0,0,0-2.1.6,3.7,3.7,0,0,0-1.7,1.6,4.3,4.3,0,0,0-.6,2.2,4.6,4.6,0,0,0,.6,2.2A4.9,4.9,0,0,0,65,9.1a4.6,4.6,0,0,0,2.2.6,4.3,4.3,0,0,0,2.2-.6A4.9,4.9,0,0,0,71,7.5a4.6,4.6,0,0,0,.6-2.2A4.3,4.3,0,0,0,71,3.1a3.5,3.5,0,0,0-1.6-1.6A4.3,4.3,0,0,0,67.2.9Zm0-.9a4.8,4.8,0,0,1,2.6.7,6.1,6.1,0,0,1,2,1.9,6.8,6.8,0,0,1,.7,2.7,5.9,5.9,0,0,1-.7,2.6,4.6,4.6,0,0,1-2,1.9,5.2,5.2,0,0,1-5.2,0,4.4,4.4,0,0,1-1.9-1.9A4.8,4.8,0,0,1,62,5.3a5.4,5.4,0,0,1,.7-2.7A5,5,0,0,1,64.6.7,5.1,5.1,0,0,1,67.2,0Z"/><path class="bfbf6f77-7c8b-4fdf-9641-90f25e0ec0e5" d="M13.1,8.5a1.3,1.3,0,0,1,0,2.6,1.3,1.3,0,1,1,0-2.6Zm-2.9,2.8a1.3,1.3,0,0,1,1.3,1.3A1.3,1.3,0,0,1,10.2,14a1.4,1.4,0,0,1-1.4-1.4A1.3,1.3,0,0,1,10.2,11.3ZM7.6,14.4a1.3,1.3,0,1,1,0,2.6,1.3,1.3,0,0,1,0-2.6ZM5.3,18.1a1.3,1.3,0,0,1,1.3,1.3,1.3,1.3,0,0,1-2.6,0A1.3,1.3,0,0,1,5.3,18.1ZM36.2,0C56.3,0,72.5,15.7,72.5,35S56.3,69.9,36.2,69.9,0,54.3,0,35A33,33,0,0,1,2.9,21.3h0l1.5,2.8h0A31.8,31.8,0,0,0,2.5,35c0,17.9,15.1,32.5,33.7,32.5S70,52.9,70,35,54.9,2.4,36.2,2.4A34.6,34.6,0,0,0,17.4,8h0l-3.2-.8A36.9,36.9,0,0,1,36.2,0Z"/><path class="bfbf6f77-7c8b-4fdf-9641-90f25e0ec0e5" d="M250.7,18.6h.8c.4,0,.7,0,.9-.2a.6.6,0,0,0,.2-.5.4.4,0,0,0-.1-.3l-.3-.2h-1.5Zm-.8,2.5V16.7h2.7l.6.4a1.9,1.9,0,0,1,.2.7,1.2,1.2,0,0,1-.4.8,1,1,0,0,1-.9.4l.4.3a2.3,2.3,0,0,1,.6.9l.6.8h-.9l-.4-.7-.7-1-.6-.2h-.4v1.9Zm1.9-5.7a3.3,3.3,0,0,0-1.7.4,3.3,3.3,0,0,0-1.3,1.3,3.7,3.7,0,0,0-.5,1.7,4.1,4.1,0,0,0,.5,1.8,3.4,3.4,0,0,0,1.2,1.2,3.3,3.3,0,0,0,3.5,0,3.4,3.4,0,0,0,1.2-1.2,4.1,4.1,0,0,0,.5-1.8,3.7,3.7,0,0,0-.5-1.7,3.3,3.3,0,0,0-1.3-1.3A3.2,3.2,0,0,0,251.8,15.4Zm0-.7a5.3,5.3,0,0,1,2,.5,3.9,3.9,0,0,1,1.5,1.6,3.6,3.6,0,0,1,.6,2,3.9,3.9,0,0,1-.6,2.1,2.8,2.8,0,0,1-1.5,1.5,3.9,3.9,0,0,1-2,.6,3.9,3.9,0,0,1-2.1-.6,2.8,2.8,0,0,1-1.5-1.5,3.9,3.9,0,0,1-.6-2.1,3.6,3.6,0,0,1,.6-2,3.9,3.9,0,0,1,1.5-1.6A5.4,5.4,0,0,1,251.8,14.7Z"/></g></g></svg>