<svg id="acd19b42-c5c3-4e08-aa8a-e5fa11e7b3a6" data-name="Layer 1" xmlns="http://www.w3.org/2000/svg" viewBox="0 0 48.3 48.3"><defs><style>.be769f7f-8071-4336-af70-ce0641734120{fill:#fff;}.f4a688bc-354c-4ab8-ac29-05bb054e0dc5{fill:#010002;}</style></defs><circle class="be769f7f-8071-4336-af70-ce0641734120" cx="24.1" cy="24.1" r="24.1"/><path class="f4a688bc-354c-4ab8-ac29-05bb054e0dc5" d="M20.9,36.7H20a34.6,34.6,0,0,1-10.1-2H9.7c-.2-.1-.9-.4-1-2,.1-.1.3-5.8,2.1-8.5a3.6,3.6,0,0,1,1.9-1.4c2.1-.6,3.6-1.4,3.7-1.7a.1.1,0,0,1,.1-.1,7.9,7.9,0,0,1-1.4-3.1h0a3.7,3.7,0,0,1-.5-1.1,3.1,3.1,0,0,1,.1-2.2,6.6,6.6,0,0,1,.1-3.5,5.8,5.8,0,0,1,3.6-3.5,1.9,1.9,0,0,1,.9-.3h.6a11.3,11.3,0,0,1,2.2.5l.8.3a4.8,4.8,0,0,1,2.7,1.7,4.7,4.7,0,0,1,1.1,3.5,5.1,5.1,0,0,1,2.4-2.1l.8-.2h.4l1.7.4.6.2a4.4,4.4,0,0,1,2.1,1.3,4.3,4.3,0,0,1,.6,3.7,2.2,2.2,0,0,1,0,1.6,2,2,0,0,1-.4.8,5.2,5.2,0,0,1-1,2.3c0,.1.2.3.6.5h.4l1.5.6h.1a7.1,7.1,0,0,1,1.5,1h0c1.2,1.7,1.5,4.9,1.5,6.3h0c0,1.3-.6,1.6-.9,1.7a22.4,22.4,0,0,1-6.5,1.4c-.1,1.3-.8,1.7-1.1,1.8-3.8,1.7-10,2-10,2ZM10.4,33.3A33.3,33.3,0,0,0,20,35.2h1.1c1.1-.1,6.1-.5,9.4-1.9.1-.1.2-.3.2-.8s-.3-5.4-1.8-7.6a2.9,2.9,0,0,0-1.3-.8h-.2l-1.9-.7-.6-.3-.6-.3-.5-.3h0l-.4-.3a4.6,4.6,0,0,1-3,1.2A4.1,4.1,0,0,1,17.5,22l-.3.3c-.1.1-.2.1-.2.2a16.4,16.4,0,0,1-3.8,1.6A2.1,2.1,0,0,0,12,25c-1.6,2.2-1.8,7.5-1.8,7.6A2,2,0,0,0,10.4,33.3ZM28.1,22.7a5.9,5.9,0,0,1,2,1.3h.1c1.3,2,1.8,5.7,1.9,7.5a21.7,21.7,0,0,0,6-1.3c.1-.1.1-.2.1-.5s-.4-4.3-1.3-5.6h0a2.1,2.1,0,0,0-.9-.6h-.1L34.4,23l-.4-.2-.5-.2-.4-.3h-.2a3.5,3.5,0,0,1-2.2.9,3.6,3.6,0,0,1-2.2-1c0,.1-.1.1-.1.2h-.2l-.3.2h.2ZM24.5,21s.1.2,1,.7H26l.3.2c.9-.4,1.3-.7,1.3-.8h.1a5.4,5.4,0,0,1-1.1-2.3l-.3-.8c0-.2-.1-.4-.1-.6l-.2.3h0A8.5,8.5,0,0,1,24.5,21ZM16,15.3c-.1.1-.1.4.1,1.1a.8.8,0,0,0,.2.6.5.5,0,0,1,.2.4c.4,2.2,2.3,4.4,3.9,4.4s3.8-2.4,4.2-4.4a.5.5,0,0,1,.2-.4c.1-.1.1-.3.2-.5a2.7,2.7,0,0,0,.1-1.2h0a.5.5,0,0,1-.1-.6c.2-1,.5-2.8-.5-4a4.4,4.4,0,0,0-2-1.2l-.8-.3-1.8-.4h-1a5.5,5.5,0,0,0-2.7,2.7c-.1.2-.3,1,.1,3.1A1.1,1.1,0,0,1,16,15.3Zm11.5,1.8a3.2,3.2,0,0,0,.1.7c0,.2.1.3.1.4s.2.2.2.3c.3,1.7,1.6,3.3,2.8,3.3s2.7-1.8,3-3.3.1-.2.2-.3.1-.2.1-.3a4.4,4.4,0,0,0,.1-.9h0c-.1-.2-.2-.4-.1-.5a3.1,3.1,0,0,0-.4-2.9c0-.1-.4-.6-1.4-.9l-.6-.2-1.3-.3h-.7a3.7,3.7,0,0,0-1.9,1.9,4.9,4.9,0,0,0,0,2.3C27.8,16.7,27.7,16.9,27.5,17.1Z"/><path class="f4a688bc-354c-4ab8-ac29-05bb054e0dc5" d="M37.8,23.7h-.1a3.6,3.6,0,0,0-1.3-.9h-.1l-1.5-.6-.4-.2c-.8-.3-.9-.6-.9-.6h0a5.2,5.2,0,0,0,1.1-2.4h.1l.3-.7c.1-.7.2-1.2,0-1.5h0a3.9,3.9,0,0,0-.6-3.5,4,4,0,0,0-1.9-1.2l-.6-.2-1.6-.4h-1a4.5,4.5,0,0,0-2.6,2.5,9.1,9.1,0,0,0,0,2.5h0a1.8,1.8,0,0,0-.1,1.5,2.4,2.4,0,0,0,.3.7H27a5.2,5.2,0,0,0,1,2.3h0a5.1,5.1,0,0,1-1.7,1h-.4l-.5-.2c-1.1-.5-1.2-.8-1.2-.9h0a8.5,8.5,0,0,0,1.5-3.2h0a1.8,1.8,0,0,0,.4-1,2.8,2.8,0,0,0,.1-2h-.1c.3-1.1.6-3.2-.7-4.7a4.5,4.5,0,0,0-2.6-1.6L22,8a9.7,9.7,0,0,0-2.1-.5h-.4a1.4,1.4,0,0,0-1,.2,5.7,5.7,0,0,0-3.4,3.4,6.2,6.2,0,0,0,0,3.3H15a2.3,2.3,0,0,0,0,2,1.5,1.5,0,0,0,.4,1h0a7.9,7.9,0,0,0,1.4,3.1h-.1c-.2.5-2.1,1.4-3.9,1.9A4.6,4.6,0,0,0,11,24.3c-1.7,2.5-1.9,8-1.9,8.2s.6,1.8.8,1.8H10c3.8,1.6,9.4,1.9,10,2h1c.2,0,6.2-.4,9.9-2,.2-.1.9-.4.9-1.8a25.1,25.1,0,0,0,6.7-1.4c.2-.1.7-.3.7-1.4S39,25.5,37.8,23.7Zm-20.5-2h.3A4.5,4.5,0,0,0,20.4,23a4.4,4.4,0,0,0,2.9-1.2h.3a1.5,1.5,0,0,0,.6.5h.2l.6.3.6.3,2,.7h.2a5,5,0,0,1,1.4.9C30.7,27,31,32,31,32.5s-.2,1-.3,1a28.7,28.7,0,0,1-9.6,2H20c-.6,0-6.2-.4-9.8-2-.1,0-.3-.2-.3-.9s.2-5.5,1.8-7.8a3.9,3.9,0,0,1,1.4-1,11.5,11.5,0,0,0,3.7-1.6h.1ZM28,23h-.1l-.7-.4.8-.4h.1l.3-.3h.2a3.2,3.2,0,0,0,2.1.9,3,3,0,0,0,2.1-.9H33l.5.3h.2a.5.5,0,0,0,.4.2l.4.2,1.5.6h.2a2.6,2.6,0,0,1,1,.7c1.1,1.7,1.3,5.4,1.3,5.8s-.1.7-.2.7A21.2,21.2,0,0,1,31.8,32c-.1-1.7-.5-5.7-1.9-7.7h-.1A3.7,3.7,0,0,0,28,23Zm-.8-6.1h.1c.1,0,.1-.2.1-.3a4.1,4.1,0,0,1,0-2.4A3.7,3.7,0,0,1,29.5,12h.8l1.4.3.6.2a3.5,3.5,0,0,1,1.6,1,3.6,3.6,0,0,1,.4,3.1v.3h.1a1.9,1.9,0,0,1-.1,1,.8.8,0,0,1-.2.5c0,.1-.1.1-.1.2s-1.7,3.5-3.3,3.5-2.8-1.7-3.1-3.5c0-.1,0-.1-.1-.2a.8.8,0,0,1-.2-.5C27.1,17.4,27.1,17,27.2,16.9ZM15.7,15.1h.1c.1-.2.2-.3.1-.5a7.1,7.1,0,0,1,0-3.2,5.6,5.6,0,0,1,2.9-2.9h1.1l1.9.4.7.3a4.7,4.7,0,0,1,2.2,1.3c1.1,1.3.8,3.2.6,4.3s0,.2,0,.3h.1c.1.1.1.6-.1,1.4a1.5,1.5,0,0,1-.3.7v.2c-.4,2.3-2.4,4.8-4.5,4.8s-3.8-2.3-4.2-4.8c0-.1-.1-.1-.1-.2a.9.9,0,0,1-.3-.7A2.4,2.4,0,0,1,15.7,15.1Z"/></svg>