<svg id="b8f5f655-e940-40af-b75c-14da6d4aa9ee" data-name="Layer 1" xmlns="http://www.w3.org/2000/svg" viewBox="0 0 48.3 48.3"><defs><style>.aac5cc8d-262e-4424-b023-8d68e381ace8{fill:#fff;}</style></defs><circle class="aac5cc8d-262e-4424-b023-8d68e381ace8" cx="24.1" cy="24.1" r="24.1"/><path d="M32.7,26.4H26.5a1,1,0,0,0,0,2h6.2a1,1,0,0,0,0-2Zm0,0H26.5a1,1,0,0,0,0,2h6.2a1,1,0,0,0,0-2Zm0,0H26.5a1,1,0,0,0,0,2h6.2a1,1,0,0,0,0-2Zm0,0H26.5a1,1,0,0,0,0,2h6.2a1,1,0,0,0,0-2Zm6-8.9v-.3a2.1,2.1,0,0,0-2.1-2.1H11.7a2.1,2.1,0,0,0-2.1,2.1V31.8a2,2,0,0,0,2.1,2H36.6a2,2,0,0,0,2.1-2V17.5Zm-2,14.4H11.5V23.2H36.7Zm0-11.9H11.5V17.1H36.7ZM26.5,28.4h6.2a1,1,0,0,0,0-2H26.5a1,1,0,0,0,0,2Zm6.2-2H26.5a1,1,0,0,0,0,2h6.2a1,1,0,0,0,0-2Zm0,0H26.5a1,1,0,0,0,0,2h6.2a1,1,0,0,0,0-2Zm0,0H26.5a1,1,0,0,0,0,2h6.2a1,1,0,0,0,0-2Zm0,0H26.5a1,1,0,0,0,0,2h6.2a1,1,0,0,0,0-2Z"/></svg>