<svg id="e96341b2-ee10-4e23-a934-2ce0625bd246" data-name="Layer 1" xmlns="http://www.w3.org/2000/svg" viewBox="0 0 48.3 48.3"><defs><style>.af5e932c-5972-4147-bbba-561852be5963{fill:#fff;}</style></defs><circle class="af5e932c-5972-4147-bbba-561852be5963" cx="24.1" cy="24.1" r="24.1"/><path d="M28.4,12.2H25V10.5H23.3v1.7H19.9l-5.5,5.2V37.7H33.9V17.4Zm3.8,23.9H16.1v-18l4.4-4.2h2.8v4.7H25V13.9h2.8l4.4,4.2v18Z"/><path d="M23.5,24.5A2.5,2.5,0,1,0,21,27,2.5,2.5,0,0,0,23.5,24.5Zm-3.3,0a.8.8,0,0,1,.8-.9.9.9,0,0,1,.9.9.9.9,0,0,1-.9.8A.8.8,0,0,1,20.2,24.5Z"/><path d="M24.7,30.7a2.6,2.6,0,0,0,2.6,2.6,2.6,2.6,0,0,0,0-5.1A2.6,2.6,0,0,0,24.7,30.7Zm3.4,0a.9.9,0,0,1-.8.9.9.9,0,0,1-.9-.9.9.9,0,0,1,.9-.8A.9.9,0,0,1,28.1,30.7Z"/><path d="M20.9,32.1l-1.2-1.2,7.7-7.8,1.2,1.2Z"/></svg>