<svg id="bfe9cb1b-64fd-4b7b-8eec-5865b3541752" data-name="Layer 1" xmlns="http://www.w3.org/2000/svg" viewBox="0 0 48.3 48.3"><defs><style>.a5d6b2c7-62eb-4f3c-a57e-7433f9b1cbcb{fill:#fff;}</style></defs><circle class="a5d6b2c7-62eb-4f3c-a57e-7433f9b1cbcb" cx="24.1" cy="24.1" r="24.1"/><path d="M10.1,13.7V33.6H38.2V13.7Zm26.3,1.7v5.4h-2a2.9,2.9,0,0,0,.2-.9,2.7,2.7,0,0,0-2.7-2.7,2.4,2.4,0,0,0-1.8.7l-2.8,2.6-2.7-2.6h0a2.6,2.6,0,0,0-1.8-.7,2.7,2.7,0,0,0-2.7,2.7,2.9,2.9,0,0,0,.2.9H11.9V15.4Zm-4.5,5.4H29.5l1.7-1.6a.9.9,0,0,1,.7-.3.9.9,0,0,1,.9,1,.9.9,0,0,1-.9.9Zm-8.6,0h-.6a.9.9,0,0,1-.9-.9,1,1,0,0,1,1-1,.9.9,0,0,1,.6.3l1.7,1.6ZM11.9,31.9V22.5H24.7v3.9h1.8V22.5h1.7v6.2h1.7V22.5h6.5v9.4Z"/></svg>