<svg id="b1521f57-0fc5-41ec-94cb-4dc74369d7f2" data-name="Layer 1" xmlns="http://www.w3.org/2000/svg" viewBox="0 0 384 384"><defs><style>.af077fdf-a6f4-4b80-aa27-76492d56d841{fill:#717171;}</style></defs><path class="af077fdf-a6f4-4b80-aa27-76492d56d841" d="M24.2,196.1c1.7-8,6.8-13.8,12.5-19.4q66.1-66,132-132.1A31,31,0,0,1,192.1,35c33.8.1,67.5,0,101.3,0,6.4,0,12.5,1.2,17.8,5.3,7.1,5.4,10.3,12.8,10.3,21.6V166.4a28,28,0,0,1-8.5,20.3l-135.6,135c-4.4,4.4-9,8.9-15.7,10.1-9.6,1.7-17.6-1.4-24.3-8.2L62.1,248.3C53.5,239.7,45,231,36.3,222.6c-5.7-5.5-10.5-11.3-12.1-19.3ZM308.7,114V62.2c0-9.3-5.1-14.3-14.4-14.3H190.4a15.6,15.6,0,0,0-11.7,4.9L41.8,189.7c-6.5,6.5-6.5,13.7-.1,20.1l105,105c6.4,6.4,13.6,6.4,20.1-.1l137-136.9a15.6,15.6,0,0,0,4.9-12C308.6,148.5,308.7,131.3,308.7,114Z"/><path class="af077fdf-a6f4-4b80-aa27-76492d56d841" d="M347,60.7h12.6c.1,1.2.2,2.3.2,3.3,0,38.1-.1,76.2,0,114.3a28.9,28.9,0,0,1-8.8,21.5q-73.8,73.5-147.4,147.3l-2.1,1.9-8.7-9,2.3-2.5q72.6-72.6,145.3-145.2a20.7,20.7,0,0,0,6.7-15.9c-.2-37.1-.1-74.2-.1-111.4Z"/><path class="af077fdf-a6f4-4b80-aa27-76492d56d841" d="M251.2,130.8a25.7,25.7,0,0,1-25.5-25.4c-.2-13.9,11.7-25.7,25.6-25.6a25.5,25.5,0,0,1-.1,51Zm.1-38.2a12.8,12.8,0,0,0-.3,25.5,13,13,0,0,0,13-12.8A12.8,12.8,0,0,0,251.3,92.6Z"/></svg>