<svg id="a9edae12-b39d-4bbb-ba0e-8ad72b8924fa" data-name="aa4b7c63-e1b5-4bb1-9197-411bc435d0db" xmlns="http://www.w3.org/2000/svg" viewBox="0 0 384 384"><defs><style>.e56cfd49-9cc7-457d-809a-b292bcdfb9b7{fill:#717171;}</style></defs><path class="e56cfd49-9cc7-457d-809a-b292bcdfb9b7" d="M223.4,31.2l24.8,13.9,99.5,54.6c3.6,1.9,5.2,4.4,5.2,8.5-.2,13.6-.1,27.2-.1,40.8,0,4.1-2.2,6.8-5.6,7.1s-6.9-2.4-7-6.7V117.1l-3,1.5-30.3,16.5a4.6,4.6,0,0,0-2.8,4.6c.1,11.3-.1,22.6.1,33.9.1,4.3-1.5,7-5.3,9-8,4.2-15.8,8.7-23.7,13-5.9,3.2-10.4.5-10.4-6.3V158.6l-2.6,1.1-32.4,17.9a4.6,4.6,0,0,0-2.1,3.2q-.1,59.5-.1,119.1a16.2,16.2,0,0,0,.2,1.8l2.7-1.3,107-58.7a4.8,4.8,0,0,0,2.8-4.8c-.1-12.1-.1-24.1-.1-36.2.1-5.3,5.1-8.7,9.2-5.9a8.1,8.1,0,0,1,3.2,5.6c.3,14.4.2,28.9.2,43.3,0,3.1-1.9,4.9-4.4,6.3q-29.5,16-58.9,32.3-31.8,17.4-63.5,34.9a8.8,8.8,0,0,1-9.6,0c-7.3-4.2-14.7-8.1-22-12.2l-2.9-1.5c-2.9,4.8-5.4,9.5-8.4,13.8C159.4,350.6,116.7,362,79.5,345c-4.4-2-6-5.4-4.3-8.9s5.1-4.5,9.6-2.5c40.8,18.4,87.2-3.4,98.6-46.4,11.1-41.2-17.5-83.4-59.7-88.4-38.7-4.6-73,21.2-79.2,59.7a69.8,69.8,0,0,0,5.2,39.3l1.2,2.6c1.4,3.6.1,7-3.1,8.5a6,6,0,0,1-8.3-3.4c-2.6-7.2-4.8-14.6-7.1-22-.7-2.3-.8-4.9-1.3-7.3V261.7a11.7,11.7,0,0,0,.6-2c5-33.6,23.2-56.7,54.8-69,2.5-1,3.2-2.1,3.2-4.7-.1-26.1,0-52.1-.1-78.2,0-3.3,1-5.8,4.1-7.5l76.1-41.9,49.8-27.2Zm-8.6,270.7c.1-1,.2-1.4.2-1.8q0-59.6.1-119c0-2.2-1.1-2.9-2.6-3.7L105.2,118.5l-2.8-1.4v69.3l3.2-.2c35.4-2.8,62.7,10.9,81.3,41,11.6,18.9,14,39.7,9.2,61.4-.2,1-.1,2.8.6,3.2C202.5,295.2,208.5,298.4,214.8,301.9ZM109.2,106.2l2.1,1.3L219,166.7a4.3,4.3,0,0,0,4.6-.1l30.8-16.9,3.3-2-2.1-1.3c-34.5-18.9-69-37.7-103.3-56.9-4.8-2.6-8.2-2.9-13,0C129.6,95.4,119.4,100.6,109.2,106.2ZM186.1,64a4,4,0,0,0,1.2.8l109.1,59.9a4.9,4.9,0,0,0,3.9-.3l30.5-16.7a22.9,22.9,0,0,0,2.4-1.5l-2.1-1.3C297,86.2,262.8,67.6,228.9,48.6c-5.6-3.1-9.6-3.6-15.2,0C204.9,54.2,195.5,58.8,186.1,64ZM285,132.9l-29.7-16.4L175,72.5c-.9-.5-2.2-1.1-2.8-.8-4.4,2.2-8.6,4.6-13.3,7.2l3.4,2,50.8,27.9,55.3,30.3c1.1.6,2.7,1.2,3.6.8C276.2,137.8,280.3,135.4,285,132.9Zm6.6,10.7-13.2,7.3a2.5,2.5,0,0,0-1,1.7c-.1,9-.1,17.9-.1,27.4l13.3-7.3a2.4,2.4,0,0,0,.9-1.8C291.6,162.1,291.6,153.2,291.6,143.6Z"/><path class="e56cfd49-9cc7-457d-809a-b292bcdfb9b7" d="M94,261.5a42.3,42.3,0,0,1,4,3.4,6.2,6.2,0,0,1,.1,8.7,6,6,0,0,1-8.8.1q-7.8-7.5-15.3-15.3a5.9,5.9,0,0,1,0-8.5c5.1-5.2,10.2-10.3,15.4-15.3a6,6,0,0,1,8.7.1,6.3,6.3,0,0,1,.1,8.6,36.5,36.5,0,0,1-4.3,3.5l.6.9,2.6.2H131c14.9.2,26.7,11,28.6,26s-7.8,27.3-21.8,30.8a23.7,23.7,0,0,1-6.5.9H109.7c-4.4-.1-7.1-2.5-7-6.4s2.6-6.1,7-6.2h21.4a16.2,16.2,0,0,0,16-15.1c.8-7.9-4.9-15.4-13-17.2a8,8,0,0,0-1.5-.3h-38Z"/><path class="e56cfd49-9cc7-457d-809a-b292bcdfb9b7" d="M66.3,324a6.4,6.4,0,0,1-6.2,6.2,6.4,6.4,0,0,1-6.3-6.5,6.3,6.3,0,0,1,6.6-6A6.1,6.1,0,0,1,66.3,324Z"/><path class="e56cfd49-9cc7-457d-809a-b292bcdfb9b7" d="M346.4,168.8a6.3,6.3,0,0,1,6.4,6.1,6.4,6.4,0,0,1-6.4,6.4,6.5,6.5,0,0,1-6.2-6.3A6.2,6.2,0,0,1,346.4,168.8Z"/></svg>