<svg id="af270e43-e95a-4196-ab57-ae27ff046c02" data-name="Layer 1" xmlns="http://www.w3.org/2000/svg" viewBox="0 0 384 384"><defs><style>.bd32c114-bc48-4138-bfc4-92f9fcdd1e34{fill:#717171;}</style></defs><path class="bd32c114-bc48-4138-bfc4-92f9fcdd1e34" d="M199.1,9.6c6.1,1.6,12.3,2.6,18.1,4.8a70,70,0,0,1,44.5,73.2c-3.6,31.5-27.8,57.1-59.3,61.4-29.1,3.9-52.9-6.6-68.9-31.1S117.9,67.3,133,42c2.2-3.7,5.1-4.7,7.9-3s3.4,4.8,1.1,8.7c-14,23.4-12.2,50.4,4.8,70.5A59.3,59.3,0,0,0,251.3,78.6c-.7-22.6-11-39.9-30.7-50.8s-40-10-59.6,1.3l-1.8,1.1c-3.2,1.7-6.2,1-7.8-1.7s-.8-5.4,2.1-7.3a69.3,69.3,0,0,1,28.7-10.9,13.4,13.4,0,0,0,2.7-.7Z"/><path class="bd32c114-bc48-4138-bfc4-92f9fcdd1e34" d="M100.8,9.6c3,3,4.7,11.1,2.6,14.7a6.5,6.5,0,0,1-4.7,2.9A6.1,6.1,0,0,1,94,24.3c-2.2-3.7-.5-11.8,2.5-14.7Z"/><path class="bd32c114-bc48-4138-bfc4-92f9fcdd1e34" d="M96.6,363.5h75.3V197.6H96.6v117a20.2,20.2,0,0,1-.1,3.5c-.4,3-2.1,4.8-5.1,4.9s-4.9-1.7-5.4-4.6a21.7,21.7,0,0,1-.1-3.6V197.6a7.7,7.7,0,0,0-2.4-5.9C64.7,173.1,46,154.3,27.3,135.6c-4.4-4.4-4.4-6.5,0-11l10.1-10c3.7-3.7,6.2-3.7,10,0l69.2,69.3a8.9,8.9,0,0,0,6.8,2.9q68.5-.2,137.1,0a9,9,0,0,0,7.1-3.1l68.5-68.5c4.6-4.5,6.6-4.5,11.2,0l9.6,9.6c4.2,4.2,4.2,6.5-.1,10.7q-21,21.1-42.1,42.1c-4.7,4.8-9.7,9.5-14.2,14.4a9.6,9.6,0,0,0-2.3,5.5c-.2,9.4-.1,18.8-.1,28.2,0,4.3-2.1,6.9-5.5,6.8s-5.1-2.5-5.1-6.8c-.1-9.2-.1-18.4-.1-28H212.1V363.4h75.3V255.1a21.7,21.7,0,0,1,.1-3.6c.5-2.8,2.3-4.5,5.1-4.5a5.1,5.1,0,0,1,5.3,3.9,14.3,14.3,0,0,1,.2,3.6V366.7c0,6.1-1.6,7.7-7.8,7.7H93.7c-6.2,0-7.8-1.6-7.8-7.7V344.2c0-4.2,1.9-6.6,5.2-6.8s5.4,2.5,5.5,6.8Zm104.3,0V197.7H183.1V363.5ZM36.6,130.4c1.4,1.2,2.5,1.9,3.4,2.8,16.4,16.4,33,32.5,49,49.2,4.5,4.7,9,4.5,13.7,4.1-20.3-20.2-40.6-40.6-60.9-60.9Zm243.9,56.1c5.7.5,10.3.4,14.9-4.4,15.9-16.7,32.5-32.8,48.9-49.2l2.3-2.5-4.9-5Z"/><path class="bd32c114-bc48-4138-bfc4-92f9fcdd1e34" d="M197.3,114.1c0,2.8.1,5.5,0,8.2s-2.2,5.9-5.3,5.9-5.1-2.2-5.3-5.9.8-5.6-.4-7.3-4.4-1.4-6.6-2.2a18.2,18.2,0,0,1-12.1-16.5c-.1-3.3,1.7-5.7,4.7-6.1s5.1,1.7,5.8,5c1.3,6.4,3.2,7.9,9.7,7.9,3.2,0,6.4.1,9.6-.1a8.7,8.7,0,0,0,8.4-8.9,8.8,8.8,0,0,0-8.7-8.9c-3.2-.2-6.4,0-9.6-.1-10.6-.2-19-7.8-19.8-17.7s5.7-19.5,16.4-21.4c2-.4,2.7-1.1,2.6-3a50,50,0,0,1,.1-6.7,5.1,5.1,0,0,1,5-5.1,5.2,5.2,0,0,1,5.4,5,24.4,24.4,0,0,1,.1,5.4c-.3,2.9.6,4,3.8,4.4,8.2.9,14.7,8.1,15.3,16.2.3,4-1.3,6.5-4.5,7s-5.4-1.6-6.1-5.5-3.2-7.2-8.4-7.3c-3.5-.1-7.1-.2-10.6,0-5.1.3-8.5,3.9-8.5,8.8a8.7,8.7,0,0,0,8.5,9.1c3.2.3,6.4.1,9.6.1,10.9.1,19.3,7.8,20,18.2S210,112,199,113.7Z"/><path class="bd32c114-bc48-4138-bfc4-92f9fcdd1e34" d="M122.5,169.3c-2-1.2-3.6-1.9-4.7-3-8.6-8.5-17.1-17-25.6-25.6-2.7-2.7-2.8-6-.5-8.2s5.3-2,7.9.6c8.7,8.6,17.4,17.2,25.8,26,1.3,1.4,1.8,4.4,1.4,6.3S124.1,167.9,122.5,169.3Z"/><path class="bd32c114-bc48-4138-bfc4-92f9fcdd1e34" d="M261.6,169.2c-1.6-1.2-3.6-2.1-4.3-3.5s-.2-3.6.2-5.4,1.1-1.4,1.8-2.1l24.6-24.6c3-3,6.1-3.3,8.5-1s2.1,5.5-.8,8.4l-25.2,25.1C265.2,167.3,263.5,168,261.6,169.2Z"/><path class="bd32c114-bc48-4138-bfc4-92f9fcdd1e34" d="M159.6,163.7c-.9,1.3-1.8,3.3-3.2,3.9s-4.4.8-5.5-.2c-5.9-5.4-11.6-11.1-17.1-17-1.9-2-1.5-4.7.5-6.7s4.8-2.5,6.8-.6c5.8,5.5,11.4,11.3,17.1,17.1C158.8,160.9,159,162.1,159.6,163.7Z"/><path class="bd32c114-bc48-4138-bfc4-92f9fcdd1e34" d="M229.6,169c-1.3-1-3.3-1.9-3.9-3.3s-.7-4.4.3-5.5c5.4-5.9,11.1-11.6,17-17.1,2-1.9,4.7-1.4,6.7.6s2.4,4.7.5,6.7c-5.5,5.9-11.3,11.5-17.1,17.1C232.5,168.2,231.2,168.3,229.6,169Z"/><path class="bd32c114-bc48-4138-bfc4-92f9fcdd1e34" d="M86.1,26c1.2,0,2.4-.1,3.5,0a5.3,5.3,0,0,1,.1,10.6,47,47,0,0,1-7.5,0,5.2,5.2,0,0,1-5.1-5.3c0-3,2.1-5.1,5.4-5.3C83.7,25.9,84.9,26,86.1,26Z"/><path class="bd32c114-bc48-4138-bfc4-92f9fcdd1e34" d="M285.6,87.4h-3.9c-2.9-.2-4.6-1.8-4.9-4.6s1.2-5.3,4.1-5.7a35.4,35.4,0,0,1,9.2,0,4.6,4.6,0,0,1,4.3,5.2,4.8,4.8,0,0,1-4.9,5.1Z"/><path class="bd32c114-bc48-4138-bfc4-92f9fcdd1e34" d="M111.5,26c1.3,0,2.7-.1,3.9,0,2.9.4,4.6,2,4.8,4.9s-1.4,5.2-4.3,5.6a37.9,37.9,0,0,1-8.9,0c-3-.4-4.6-2.5-4.5-5.5a5,5,0,0,1,5.1-5c1.3-.1,2.6,0,3.9,0Z"/><path class="bd32c114-bc48-4138-bfc4-92f9fcdd1e34" d="M293.1,94.7c0-1.3-.1-2.6,0-3.9.3-2.9,2-4.6,4.8-4.8s5,1.1,5.3,3.7a34.9,34.9,0,0,1,0,10.2c-.3,2.8-2.7,4.1-5.6,3.7a4.8,4.8,0,0,1-4.5-4.6c-.1-1.4,0-2.9,0-4.3Z"/><path class="bd32c114-bc48-4138-bfc4-92f9fcdd1e34" d="M293.1,69.1c0-1.3-.1-2.6,0-3.9a4.9,4.9,0,0,1,4.9-4.7c2.6-.2,4.9,1.2,5.3,3.8a41,41,0,0,1,0,9.9c-.3,2.8-2.5,4.2-5.4,4a4.9,4.9,0,0,1-4.8-4.8C293,72,293.1,70.5,293.1,69.1Z"/><path class="bd32c114-bc48-4138-bfc4-92f9fcdd1e34" d="M311.1,87.4h-3.9c-2.9-.2-4.7-1.8-4.9-4.7s1.2-5.2,4.1-5.6a35.4,35.4,0,0,1,9.2,0c2.8.3,4.4,2.4,4.3,5.3a4.8,4.8,0,0,1-4.9,5Z"/><path class="bd32c114-bc48-4138-bfc4-92f9fcdd1e34" d="M103.9,43.9c0,1.4.1,2.9,0,4.3a5,5,0,0,1-5.3,4.7,4.8,4.8,0,0,1-5.1-4.8,44.9,44.9,0,0,1,0-8.2,4.8,4.8,0,0,1,5.2-4.7c3.1,0,4.8,1.8,5.2,4.8C104,41.3,103.9,42.6,103.9,43.9Z"/></svg>