<svg id="aa4b7c63-e1b5-4bb1-9197-411bc435d0db" data-name="Layer 1" xmlns="http://www.w3.org/2000/svg" viewBox="0 0 384 384"><defs><style>.f6f7eed4-434d-4afc-a008-4640f902c2d1{fill:#717171;}</style></defs><path class="f6f7eed4-434d-4afc-a008-4640f902c2d1" d="M9.7,89.7c2.1-2.9,4.9-3.8,8.5-3.8H244.3c6.7,0,8.4,1.7,8.4,8.4v33.8l4.3.2h53.8c4.2-.1,7,1.4,9.3,5,17.2,27,34.6,53.9,51.8,80.9a14.7,14.7,0,0,1,2.3,7.6c.2,20.8.1,41.5.1,62.3,0,6.5-1.9,8.4-8.6,8.4H337.5c-.6,2.2-1.2,4.2-1.9,6.2a36.4,36.4,0,0,1-69.4-3.1c-.6-2.1-1.2-3.2-3.7-3.2H131c-5.4,19-17.3,30.6-37.7,29.9-18.9-.6-29.9-12-34.8-30-13.3,0-26.7-.1-40.1.1-3.8,0-6.7-1-8.7-4.3Zm12.4,8.6v158h30v12h-30v12.1H58.5c7.2-20.3,18.4-29.9,35.1-30.4a35.1,35.1,0,0,1,20.9,5.9c8.9,5.8,14.1,14.1,16.3,24.3H240.3v-12H137.5V256.1H240.3V122.4H34.2V110.2H240.3V98.3ZM344,255.8h18.2V224.6c0-4.9-.2-5-5-5H273.1c-6.3,0-8.2-1.9-8.2-8.3V161.1c0-6.4,1.9-8.3,8.3-8.3h44.7c-2.3-3.6-4.3-6.5-6-9.6a4.8,4.8,0,0,0-4.8-2.7H256.5l-3.2.2V280.2h11.8c7.4-20.3,18.5-30.1,35.2-30.1,20.2.1,32.1,11.2,37.3,30.1h24.3V268.1H344Zm8.7-48.5a6.9,6.9,0,0,0-.6-1.4q-12.5-19.7-25.2-39.1c-.7-1.1-2.7-1.7-4.1-1.7-14-.2-28-.1-42-.1h-3.4v42.2ZM301.3,310.7a24.3,24.3,0,1,0-24.2-24.2A24.4,24.4,0,0,0,301.3,310.7Zm-206.7,0a24.3,24.3,0,1,0,.2-48.6,24.3,24.3,0,0,0-.2,48.6Z"/><path class="f6f7eed4-434d-4afc-a008-4640f902c2d1" d="M9.7,62H21.6V74.1H9.7Z"/><path class="f6f7eed4-434d-4afc-a008-4640f902c2d1" d="M119.1,62c0,3.4.1,6.6-.1,9.8,0,.7-1.2,1.5-2.1,2a7,7,0,0,1-2.5,0H34.2V62Z"/><path class="f6f7eed4-434d-4afc-a008-4640f902c2d1" d="M307.3,280.7v11.7H295.5V280.7Z"/><path class="f6f7eed4-434d-4afc-a008-4640f902c2d1" d="M100.7,280.7v11.7H89V280.7Z"/></svg>