<svg id="b0e581cc-d36a-4767-8626-311896c4e4a3" data-name="Layer 1" xmlns="http://www.w3.org/2000/svg" viewBox="0 0 335.8 302.9"><defs><style>.e833a4ec-c805-45f3-b865-877594b77ecc{opacity:0.13;}.b48f528d-eb2c-4a11-8f9a-539ad4c4a93f{fill:#ea2121;}</style></defs><g class="e833a4ec-c805-45f3-b865-877594b77ecc"><rect class="b48f528d-eb2c-4a11-8f9a-539ad4c4a93f" x="1.9" y="35.6" width="262" height="262" rx="131"/></g><path class="b48f528d-eb2c-4a11-8f9a-539ad4c4a93f" d="M246,243.8H224.4c-6.4-2.1-9.9-7-12.5-12.9-4-9.1-8-18.1-12.1-27.2-6.6-14.9-13.1-29.8-19.8-44.5-4.9-10.7-11.7-19.2-24.7-20V28.4c5.6-3.9,11.1-6.8,15.4-10.9A42.4,42.4,0,0,1,200.3,5.4q44.7-.2,89.4,0c8.7.1,15.4,4.4,19.4,12.3s3.1,15.9-2,23.2c-.7,1-1.5,1.9-2.3,3.1,7.3,3.5,12.1,8.8,13.7,16.7s-1.2,14.5-6.2,20.4c13.7,6.6,19.7,22.9,7.4,37.6,7.8,3.2,11.9,9.4,14.2,17v7.5a4.7,4.7,0,0,0-.6.9c-3.6,12.1-11.2,17.7-23.8,17.7H248.2c2.3,21.3,4.5,42.2,6.9,63C256.4,235.7,255.1,238.5,246,243.8Z"/><path class="b48f528d-eb2c-4a11-8f9a-539ad4c4a93f" d="M95.5,83.2V22.1c0-10.9,5.9-16.7,16.8-16.8h19.8c9.1,0,15.4,6.3,15.4,15.4q.1,62.9,0,125.5c0,9.1-6.3,15.4-15.5,15.5H111.2c-9.4-.1-15.7-6.3-15.7-15.7Zm37.2,52.9A11.2,11.2,0,1,0,121,147,11.2,11.2,0,0,0,132.7,136.1Z"/><path class="b48f528d-eb2c-4a11-8f9a-539ad4c4a93f" d="M125.8,136.4c-1.5,1-2.9,2.8-4.3,2.7s-2.4-2-3.6-3.2c1.2-1.3,2.3-3.3,3.7-3.6s2.7,1.6,4.1,2.6Z"/></svg>